<svg width="386" height="306" viewBox="0 0 386 306" fill="none" xmlns="http://www.w3.org/2000/svg">
<g clip-path="url(#clip0_304_19387)">
<path d="M226.198 141.146H151.091C145.157 141.146 140.346 136.32 140.346 130.367V55.0202C140.346 49.0679 145.157 44.2416 151.091 44.2416H226.198C232.131 44.2416 236.94 49.0679 236.94 55.0202V130.367C236.94 136.32 232.131 141.146 226.198 141.146Z" fill="currentColor"/>
<path d="M211.005 121.301H166.283V119.084H211.005V121.301Z" fill="#96BFE6"/>
<path d="M204.671 128.284H172.618V126.069H204.671V128.284Z" fill="#96BFE6"/>
<path d="M372.376 233.52H265.488C258.498 233.52 252.832 227.836 252.832 220.823V90.5491C252.832 83.5348 258.498 77.8507 265.488 77.8507H372.376C379.366 77.8507 385.032 83.5348 385.032 90.5491V220.823C385.032 227.836 379.366 233.52 372.376 233.52Z" fill="currentColor"/>
<path d="M323.259 171.634H312.773V169.686H323.259V171.634" fill="#4598E6"/>
<path d="M333.977 191.31H272.966V187.538H333.977V191.31Z" fill="#96BFE6"/>
<path d="M322.303 209.417H272.966V205.645H322.303V209.417Z" fill="#96BFE6"/>
<path d="M301.889 200.363H272.966V196.592H301.889V200.363Z" fill="#96BFE6"/>
<path d="M275.914 160.124H274.015V172.558H287.096V170.652H275.914V160.124ZM361.121 160.124V170.652H349.939V172.558H363.018V160.124H361.121ZM274.015 105.806H275.914V95.2796H287.096V93.3745H274.015V105.806ZM349.939 93.3745V95.2796H361.121V105.806H363.018V93.3745H349.939" fill="#4598E6"/>
<path d="M357.099 189.432C352.127 189.432 348.082 193.488 348.082 198.478C348.082 203.466 352.127 207.522 357.099 207.522C362.071 207.522 366.117 203.466 366.117 198.478C366.117 193.488 362.071 189.432 357.099 189.432ZM357.099 209.694C350.933 209.694 345.917 204.662 345.917 198.478C345.917 192.292 350.933 187.26 357.099 187.26C363.265 187.26 368.281 192.292 368.281 198.478C368.281 204.662 363.265 209.694 357.099 209.694Z" fill="#4598E6"/>
<path d="M356.387 202.893L351.307 197.796L352.836 196.26L356.387 199.821L361.363 194.829L362.892 196.365L356.387 202.893" fill="#4598E6"/>
<path d="M363.824 297.174C363.824 301.878 282.593 305.692 182.391 305.692C82.1887 305.692 0.95874 301.878 0.95874 297.174C0.95874 292.47 82.1887 288.656 182.391 288.656C282.593 288.656 363.824 292.47 363.824 297.174" fill="currentColor"/>
<path d="M213.512 81.9824C211.368 76.2909 206.216 73.6784 203.785 72.8646C202.92 72.5761 201.373 72.0691 199.743 71.54C196.805 70.5883 193.597 69.5522 193.597 69.5522H183.464C183.464 69.5522 179.956 70.7316 176.225 72.0434L176.223 72.047C172.788 73.2559 169.169 74.5731 167.95 75.1886C165.402 76.4635 161.117 85.585 160.251 86.6304C159.804 87.1686 157.815 90.7217 155.859 94.6899H166.776C167.929 92.7021 168.818 91.1608 168.818 91.1608C168.818 91.1608 169.508 92.6801 170.345 94.6899H205.319C205.872 92.3568 206.216 89.4155 206.216 89.4155C206.216 89.4155 208.09 91.971 210.135 94.6899H220.215C217.763 90.5637 214.721 85.1937 213.512 81.9824Z" fill="#385369"/>
<path d="M189.739 41.6185C189.739 41.6185 197.663 42.8696 196.456 55.3071C195.249 67.7428 188.255 66.7232 187.788 66.7103C187.321 66.6993 180.769 66.9382 180.258 51.7541C180.258 51.7541 180.035 40.5254 189.739 41.6185Z" fill="#EEA886"/>
<path d="M196.578 51.7942C196.578 51.7942 197.445 50.8646 197.763 51.8052C198.082 52.7459 196.58 56.9438 196.525 57.1403C196.525 57.1403 196.368 57.5059 196.159 57.3038C195.952 57.1036 196.578 51.7942 196.578 51.7942Z" fill="#EEA886"/>
<path d="M180.47 51.6364C180.47 51.6364 179.621 50.6903 179.285 51.6254C178.948 52.5605 180.357 56.786 180.419 56.9826C180.419 56.9826 180.571 57.3518 180.783 57.1552C180.994 56.9568 180.47 51.6364 180.47 51.6364" fill="#EEA886"/>
<path d="M196.575 53.7013L195.439 55.2225C195.439 55.2225 195.472 51.8862 195.289 51.3645C195.108 50.8409 194.829 49.2444 194.677 48.8659C194.525 48.4893 187.872 46.6209 181.998 49.4134C181.998 49.4134 182.256 51.8109 181.692 52.024C181.129 52.2371 181.406 55.9316 181.406 55.9316L180.472 54.8753C180.472 54.8753 179.045 45.3074 179.397 44.3098C179.75 43.3122 180.873 37.3176 192.929 40.8762C192.929 40.8762 196.686 40.077 197.441 42.6802C198.195 45.2835 196.575 53.7013 196.575 53.7013" fill="#434343"/>
<path d="M194.581 69.3284L193.564 68.8268C193.07 67.7209 193.436 63.049 193.436 63.049C193.436 63.049 183.345 60.4715 183.633 62.4409C183.922 64.4122 182.765 68.9904 182.765 68.9904L177.588 71.5679C177.588 71.5679 183.104 86.4268 189.442 84.5088C195.782 82.5926 198.175 71.0333 198.175 71.0333L194.581 69.3284Z" fill="#EEA886"/>
<path d="M183.78 64.6304C183.78 64.6304 185.404 66.7358 188.226 66.7358C190.083 66.7358 191.416 66.214 193.266 64.4044C193.266 64.4044 192.464 67.8399 188.239 68.1596C188.239 68.1596 185.177 68.5509 183.78 64.6304Z" fill="#A77860"/>
<path d="M154.645 114.521C154.645 114.521 160.469 117.377 159.028 125.15C157.588 132.923 156.951 133.97 158.563 137.007C160.172 140.044 162.073 153 160.623 155.454C159.174 157.91 142.685 144.665 140.398 133.55C138.112 122.435 141.848 117.493 143.169 115.65C144.489 113.81 149.505 111.903 154.645 114.521" fill="#0E2D3D"/>
<path d="M152.449 294.905H153.768V288.66C153.768 288.66 156.357 290.391 157.98 292.785C159.604 295.177 161.837 294.975 165.237 294.82C168.638 294.668 168.486 293.294 168.182 291.359C167.876 289.425 164.426 288.813 163.309 288.508C162.194 288.203 159.657 283.821 158.843 282.754C157.731 281.299 157.143 279.903 157.143 279.903C157.143 279.903 156.509 277.307 153.361 279.903C150.215 282.5 151.129 287.49 151.484 287.947C151.84 288.407 152.449 294.905 152.449 294.905" fill="#163342"/>
<path d="M159.097 288.508C160.264 289.272 163.309 288.508 163.309 288.508C162.447 287.387 157.143 279.903 157.143 279.903C153.92 278.02 152.647 280.612 152.647 280.612C153.962 281.016 157.931 287.744 159.097 288.508" fill="#EEA886"/>
<path d="M193.031 173.333C193.031 173.333 195.145 173.739 195.866 172.743C196.48 171.896 197.882 171.246 198.315 171.046C198.891 170.776 200.356 169.289 200.703 170.017C201.047 170.743 198.404 172.585 197.926 173.081C197.448 173.579 200.518 173.8 201.049 174.283C201.578 174.766 200.926 179.846 198.837 179.451C196.747 179.054 194.777 177.248 194.396 177.252C194.013 177.255 192.863 177.024 192.863 177.024L193.031 173.333" fill="#EEA886"/>
<path d="M200.582 174.075C200.582 174.075 206.898 175.712 207.228 176.173C207.559 176.636 207.449 176.974 206.852 176.846C206.255 176.717 200.704 175.442 200.704 175.442C200.704 175.442 207.856 178.639 208.209 178.958C208.414 179.146 208.244 179.813 207.918 179.774C207.592 179.735 200.324 176.972 200.324 176.972C200.324 176.972 206.995 179.971 207.211 180.325C207.4 180.637 207.088 181.211 206.579 181.021C206.068 180.834 199.719 178.402 199.719 178.402C199.719 178.402 204.438 180.891 204.444 181.299C204.448 181.549 204.327 182.133 203.129 181.453C201.931 180.772 198.937 179.465 198.937 179.465L200.582 174.075" fill="#EEA886"/>
<path d="M135.351 295.331H136.162V290.747C136.162 290.747 137.607 292.239 138.266 294.427C138.926 296.617 141.288 297.265 144.892 297.164C148.496 297.063 148.545 295.636 148.241 293.497C147.937 291.359 144.892 290.238 144.892 290.238C143.522 289.017 140.121 283.952 140.121 283.952C140.121 283.952 137.938 283.365 136.226 284.753C134.514 286.14 135.047 289.272 135.096 290.086C135.148 290.901 135.351 295.331 135.351 295.331" fill="#163342"/>
<path d="M137.837 186.171C137.837 186.171 133.543 191.771 132.378 198.416C131.214 205.061 133.067 227.36 133.016 230.645C132.964 233.928 129.921 242.1 130.529 248.285C131.139 254.473 133.541 285.262 133.541 285.262L140.121 283.952C140.121 283.952 139.74 252.562 140.121 249.966C140.502 247.37 141.266 237.905 141.418 236.836C141.57 235.767 151.083 207.692 151.083 202.9C151.083 198.111 148.19 178.356 137.837 186.171" fill="#1D3B54"/>
<path d="M159.407 188.361C159.407 188.361 166.461 215.371 167.3 219.113C168.136 222.853 169.349 225.94 169.349 227.529C169.349 231.216 167.984 237.136 167.984 237.136L159.026 280.116H150.494C150.494 280.116 155.248 254.331 155.376 249.288C155.504 244.236 159.381 237.06 158.621 234.922C157.859 232.783 146.364 208.114 146.364 208.114C146.364 208.114 137.66 180.52 159.407 188.361" fill="#1D3B54"/>
<path d="M144.892 290.239L140.121 283.952L136.226 284.753C136.226 284.753 137.274 287.567 139.167 289.684C141.41 292.192 144.892 290.239 144.892 290.239Z" fill="#EEA886"/>
<path d="M156.493 142.46C156.493 142.46 159.401 142.735 161.599 145.098C163.796 147.46 165.86 151.226 166.435 152.487C167.01 153.747 175.079 165.422 175.498 165.685C175.916 165.946 179.972 167.305 182.659 168.213C186.807 169.613 195.119 172.644 195.119 172.644L193.467 177.887C193.467 177.887 177.837 172.756 173.922 171.79C169.135 170.607 158.116 156.424 158.116 156.424C158.116 156.424 149.9 146.764 156.493 142.46" fill="#285173"/>
<path d="M151.419 140.413C151.419 140.413 155.186 142.199 156.493 142.46C157.801 142.723 162.877 149.336 163.767 151.752C164.655 154.166 163.767 157.789 161.936 162.04C160.104 166.291 161.83 167.71 160.993 171.961C160.156 176.214 160.425 192.12 160.582 194.483C160.74 196.843 136.091 200.424 131.225 196.119C131.225 196.119 134.519 181.784 138.42 177.693C139.262 176.809 139.175 170.912 138.598 169.442C138.023 167.972 131.534 157.001 131.534 157.001C131.534 157.001 131.058 145.873 133.889 143.669C136.349 141.753 143.051 141.069 144.255 140.648C145.458 140.23 148.959 140.046 151.419 140.413" fill="#FFBF55"/>
<path d="M153.217 136.052C153.217 136.052 153.103 137.094 152.973 138.499C152.924 139.056 152.869 139.669 152.82 140.299C152.669 142.184 152.549 144.207 152.622 145.243C152.622 145.243 148.707 149.18 144.255 140.65C144.255 140.65 146.126 137.132 144.718 132.345C143.308 127.553 153.217 136.052 153.217 136.052" fill="#EEA886"/>
<path d="M164.174 163.609C164.174 163.609 165.117 157.32 164.115 153.495C164.115 153.495 164.115 156.784 162.317 161.454L164.174 163.609" fill="#183C59"/>
<path d="M141.246 141.254C141.246 141.254 143.939 149.233 151.332 148.647C158.727 148.059 154.838 141.908 154.838 141.908C154.838 141.908 152.995 140.848 152.477 140.749C151.959 140.648 144.302 140.552 144.302 140.552L141.246 141.254Z" fill="#EEA886"/>
<path d="M154.838 141.908C154.838 141.908 158.711 152.656 158.711 163.609C158.711 174.56 159.022 192.402 160.374 198.035C161.727 203.67 165.575 221.093 165.575 221.093L168.591 219.528C168.591 219.528 161.339 191.721 160.791 189.715C160.244 187.71 161.207 166.526 161.727 164.753C162.247 162.979 164.457 155.084 164.115 152.893C163.681 150.131 161.106 146.046 156.945 142.533L154.838 141.908Z" fill="#285173"/>
<path d="M142.707 140.918C142.707 140.918 145.115 148.651 146.333 158.551C147.553 168.454 142.59 214.417 139.262 224.851L126.365 222.764C126.365 222.764 129.141 190.275 132.91 184.363C136.678 178.45 137.878 173.219 133.809 160.879C129.741 148.539 135.592 142.427 135.592 142.427C135.592 142.427 141.577 141.047 142.707 140.918Z" fill="#285173"/>
<path d="M156.621 173.706L140.984 200.875L123.601 190.808L138.557 163.243L156.621 173.706Z" fill="#616161"/>
<path d="M154.735 174.641L140.848 198.772L125.41 189.829L138.695 165.349L154.735 174.641" fill="#E0CEC7"/>
<path d="M149.613 172.473L150.587 170.779L144.346 167.164L143.126 168.716L149.613 172.473" fill="#616161"/>
<path d="M148.868 191.75C148.868 191.75 148.157 191.754 147.844 191.604C147.844 191.604 147.298 191.286 146.897 191.082C146.769 191.019 146.657 190.966 146.58 190.94C146.262 190.828 145.527 190.681 144.837 190.2C144.146 189.719 141.698 186.875 141.698 186.875L142.854 185.111L143.701 183.305C143.701 183.305 148.842 183.638 149.538 184.011C149.606 184.049 149.671 184.088 149.73 184.128C150.289 184.501 150.547 185.015 150.818 185.245C150.917 185.33 151.845 186.239 151.812 186.627C151.768 187.165 151.519 187.52 151.197 187.698C151.197 187.698 151.063 188.747 150.547 189.235C150.547 189.235 150.455 190.207 149.642 190.633C149.642 190.633 149.439 191.609 148.868 191.75Z" fill="#EEA886"/>
<path d="M138.272 142.46C138.272 142.46 133.523 141.097 130.802 146.345C128.08 151.594 128.093 153.833 127.731 156.398C127.386 158.818 125.837 165.426 125.68 166.108C125.524 166.791 122.013 174.928 123.623 177.772C125.24 180.63 141.676 189.046 141.572 189.676C141.467 190.305 144.417 183.314 144.417 183.314C144.417 183.314 137.768 179.594 136.678 178.45C134.909 176.59 131.177 174.586 131.944 172.279C132.844 169.569 135.55 160.425 136.178 159.086C136.807 157.748 142.273 144.166 138.272 142.46Z" fill="#285173"/>
<path d="M153.801 115.382C153.801 115.382 162.254 118.047 157.665 132.682C153.076 147.319 141.531 130.986 142.738 122.069C143.947 113.153 153.801 115.382 153.801 115.382Z" fill="#EEA987"/>
<path d="M158.53 123.921C158.53 123.921 154.329 128.056 147.3 128.574C147.3 128.574 144.597 131.753 144.39 133C144.39 133 138.118 122.275 145.828 115.845C153.537 109.415 161.364 121.272 158.53 123.921Z" fill="#0E2D3D"/>
<path d="M147.384 128.865C147.329 127.799 146.676 125.376 145.097 126.054C143.518 126.734 145.194 131.67 146.242 131.365C146.242 131.365 147.513 131.386 147.384 128.865Z" fill="#EEA987"/>
<path d="M152.974 138.499C152.924 139.056 152.869 139.669 152.82 140.299C152.82 140.299 149.087 140.075 146.593 134.507C146.756 134.751 149.49 138.78 152.974 138.499Z" fill="#A77860"/>
<path d="M60.4027 272.341C65.8233 268.516 72.1673 241.864 72.5458 225.991C72.7398 217.86 75.1357 214.472 77.2495 211.483C79.2702 208.626 81.0153 206.159 79.9987 200.493C78.0561 189.665 83.1637 184.992 83.2155 184.946L82.6242 184.27C82.397 184.47 77.0778 189.29 79.1164 200.653C80.0663 205.946 78.5005 208.16 76.5183 210.963C74.4385 213.903 71.8499 217.562 71.6496 225.969C71.2434 243.005 64.7575 268.169 59.887 271.604L60.4027 272.341" fill="url(#paint0_linear_304_19387)"/>
<path d="M32.1874 223.418C28.9768 221.659 25.5339 221.305 24.1791 222.593C23.1494 223.572 23.6349 225.249 24.2236 226.484C25.3468 228.839 26.7671 230.292 28.0203 231.576C29.7626 233.358 31.1388 234.768 30.4409 237.503C30.3041 238.039 30.1462 238.581 29.9876 239.125C28.8804 242.924 27.8344 246.514 33.6323 249.129C34.9941 249.742 36.2419 250.235 37.3433 250.668C41.9307 252.474 44.9615 253.666 48.2102 260.546C48.8147 261.827 49.3463 263.036 49.8606 264.204C52.6648 270.581 54.3575 274.43 60.4885 273.186C62.2458 272.83 63.3908 271.92 63.8916 270.484C65.1792 266.789 62.0982 260.322 59.378 257.072C59.1788 256.832 54.5025 251.113 55.0164 242.928C55.0999 241.596 55.2367 240.371 55.3574 239.292C55.677 236.43 55.9081 234.362 54.8496 233.169C53.8819 232.078 51.7637 231.584 47.9813 231.565C40.3861 231.53 37.3877 228.38 34.9785 225.85C34.0147 224.836 33.1822 223.961 32.1874 223.418V223.418ZM49.0405 264.568C48.5287 263.403 47.9992 262.2 47.4 260.93C44.3033 254.374 41.5602 253.293 37.0154 251.504C35.9051 251.067 34.6463 250.571 33.2649 249.95C26.7548 247.014 28.0151 242.689 29.1273 238.874C29.2828 238.339 29.4381 237.806 29.5725 237.281C30.145 235.036 29.0451 233.91 27.3799 232.205C26.1425 230.939 24.6021 229.363 23.4149 226.871C22.1156 224.147 22.7778 222.686 23.5623 221.941C25.2138 220.37 29.0218 220.658 32.617 222.628C33.7341 223.239 34.6536 224.206 35.627 225.229C37.919 227.636 40.7713 230.632 47.9855 230.667C52.0991 230.685 54.3522 231.255 55.5191 232.57C56.8435 234.064 56.5939 236.298 56.2483 239.392C56.1287 240.461 55.9932 241.675 55.9112 242.985C55.4204 250.8 60.0201 256.44 60.0655 256.496C62.8135 259.777 66.1991 266.589 64.7377 270.779C64.1253 272.538 62.7555 273.644 60.6663 274.068C59.834 274.237 59.0735 274.316 58.3743 274.316C53.3283 274.316 51.4818 270.118 49.0405 264.568" fill="url(#paint1_linear_304_19387)"/>
<path d="M60.5692 279.507L61.4644 279.461C61.4202 278.616 60.2911 258.727 52.3306 252.907C43.5971 246.521 40.8437 239.658 39.5325 235.05C37.9871 229.623 30.1222 228.172 29.7882 228.113L29.6323 228.998C29.7085 229.013 37.2795 230.411 38.6704 235.298C40.0182 240.032 42.8457 247.083 51.8024 253.633C59.4216 259.205 60.5586 279.305 60.5692 279.507" fill="url(#paint2_linear_304_19387)"/>
<path d="M86.483 249.364C92.4747 245.408 89.7792 241.093 86.6581 236.094C84.2032 232.162 81.4209 227.707 83.0559 223.022C84.9672 217.548 87.8008 214.219 90.3011 211.283C94.4906 206.365 97.2576 203.115 91.7181 193.299C87.0274 184.986 91.6423 177.858 95.3513 172.13C97.6257 168.615 99.5907 165.578 98.9076 163.139C98.5231 161.775 97.3126 160.62 95.2029 159.608C94.7726 159.4 94.333 159.402 93.8587 159.609C90.6917 160.993 87.7838 170.217 87.7547 170.311L87.7314 170.384L87.6843 170.447C84.3948 174.808 80.5287 174.525 77.4217 174.296C75.5653 174.16 74.0992 174.051 73.2156 174.935C72.3453 175.804 72.0245 177.707 72.2346 180.755C73.0391 192.419 66.5654 194.796 61.3638 196.705C58.4414 197.778 55.9175 198.706 55.0535 200.989C54.1314 203.427 55.1344 207.228 58.2101 212.951C65.5534 226.612 61.4434 229.864 57.4684 233.009C54.1437 235.64 51.0032 238.124 54.7317 247.124C58.5589 256.363 58.3793 266.328 58.2478 273.605C58.1581 278.571 58.0874 282.493 59.4535 283.176C60.2531 283.575 61.7824 282.901 64.0001 281.17C64.889 279.232 75.4042 256.675 86.483 249.364ZM59.0538 283.981C57.1807 283.046 57.2487 279.283 57.3514 273.588C57.4814 266.392 57.6592 256.536 53.904 247.469C49.9147 237.839 53.4725 235.025 56.9133 232.304C60.7669 229.254 64.4068 226.375 57.421 213.377C54.2125 207.408 53.194 203.37 54.2153 200.67C55.2247 198.002 58.0572 196.962 61.0557 195.862C66.2317 193.96 72.0981 191.807 71.3403 180.817C71.1079 177.448 71.5028 175.376 72.5829 174.297C73.7564 173.125 75.4855 173.252 77.4873 173.399C80.512 173.621 83.9384 173.873 86.9231 169.965C87.2335 168.99 90.087 160.276 93.4998 158.785C94.2177 158.47 94.9209 158.474 95.5893 158.796C97.9462 159.925 99.3124 161.267 99.7702 162.896C100.565 165.727 98.4974 168.92 96.1021 172.618C92.34 178.431 88.0757 185.017 92.4986 192.856C98.3454 203.22 95.2579 206.848 90.9827 211.867C88.5337 214.744 85.758 218.003 83.9022 223.32C82.4096 227.597 84.9555 231.674 87.4177 235.616C90.5062 240.562 93.6994 245.676 86.9756 250.115C75.8585 257.453 64.8795 281.403 64.77 281.644L64.7246 281.743L64.6387 281.811C62.5906 283.422 61.0997 284.19 59.9769 284.19C59.6372 284.19 59.3314 284.121 59.0538 283.981Z" fill="url(#paint3_linear_304_19387)"/>
<path d="M41.5064 179.586C47.1644 177.641 45.9888 188.581 48.3796 196.676C50.7704 204.77 74.9763 200.207 64.8157 220.476C54.6553 240.745 77.6658 227.253 70.7925 244.941C63.9193 262.629 70.1948 281.547 62.7238 276.735C55.2528 271.924 58.5267 249.65 50.757 247.003C42.9872 244.355 41.7193 241.269 49.4121 234.075C57.105 226.878 29.254 219.736 36.1273 205.207C43.0005 190.679 34.9695 181.835 41.5064 179.586" fill="url(#paint4_linear_304_19387)"/>
<path d="M60.1199 275.572C60.8314 272.545 66.9078 245.899 61.2379 242.676C56.2409 239.838 56.3639 228.797 57.1435 218.369C57.8336 209.139 46.0171 204.825 45.5137 204.645L45.2139 205.494C45.3307 205.534 56.8882 209.758 56.2495 218.301C55.449 229.01 55.3631 240.372 60.7962 243.459C65.1013 245.906 61.1376 267.322 59.2471 275.367L60.1199 275.572" fill="white"/>
<path d="M81.4669 266.085L73.3886 296.83H55.3359L47.2578 266.085H81.4669Z" fill="url(#paint5_linear_304_19387)"/>
<path d="M81.4669 266.085C81.4669 266.085 63.6831 269.434 63.6831 296.83H55.3359L47.2578 266.085H81.4669Z" fill="url(#paint6_linear_304_19387)"/>
<path d="M254.843 72.4863V72.468H254.587V72.4496H254.349V72.4312H254.202V72.4128H254.056V72.3945H253.909V72.3761H253.799V72.3577H253.708V72.3394H253.598V72.321H253.506V72.3026H253.415V72.2842H253.342V72.2659H253.25V72.2475H253.177V72.2291H253.103V72.2108H253.03V72.1924H252.957V72.174H252.902V72.1556H252.829V72.1373H252.774V72.1189H252.701V72.1005H252.627V72.0822H252.572V72.0638H252.517V72.0454H252.481V72.027H252.426V72.0087H252.371V71.9903H252.316V71.9719H252.261V71.9536H252.206V71.9352H252.151V71.9168H252.115V71.8984H252.06V71.8801H252.023V71.8617H251.968V71.8433H251.931V71.825H251.876V71.8066H251.84V71.7882H251.785V71.7698H251.748V71.7515H251.712V71.7331H251.675V71.7147H251.62V71.6964H251.583V71.678H251.547V71.6596H251.51V71.6412H251.474V71.6229H251.419V71.6045H251.382V71.5861H251.345V71.5678H251.309V71.5494H251.29V71.531H251.254V71.5126H251.217V71.4943H251.181V71.4759H251.144V71.4575H251.107V71.4392H251.071V71.4208H251.034V71.4024H250.997V71.384H250.961V71.3657H250.943V71.3473H250.906V71.3289H250.869V71.3105H250.833V71.2922H250.814V71.2738H250.778V71.2554H250.741V71.2371H250.723V71.2187H250.686V71.2003H250.649V71.1819H250.631V71.1636H250.595V71.1452H250.576V71.1268H250.54V71.1085H250.503V71.0901H250.485V71.0717H250.448V71.0533H250.43V71.035H250.393V71.0166H250.375V70.9982H250.338V70.9799H250.302V70.9615H250.283V70.9431H250.265V70.9247H250.228V70.9064H250.21V70.888H250.173V70.8696H250.155V70.8513H250.137V70.8329H250.1V70.8145H250.082V70.7961H250.045V70.7778H250.027V70.7594H250.009V70.741H249.972V70.7227H249.954V70.7043H249.935V70.6859H249.899V70.6675H249.88V70.6492H249.862V70.6308H249.844V70.6124H249.807V70.5941H249.789V70.5757H249.77V70.5573H249.734V70.5389H249.716V70.5206H249.697V70.5022H249.679V70.4838H249.642V70.4655H249.624V70.4471H249.606V70.4287H249.587V70.4103H249.569V70.392H249.551V70.3736H249.514V70.3552H249.496V70.3369H249.477V70.3185H249.459V70.3001H249.441V70.2817H249.423V70.2634H249.386V70.245H249.368V70.2266H249.349V70.2083H249.331V70.1899H249.313V70.1715H249.294V70.1531H249.276V70.1348H249.258V70.1164H249.239V70.098H249.221V70.0797H249.203V70.0613H249.184V70.0429H249.148V70.0245H249.13V70.0062H249.111V69.9878H249.093V69.9694H249.075V69.9511H249.056V69.9327H249.038V69.9143H249.02V69.8959H249.001V69.8776H248.983V69.8592H248.965V69.8408H248.946V69.8225H248.928V69.8041H248.91V69.7857H248.891V69.7673H248.873V69.749H248.855V69.7122H248.837V69.6939H248.818V69.6755H248.8V69.6571H248.782V69.6387H248.763V69.6204H248.745V69.602H248.727V69.5836H248.708V69.5653H248.69V69.5469H248.672V69.5285H248.653V69.5101H248.635V69.4734H248.617V69.455H248.598V69.4367H248.58V69.4183H248.562V69.3999H248.543V69.3815H248.525V69.3448H248.507V69.3264H248.489V69.3081H248.47V69.2897H248.452V69.2713H248.434V69.2529H248.415V69.2162H248.397V69.1978H248.379V69.1795H248.36V69.1611H248.342V69.1243H248.324V69.106H248.305V69.0876H248.287V69.0509H248.269V69.0325H248.25V69.0141H248.232V68.9957H248.214V68.959H248.196V68.9406H248.177V68.9223H248.159V68.8855H248.141V68.8671H248.122V68.8488H248.104V68.812H248.086V68.7936H248.067V68.7569H248.049V68.7385H248.031V68.7018H248.012V68.6834H247.994V68.665H247.976V68.6283H247.957V68.6099H247.939V68.5732H247.921V68.5548H247.903V68.5181H247.884V68.4997H247.866V68.463H247.848V68.4446H247.829V68.4078H247.811V68.3895H247.793V68.3527H247.774V68.316H247.756V68.2976H247.738V68.2609H247.719V68.2425H247.701V68.2058H247.683V68.169H247.664V68.1506H247.646V68.1139H247.628V68.0772H247.61V68.0404H247.591V68.022H247.573V67.9853H247.555V67.9486H247.536V67.9118H247.518V67.8934H247.5V67.8567H247.481V67.82H247.463V67.7832H247.445V67.7465H247.426V67.7097H247.408V67.673H247.39V67.6362H247.371V67.5995H247.353V67.5628H247.335V67.526H247.317V67.4893H247.298V67.4525H247.28V67.4158H247.262V67.379H247.243V67.3423H247.225V67.3056H247.207V67.2504H247.188V67.2137H247.17V67.177H247.152V67.1402H247.133V67.1035H247.115V67.0484H247.097V67.0116H247.078V66.9565H247.06V66.9198H247.042V66.8646H247.024V66.8279H247.005V66.7728H246.987V66.7177H246.969V66.6809H246.95V66.6258H246.932V66.5707H246.914V66.5156H246.895V66.4605H246.877V66.4054H246.859V66.3502H246.84V66.2951H246.822V66.24H246.804V66.1849H246.785V66.1114H246.767V66.0563H246.749V65.9828H246.731V65.9277H246.712V65.8542H246.694V65.7807H246.676V65.7072H246.657V65.6154H246.639V65.5419H246.621V65.4684H246.602V65.3765H246.584V65.2663H246.566V65.1561H246.547V65.0642H246.529V64.954H246.511V64.807H246.492V64.6601H246.474V64.5131H246.456V64.2743H246.438V63.9619H246.419V16.8757H246.438V16.5634H246.456V16.3245H246.474V16.1776H246.492V16.0306H246.511V15.8836H246.529V15.7734H246.547V15.6632H246.566V15.5713H246.584V15.4611H246.602V15.3692H246.621V15.2957H246.639V15.2223H246.657V15.1304H246.676V15.0569H246.694V14.9834H246.712V14.9099H246.731V14.8548H246.749V14.7813H246.767V14.7262H246.785V14.6527H246.804V14.5976H246.822V14.5425H246.84V14.4874H246.859V14.4323H246.877V14.3772H246.895V14.3221H246.914V14.2669H246.932V14.2118H246.95V14.1567H246.969V14.1016H246.987V14.0649H247.005V14.0097H247.024V13.973H247.042V13.9179H247.06V13.8811H247.078V13.826H247.097V13.7893H247.115V13.7342H247.133V13.6974H247.152V13.6607H247.17V13.6239H247.188V13.5688H247.207V13.5321H247.225V13.4953H247.243V13.4586H247.262V13.4218H247.28V13.3667H247.298V13.33H247.317V13.2932H247.335V13.2749H247.353V13.2381H247.371V13.2014H247.39V13.1646H247.408V13.1279H247.426V13.0912H247.445V13.0544H247.463V13.0177H247.481V12.9809H247.5V12.9442H247.518V12.9074H247.536V12.8891H247.555V12.8523H247.573V12.8156H247.591V12.7972H247.61V12.7605H247.628V12.7237H247.646V12.687H247.664V12.6686H247.683V12.6319H247.701V12.5951H247.719V12.5768H247.738V12.54H247.756V12.5033H247.774V12.4849H247.793V12.4482H247.811V12.4298H247.829V12.393H247.848V12.3747H247.866V12.3379H247.884V12.3196H247.903V12.2828H247.921V12.2461H247.939V12.2277H247.957V12.2093H247.976V12.1726H247.994V12.1542H248.012V12.1175H248.031V12.0991H248.049V12.0807H248.067V12.044H248.086V12.0256H248.104V11.9889H248.122V11.9705H248.141V11.9521H248.159V11.9154H248.177V11.897H248.196V11.8786H248.214V11.8419H248.232V11.8235H248.25V11.8052H248.269V11.7684H248.287V11.75H248.305V11.7317H248.324V11.7133H248.342V11.6766H248.36V11.6582H248.379V11.6398H248.397V11.6214H248.415V11.5847H248.434V11.5663H248.452V11.548H248.47V11.5296H248.489V11.5112H248.507V11.4745H248.525V11.4561H248.543V11.4377H248.562V11.4194H248.58V11.401H248.598V11.3826H248.617V11.3642H248.635V11.3275H248.653V11.3091H248.672V11.2907H248.69V11.2724H248.708V11.254H248.727V11.2356H248.745V11.2173H248.763V11.1989H248.782V11.1805H248.8V11.1621H248.818V11.1254H248.837V11.107H248.855V11.0887H248.873V11.0703H248.891V11.0519H248.91V11.0335H248.928V11.0152H248.946V10.9968H248.965V10.9784H248.983V10.9601H249.001V10.9417H249.02V10.9233H249.038V10.9049H249.056V10.8866H249.075V10.8682H249.093V10.8498H249.111V10.8315H249.13V10.8131H249.148V10.7947H249.166V10.7763H249.184V10.758H249.203V10.7396H249.239V10.7212H249.258V10.7029H249.276V10.6845H249.294V10.6661H249.313V10.6477H249.331V10.6294H249.349V10.611H249.368V10.5926H249.386V10.5743H249.404V10.5559H249.441V10.5375H249.459V10.5191H249.477V10.5008H249.496V10.4824H249.514V10.464H249.532V10.4457H249.569V10.4273H249.587V10.4089H249.606V10.3905H249.624V10.3722H249.642V10.3538H249.661V10.3354H249.697V10.3171H249.716V10.2987H249.734V10.2803H249.77V10.2619H249.789V10.2436H249.807V10.2252H249.825V10.2068H249.862V10.1885H249.88V10.1701H249.899V10.1517H249.917V10.1333H249.954V10.115H249.972V10.0966H249.99V10.0782H250.027V10.0599H250.045V10.0415H250.082V10.0231H250.1V10.0047H250.137V9.98637H250.155V9.968H250.173V9.94963H250.21V9.93126H250.228V9.91288H250.265V9.89451H250.283V9.87614H250.302V9.85777H250.338V9.8394H250.356V9.82103H250.393V9.80266H250.43V9.78428H250.448V9.76591H250.485V9.74754H250.503V9.72917H250.54V9.7108H250.558V9.69243H250.595V9.67405H250.613V9.65568H250.649V9.63731H250.686V9.61894H250.704V9.60057H250.741V9.5822H250.778V9.56383H250.814V9.54545H250.833V9.52708H250.869V9.50871H250.906V9.49034H250.943V9.47197H250.961V9.4536H250.997V9.43522H251.034V9.41685H251.071V9.39848H251.107V9.38011H251.144V9.36174H251.162V9.34337H251.199V9.325H251.236V9.30662H251.272V9.28825H251.309V9.26988H251.345V9.25151H251.382V9.23314H251.419V9.21477H251.455V9.19639H251.51V9.17802H251.547V9.15965H251.583V9.14128H251.62V9.12291H251.657V9.10454H251.712V9.08617H251.748V9.06779H251.785V9.04942H251.822V9.03105H251.876V9.01268H251.913V8.99431H251.968V8.97594H252.005V8.95756H252.06V8.93919H252.115V8.92082H252.151V8.90245H252.206V8.88408H252.243V8.86571H252.298V8.84734H252.353V8.82896H252.408V8.81059H252.462V8.79222H252.517V8.77385H252.572V8.75548H252.627V8.73711H252.701V8.71873H252.755V8.70036H252.829V8.68199H252.884V8.66362H252.957V8.64525H253.012V8.62688H253.085V8.60851H253.177V8.59013H253.25V8.57176H253.323V8.55339H253.415V8.53502H253.488V8.51665H253.598V8.49828H253.689V8.47991H253.799V8.46153H253.891V8.44316H254.037V8.42479H254.184V8.40642H254.33V8.38805H254.55V8.36968H254.788V8.3513H309.031V8.36968H309.269V8.38805H309.508V8.40642H309.636V8.42479H309.782V8.44316H309.929V8.46153H310.039V8.47991H310.13V8.49828H310.24V8.51665H310.332V8.53502H310.423V8.55339H310.496V8.57176H310.588V8.59013H310.661V8.60851H310.734V8.62688H310.808V8.64525H310.881V8.66362H310.936V8.68199H311.009V8.70036H311.064V8.71873H311.137V8.73711H311.192V8.75548H311.247V8.77385H311.302V8.79222H311.357V8.81059H311.412V8.82896H311.467V8.84734H311.522V8.86571H311.577V8.88408H311.632V8.90245H311.668V8.92082H311.723V8.93919H311.76V8.95756H311.815V8.97594H311.852V8.99431H311.907V9.01268H311.961V9.03105H311.998V9.04942H312.035V9.06779H312.09V9.08617H312.126V9.10454H312.163V9.12291H312.2V9.14128H312.236V9.15965H312.291V9.17802H312.328V9.19639H312.364V9.21477H312.401V9.23314H312.438V9.25151H312.474V9.26988H312.511V9.28825H312.547V9.30662H312.584V9.325H312.621V9.34337H312.657V9.36174H312.694V9.38011H312.731V9.39848H312.767V9.41685H312.804V9.43522H312.822V9.4536H312.859V9.47197H312.895V9.49034H312.932V9.50871H312.95V9.52708H312.987V9.54545H313.024V9.56383H313.06V9.5822H313.079V9.60057H313.115V9.61894H313.152V9.63731H313.17V9.65568H313.207V9.67405H313.243V9.69243H313.262V9.7108H313.298V9.72917H313.317V9.74754H313.353V9.76591H313.372V9.78428H313.408V9.80266H313.426V9.82103H313.463V9.8394H313.5V9.85777H313.518V9.87614H313.536V9.89451H313.573V9.91288H313.591V9.93126H313.628V9.94963H313.646V9.968H313.665V9.98637H313.701V10.0047H313.72V10.0231H313.756V10.0415H313.774V10.0599H313.811V10.0782H313.829V10.0966H313.848V10.115H313.884V10.1333H313.903V10.1517H313.921V10.1701H313.939V10.1885H313.976V10.2068H313.994V10.2252H314.013V10.2436H314.049V10.2619H314.067V10.2803H314.086V10.2987H314.104V10.3171H314.141V10.3354H314.159V10.3538H314.177V10.3722H314.196V10.3905H314.232V10.4089H314.251V10.4273H314.269V10.4457H314.287V10.464H314.306V10.4824H314.324V10.5008H314.342V10.5191H314.379V10.5375H314.397V10.5559H314.415V10.5743H314.434V10.5926H314.452V10.611H314.47V10.6294H314.507V10.6477H314.525V10.6661H314.544V10.6845H314.562V10.7029H314.58V10.7212H314.599V10.7396H314.617V10.758H314.635V10.7763H314.653V10.7947H314.672V10.8131H314.69V10.8315H314.708V10.8498H314.727V10.8682H314.745V10.8866H314.763V10.9049H314.782V10.9233H314.8V10.9417H314.818V10.9601H314.837V10.9784H314.855V10.9968H314.873V11.0152H314.892V11.0335H314.91V11.0519H314.928V11.0703H314.946V11.0887H314.965V11.107H314.983V11.1254H315.001V11.1438H315.02V11.1621H315.038V11.1805H315.056V11.1989H315.075V11.2173H315.093V11.2356H315.111V11.254H315.13V11.2907H315.148V11.3091H315.166V11.3275H315.185V11.3459H315.203V11.3642H315.221V11.3826H315.239V11.4194H315.258V11.4377H315.276V11.4561H315.294V11.4745H315.313V11.4928H315.331V11.5112H315.349V11.5296H315.368V11.5663H315.386V11.5847H315.404V11.6031H315.423V11.6214H315.441V11.6582H315.459V11.6766H315.478V11.6949H315.496V11.7133H315.514V11.75H315.532V11.7684H315.551V11.7868H315.569V11.8235H315.587V11.8419H315.606V11.8603H315.624V11.8786H315.642V11.9154H315.661V11.9338H315.679V11.9521H315.697V11.9889H315.716V12.0072H315.734V12.044H315.752V12.0624H315.771V12.0807H315.789V12.1175H315.807V12.1358H315.826V12.1726H315.844V12.191H315.862V12.2093H315.88V12.2461H315.899V12.2644H315.917V12.3012H315.935V12.3379H315.954V12.3563H315.972V12.393H315.99V12.4114H316.009V12.4482H316.027V12.4665H316.045V12.5033H316.064V12.5216H316.082V12.5584H316.1V12.5951H316.119V12.6135H316.137V12.6502H316.155V12.687H316.173V12.7054H316.192V12.7421H316.21V12.7788H316.228V12.8156H316.247V12.834H316.265V12.8707H316.283V12.9074H316.302V12.9442H316.32V12.9626H316.338V12.9993H316.357V13.036H316.375V13.0728H316.393V13.1095H316.412V13.1463H316.43V13.183H316.448V13.2198H316.466V13.2565H316.485V13.2932H316.503V13.33H316.521V13.3667H316.54V13.4035H316.558V13.4402H316.576V13.477H316.595V13.5137H316.613V13.5688H316.631V13.6056H316.65V13.6423H316.668V13.679H316.686V13.7158H316.705V13.7709H316.723V13.8076H316.741V13.8628H316.759V13.8995H316.778V13.9546H316.796V13.9914H316.814V14.0465H316.833V14.0832H316.851V14.1383H316.869V14.1935H316.888V14.2486H316.906V14.3037H316.924V14.3588H316.943V14.4139H316.961V14.469H316.979V14.5058H316.998V14.5609H317.016V14.6344H317.034V14.6895H317.052V14.763H317.071V14.8181H317.089V14.8916H317.107V14.9467H317.126V15.0202H317.144V15.112H317.162V15.1855H317.181V15.259H317.199V15.3509H317.217V15.4243H317.236V15.5346H317.254V15.6264H317.272V15.7367H317.291V15.8285H317.309V15.9755H317.327V16.1225H317.345V16.2511H317.364V16.4715H317.382V16.7104H317.4V64.1273H317.382V64.3661H317.364V64.5682H317.345V64.7152H317.327V64.8621H317.309V65.0091H317.291V65.101H317.272V65.2112H317.254V65.3031H317.236V65.4133H317.217V65.4868H317.199V65.5786H317.181V65.6521H317.162V65.7256H317.144V65.8175H317.126V65.8726H317.107V65.9461H317.089V66.0012H317.071V66.0747H317.052V66.1481H317.034V66.2033H317.016V66.2584H316.998V66.3135H316.979V66.3686H316.961V66.4237H316.943V66.4788H316.924V66.534H316.906V66.5891H316.888V66.6442H316.869V66.6993H316.851V66.736H316.833V66.7912H316.814V66.8463H316.796V66.883H316.778V66.9381H316.759V66.9749H316.741V67.03H316.723V67.0667H316.705V67.1035H316.686V67.1586H316.668V67.1953H316.65V67.2321H316.631V67.2688H316.613V67.3239H316.595V67.3607H316.576V67.3974H316.558V67.4342H316.54V67.4709H316.521V67.5076H316.503V67.5444H316.485V67.5811H316.466V67.6179H316.448V67.6546H316.43V67.6914H316.412V67.7281H316.393V67.7648H316.375V67.8016H316.357V67.8383H316.338V67.8751H316.32V67.8934H316.302V67.9302H316.283V67.9669H316.265V68.0037H316.247V68.022H316.228V68.0588H316.21V68.0955H316.192V68.1323H316.173V68.1506H316.155V68.1874H316.137V68.2241H316.119V68.2425H316.1V68.2792H316.082V68.2976H316.064V68.3344H316.045V68.3711H316.027V68.3895H316.009V68.4262H315.99V68.4446H315.972V68.4813H315.954V68.4997H315.935V68.5364H315.917V68.5732H315.899V68.5916H315.88V68.6099H315.862V68.6467H315.844V68.665H315.826V68.7018H315.807V68.7202H315.789V68.7385H315.771V68.7753H315.752V68.7936H315.734V68.8304H315.716V68.8488H315.697V68.8671H315.679V68.9039H315.661V68.9223H315.642V68.959H315.624V68.9774H315.606V68.9957H315.587V69.0141H315.569V69.0509H315.551V69.0692H315.532V69.0876H315.514V69.106H315.496V69.1427H315.478V69.1611H315.459V69.1795H315.441V69.2162H315.423V69.2346H315.404V69.2529H315.386V69.2713H315.368V69.2897H315.349V69.3264H315.331V69.3448H315.313V69.3632H315.294V69.3815H315.276V69.3999H315.258V69.4183H315.239V69.455H315.221V69.4734H315.203V69.4918H315.185V69.5101H315.166V69.5285H315.148V69.5469H315.13V69.5653H315.111V69.602H315.093V69.6204H315.075V69.6387H315.056V69.6571H315.038V69.6755H315.02V69.6939H315.001V69.7122H314.983V69.7306H314.965V69.749H314.946V69.7673H314.928V69.7857H314.91V69.8041H314.892V69.8225H314.873V69.8408H314.855V69.8592H314.837V69.8776H314.818V69.8959H314.8V69.9143H314.782V69.9327H314.763V69.9511H314.745V69.9694H314.727V69.9878H314.708V70.0062H314.69V70.0245H314.672V70.0429H314.653V70.0613H314.635V70.0797H314.617V70.098H314.599V70.1164H314.58V70.1348H314.562V70.1531H314.544V70.1715H314.525V70.1899H314.489V70.2083H314.47V70.2266H314.452V70.245H314.434V70.2634H314.415V70.2817H314.397V70.3001H314.36V70.3185H314.342V70.3369H314.324V70.3552H314.306V70.3736H314.287V70.392H314.269V70.4103H314.251V70.4287H314.214V70.4471H314.196V70.4655H314.177V70.4838H314.159V70.5022H314.122V70.5206H314.104V70.5389H314.086V70.5573H314.067V70.5757H314.031V70.5941H314.013V70.6124H313.994V70.6308H313.976V70.6492H313.939V70.6675H313.921V70.6859H313.903V70.7043H313.866V70.7227H313.848V70.741H313.829V70.7594H313.793V70.7778H313.774V70.7961H313.756V70.8145H313.72V70.8329H313.701V70.8513H313.665V70.8696H313.646V70.888H313.628V70.9064H313.591V70.9247H313.573V70.9431H313.536V70.9615H313.518V70.9799H313.481V70.9982H313.463V71.0166H313.426V71.035H313.408V71.0533H313.372V71.0717H313.353V71.0901H313.317V71.1085H313.28V71.1268H313.262V71.1452H313.225V71.1636H313.207V71.1819H313.17V71.2003H313.152V71.2187H313.115V71.2371H313.079V71.2554H313.042V71.2738H313.024V71.2922H312.987V71.3105H312.95V71.3289H312.914V71.3473H312.895V71.3657H312.859V71.384H312.822V71.4024H312.786V71.4208H312.767V71.4392H312.731V71.4575H312.694V71.4759H312.657V71.4943H312.621V71.5126H312.584V71.531H312.547V71.5494H312.511V71.5678H312.474V71.5861H312.438V71.6045H312.401V71.6229H312.364V71.6412H312.328V71.6596H312.273V71.678H312.236V71.6964H312.2V71.7147H312.163V71.7331H312.126V71.7515H312.071V71.7698H312.035V71.7882H311.998V71.8066H311.943V71.825H311.907V71.8433H311.852V71.8617H311.815V71.8801H311.76V71.8984H311.723V71.9168H311.668V71.9352H311.632V71.9536H311.577V71.9719H311.522V71.9903H311.467V72.0087H311.412V72.027H311.357V72.0454H311.302V72.0638H311.247V72.0822H311.192V72.1005H311.119V72.1189H311.064V72.1373H310.991V72.1556H310.936V72.174H310.863V72.1924H310.808V72.2108H310.734V72.2291H310.643V72.2475H310.57V72.2659H310.496V72.2842H310.405V72.3026H310.332V72.321H310.222V72.3394H310.13V72.3577H310.02V72.3761H309.91V72.3945H309.764V72.4128H309.636V72.4312H309.489V72.4496H309.251V72.468H308.976V72.4863" fill="currentColor"/>
<path d="M284.459 61.397H278.83V60.3498H284.459V61.397Z" fill="#4598E6"/>
<path d="M286.733 2.74196C286.733 2.74196 291.269 5.2405 289.83 11.3821C288.389 17.5256 287.841 18.3376 289.011 20.8196C290.182 23.3016 291.211 33.7035 289.962 35.6068C288.715 37.5083 276.064 26.3237 274.66 17.3768C273.253 8.42798 276.418 4.62689 277.54 3.20861C278.663 1.79032 282.734 0.460217 286.733 2.74196" fill="#344052"/>
<path d="M295.249 53.5137H290.394C290.16 51.1107 289.942 49.4389 289.986 49.1909C290.057 48.783 285.155 35.8807 284.697 34.8133C284.237 33.7496 282.439 30.8873 282.204 28.1922C281.966 25.4971 285.47 24.4095 285.47 24.4095C290.198 25.2601 291.799 31.8206 291.799 31.8206C291.799 31.8206 293.784 45.1252 294.789 48.8694C295.047 49.8283 295.187 51.524 295.249 53.5137Z" fill="#EEA886"/>
<path d="M292.806 35.0251L285.574 38.084C285.574 38.084 278.929 21.5386 284.499 23.3868C290.054 25.2276 292.552 28.6906 292.806 35.0251" fill="#EB4747"/>
<path d="M291.196 42.8141C290.986 44.4565 290.12 50.2766 290.314 51.8474C290.347 52.1064 290.453 52.7017 290.614 53.5137H273.18C273.643 51.8529 274.066 50.3832 274.321 49.527C275.169 46.7107 274.358 45.9556 273.929 43.7033C273.762 42.8196 273.176 41.1441 272.539 39.2519C272.325 38.6199 272.105 37.9603 271.893 37.299C271.127 34.9143 270.77 32.4764 270.55 31.0581C269.499 24.3287 274.656 23.682 274.656 23.682C276.573 23.3274 279.923 22.2894 279.923 22.2894L285.168 23.3844C285.168 23.3844 285.666 23.5718 286.395 24.1119L286.397 24.1155C286.748 24.3746 287.153 24.7145 287.578 25.1517C288.151 25.7433 289.292 27.4316 290.429 29.289C290.777 29.8585 291.129 30.4427 291.458 31.0177C292.524 32.8696 293.282 34.3632 293.258 36.0479C293.238 37.705 291.407 41.1717 291.196 42.8141" fill="#EB4747"/>
<path d="M285.168 23.3861C285.168 23.3861 288.453 29.0188 287.232 29.4395C286.008 29.8603 279.569 28.4383 277.053 23.1161C277.053 23.1161 281.28 21.1889 285.168 23.3861Z" fill="#EEA886"/>
<path d="M284.697 25.9584C284.697 25.9584 281.778 27.1985 279.135 23.12C279.135 23.12 279.846 18.4885 278.344 15.8081C276.842 13.1296 284.906 19.0195 284.906 19.0195C284.906 19.0195 284.776 19.5725 284.64 20.3882C284.572 20.8052 284.501 21.2902 284.446 21.8046C284.4 22.2345 284.365 22.6846 284.351 23.1347C284.316 24.1764 284.391 25.2107 284.697 25.9584" fill="#EEA886"/>
<path d="M277.449 32.2691C276.848 35.3683 272.537 39.2539 272.537 39.2539C272.325 38.6201 272.105 37.9624 271.894 37.301C274.868 35.3977 277.449 32.2691 277.449 32.2691" fill="#393D63"/>
<path d="M276.368 34.7361C276.095 35.866 274.837 47.3096 274.975 47.6991C275.055 47.9232 275.663 50.5706 276.273 53.5137H270.645C270.068 51.6177 269.728 50.0433 269.81 49.1523C270.169 45.2924 268.865 32.9853 268.865 32.9853C268.865 32.9853 267.697 25.543 273.854 24.6116C273.854 24.6116 277.493 25.0929 277.712 27.788C277.932 30.485 276.641 33.61 276.368 34.7361" fill="#EEA886"/>
<path d="M268.411 36.3162L276.051 38.1074C276.051 38.1074 282.113 26.3019 276.654 24.1451C270.9 21.8743 267.032 29.877 268.411 36.3162" fill="#EB4747"/>
<path d="M286.028 3.39617C286.028 3.39617 292.669 5.84139 288.46 17.3383C284.25 28.8334 275.66 15.3762 276.956 8.31056C278.254 1.2467 286.028 3.39617 286.028 3.39617Z" fill="#EEA987"/>
<path d="M289.479 10.3847C289.479 10.3847 285.973 13.5244 280.35 13.6695C280.35 13.6695 279.035 16.8845 278.822 17.8711C278.822 17.8711 273.264 8.29954 279.654 3.46415C286.043 -1.3694 291.837 8.38036 289.479 10.3847Z" fill="#344052"/>
<path d="M281.108 14.3603C281.104 13.5078 280.674 11.5513 279.39 12.0326C278.106 12.514 279.256 16.5116 280.102 16.3095C280.102 16.3095 281.117 16.3738 281.108 14.3603" fill="#EEA987"/>
<path d="M284.358 22.938C281.238 22.0727 280.031 19.0873 279.994 18.9881C282.532 22.2785 284.446 21.8045 284.446 21.8045C284.4 22.2344 284.397 22.5026 284.358 22.938Z" fill="#A77860"/>
<path d="M259.044 55.7939H258.024V62.4683H265.045V61.4468H259.044V55.7939ZM304.783 55.7939V61.4468H298.782V62.4683H305.803V55.7939H304.783ZM258.024 26.6346H259.044V20.9835H265.045V19.962H258.024V26.6346ZM298.782 19.962V20.9835H304.783V26.6346H305.803V19.962H298.782Z" fill="#4598E6"/>
<path d="M192.403 109.653H184.886V108.257H192.403V109.653Z" fill="#4598E6"/>
<path d="M158.097 102.169H156.735V111.087H166.113V109.72H158.097V102.169ZM219.191 102.169V109.72H211.174V111.087H220.552V102.169H219.191ZM156.735 63.2236H158.097V55.6747H166.113V54.3097H156.735V63.2236ZM211.174 54.3097V55.6747H219.191V63.2236H220.552V54.3097H211.174" fill="#4598E6"/>
<path d="M356.583 159.251H350.225C350.107 158.996 350.014 158.774 349.935 158.596C348.049 154.126 338.325 143.876 338.325 143.876C338.325 143.876 338.325 143.882 338.325 143.898L338.319 143.909V143.922L338.303 143.966C338.297 143.988 338.292 144.016 338.281 144.049L338.27 144.104C338.264 144.121 338.259 144.132 338.253 144.148C337.854 145.642 335.895 153.082 334.915 159.251H291.883C291.784 158.68 291.669 158.134 291.535 157.629C291.143 156.097 290.876 154.581 290.705 153.165C290.7 153.093 290.689 153.027 290.683 152.956C290.651 152.695 290.621 152.434 290.599 152.177C290.229 148.302 290.506 145.331 290.528 145.032C290.407 145.293 289.537 148.491 288.398 152.437C287.772 154.603 287.063 156.997 286.36 159.251H276.2L288.951 122.345C289.233 122.123 292.542 120.519 294.956 119.363C297.419 118.187 300.391 116.46 303.074 114.983C304.448 114.228 305.742 113.545 306.867 113.029L307.037 112.952V112.946C308.892 112.095 310.126 111.535 310.126 111.535H310.132C310.176 111.53 310.469 111.502 310.934 111.456C313.523 111.206 321.561 110.453 324.251 110.297C324.471 110.28 324.66 110.275 324.804 110.269C324.925 110.264 325.02 110.264 325.075 110.269C325.412 110.291 327.073 110.868 329.249 111.702C329.331 111.73 329.414 111.763 329.496 111.796C329.602 111.835 329.701 111.873 329.807 111.912C329.996 111.985 330.188 112.057 330.382 112.134C330.771 112.29 331.174 112.446 331.578 112.606C331.716 112.661 331.86 112.718 332.005 112.773C336.36 114.506 341.352 116.653 342.537 117.51C343.322 118.07 345.764 122.685 348.591 128.391C351.635 138.174 355.36 152.289 356.583 159.251" fill="#DECBC4"/>
<path d="M325.006 109.014C324.89 114.816 313.69 117.991 313.69 117.991C313.69 117.991 309.006 112.099 310.125 111.535C310.564 111.313 310.744 110.435 310.799 109.448C310.848 108.509 310.789 107.473 310.734 106.815C310.701 106.406 310.669 106.141 310.669 106.141C310.669 106.141 312.269 104.447 314.305 102.43C317.862 98.9009 322.753 94.3815 322.761 96.18C322.761 96.2737 322.748 96.3876 322.72 96.5199C321.86 100.567 325.006 109.014 325.006 109.014" fill="#EEA886"/>
<path d="M320.691 100.512C320.669 100.547 320.193 101.26 319.384 102.283C317.664 104.453 314.432 108.017 310.799 109.448C310.848 108.509 310.789 107.473 310.735 106.815C310.363 106.806 309.991 106.764 309.621 106.681C310.619 104.936 312.057 103.104 312.057 103.104L314.306 102.43L320.691 100.512Z" fill="#A77860"/>
<path d="M322.841 96.2568C321.873 98.3714 320.953 99.9036 320.691 100.512C320.521 100.909 320.06 101.552 319.384 102.283C317.538 104.278 314.106 106.909 310.735 106.815C310.363 106.806 309.991 106.764 309.621 106.681C308.261 106.383 306.653 105.748 305.768 104.01C298.78 90.2861 303.84 79.0647 303.84 79.0647C303.84 79.0647 322.944 73.6451 325.933 79.4138C328.031 83.4611 325.118 91.2892 322.841 96.2568" fill="#EEA886"/>
<path d="M303.84 79.065C303.84 79.065 302.065 78.9658 301.625 75.591C301.191 72.2566 302.069 71.3325 302.069 71.3325C302.069 71.3325 309.956 68.0201 312.789 67.5902C315.62 67.1603 322.585 66.7451 324.218 68.619C324.218 68.619 328.185 67.6931 329.265 74.2995C330.979 84.7786 323.423 94.9546 323.423 94.9546C323.423 94.9546 323.488 88.1094 321.982 87.2018C320.477 86.2942 319.178 88.4511 319.178 88.4511L316.1 89.004C316.1 89.004 320.775 78.8758 315.166 78.501C309.557 78.1263 307.05 79.6529 303.84 79.065Z" fill="#E8734D"/>
<path d="M319.263 85.7226C319.556 82.706 324.993 81.5541 324.629 84.7158C324.264 87.8776 321.587 90.9144 320.351 90.8078C319.113 90.7013 319.039 88.0209 319.263 85.7226" fill="#EEA886"/>
<path d="M351.087 128.674C349.316 122.984 347.784 118.481 347.102 117.993C345.912 117.137 336.483 114.533 332.005 112.773C331.86 112.718 331.716 112.661 331.578 112.606C331.174 112.446 330.771 112.29 330.383 112.134C330.188 112.057 329.996 111.985 329.808 111.912C329.701 111.873 329.602 111.835 329.496 111.796C329.414 111.763 329.331 111.73 329.249 111.702L329.225 111.722C328.828 112.173 326.757 114.533 324.284 118.064C319.657 124.66 313.63 135.348 314.555 145.216C314.853 148.379 315.218 152.926 315.833 158.03C315.877 158.436 315.926 158.84 315.981 159.251H336.858C337.113 153.909 337.567 146.875 338.253 144.148C338.259 144.132 338.264 144.121 338.27 144.104L338.281 144.049C338.286 144.021 338.297 143.994 338.303 143.966L338.319 143.922V143.909L338.325 143.898C338.325 143.898 343.377 151.822 343.637 159.251H356.777C356.134 152.349 354.125 138.442 351.087 128.674Z" fill="#3C4145"/>
<path d="M306.955 113.095C306.955 113.095 305.378 118.358 303.342 131.501V131.507C303.268 131.946 303.202 132.394 303.131 132.855C303.126 132.905 303.115 132.96 303.109 133.017C303.058 133.316 303.014 133.627 302.97 133.937C302.964 133.978 302.959 134.011 302.953 134.049C302.92 134.255 302.887 134.466 302.86 134.681C302.781 135.199 302.704 135.732 302.627 136.271C301.864 141.633 300.844 150.156 299.809 159.251H291.557C291.109 156.725 290.689 154.425 290.722 152.849C290.706 152.882 290.695 152.922 290.684 152.956C290.024 154.787 289.299 156.78 288.563 158.719C288.497 158.895 288.431 159.073 288.363 159.251H274.14L288.308 122.067C288.59 121.845 292.238 119.874 294.652 118.726C297.17 117.521 300.353 116.038 303.175 114.734C304.525 114.105 305.792 113.523 306.867 113.029L306.955 113.095" fill="#3C4145"/>
<path d="M326.143 126.098L320.691 129.185L323.022 131.567L317.908 159.251H315.981C315.272 153.654 314.87 148.629 314.555 145.216C313.132 129.956 328.308 112.751 329.249 111.702C329.978 111.98 330.765 112.285 331.578 112.606L326.143 126.098Z" fill="#51565C"/>
<path d="M307.037 112.952C307.037 112.952 305.001 119.619 302.633 136.271C301.869 141.628 300.844 150.156 299.809 159.251H299.007L297.95 133.094L300.545 130.274L298.238 127.381L303.175 114.734C304.525 114.105 305.792 113.523 306.867 113.029L307.037 112.952" fill="#51565C"/>
<path d="M329.524 111.766L325.006 109.014C325.006 109.014 324.879 111.5 313.69 117.991L316.867 126.969L329.524 111.766" fill="#F5E2D9"/>
<path d="M310.714 110.265C310.714 110.265 310.89 112.947 313.69 117.99L307.489 126.1L307.039 112.947L310.714 110.265" fill="#F5E2D9"/>
<path d="M313.709 117.991C313.709 117.991 314.91 122.813 314.478 124.163C314.478 124.163 311.835 125.128 309.936 123.923C309.936 123.923 311.28 120.548 313.709 117.991Z" fill="#D44040"/>
<path d="M312.251 134.387C310.984 143.05 310.984 151.811 311.454 159.251H306.158C306.087 158.202 306.019 157.108 305.953 155.965C304.968 138.813 311.011 123.489 311.011 123.489L313.707 122.812C313.707 122.812 312.839 130.39 312.251 134.387Z" fill="#D44040"/>
<path d="M290.892 145.076C290.691 149.191 290.72 152.845 290.72 152.845V152.849C290.72 152.867 290.715 152.979 290.707 153.163C290.698 153.093 290.689 153.025 290.682 152.956C290.024 154.789 289.297 156.779 288.565 158.719C288.394 156.472 288.349 154.378 288.4 152.439C288.693 140.9 292.312 134.85 292.312 134.85C291.48 136.86 291.083 141.176 290.892 145.076" fill="#2D3133"/>
<path d="M241.385 159.301L224.462 168.632L207.467 141.802L228.024 134.641L241.385 159.301Z" fill="#292C47"/>
<path d="M240.313 158.494L224.487 167.221L208.594 142.131L227.817 135.432L240.313 158.494" fill="white"/>
<path d="M246.108 153.802C246.108 153.802 243.163 152.389 241.87 151.651C240.577 150.911 237.252 149.896 236.983 149.656C236.715 149.415 227.125 148.822 226.542 148.318C225.962 147.815 225.396 149.498 227.881 150.045C230.366 150.591 233.825 151.927 234.014 152.9C234.205 153.876 231.461 154.107 231.185 154.91C230.906 155.711 231.262 155.531 231.655 155.704C232.047 155.876 234.917 154.282 236.179 154.736C237.439 155.187 239.367 154.561 240.334 154.894C241.301 155.224 246.002 156.812 246.002 156.812L246.108 153.802Z" fill="#EEA886"/>
<path d="M223.638 165.266C223.638 165.266 221.164 163.032 219.966 162.097C218.768 161.162 216.521 158.414 216.19 158.252C215.86 158.092 211.568 149.257 210.868 148.904C210.168 148.55 211.531 147.359 213.011 149.496C214.492 151.634 217.093 154.385 218.082 154.183C219.072 153.982 218.221 151.3 218.867 150.725C219.512 150.15 219.482 150.556 219.796 150.861C220.111 151.166 219.732 154.499 220.647 155.515C221.563 156.53 221.726 158.597 222.414 159.382C223.103 160.166 226.423 163.993 226.423 163.993L223.638 165.266" fill="#EEA886"/>
<path d="M276.929 284.685C276.929 284.685 277.465 288.412 277.531 288.973C277.599 289.533 283.487 288.642 283.487 288.642L283.963 284.205C283.963 284.205 277.665 284.159 276.929 284.685" fill="#424773"/>
<path d="M277.469 288.498C277.469 288.498 275.603 290.743 273.799 291.723C271.995 292.702 269.16 293.09 268.093 294.104C267.323 294.835 265.289 297.984 272.781 297.921C280.274 297.857 283.888 298.366 284.69 297.157C285.494 295.95 283.529 288.247 283.529 288.247C283.529 288.247 281.754 288.886 277.469 288.498" fill="#292C47"/>
<path d="M234.745 284.685C234.745 284.685 235.279 288.412 235.345 288.973C235.413 289.533 241.301 288.642 241.301 288.642L241.777 284.205C241.777 284.205 235.479 284.159 234.745 284.685Z" fill="#424773"/>
<path d="M235.283 288.499C235.283 288.499 233.419 290.744 231.613 291.723C229.809 292.702 223.171 293.507 222.103 294.519C221.332 295.252 220.052 298.195 230.595 297.922C238.087 297.725 241.702 298.366 242.504 297.157C243.308 295.95 241.343 288.247 241.343 288.247C241.343 288.247 239.671 288.931 235.283 288.499" fill="#292C47"/>
<path d="M272.054 188.912C272.054 188.912 277.586 197.729 277.174 205.7C276.76 213.67 279.179 222.372 280.011 230.698C280.937 239.981 284.728 261.956 284.866 266.921C285.003 271.885 284.278 287.74 284.278 287.74L276.687 287.915C276.687 287.915 270.314 249.498 268.662 245.577C267.012 241.659 258.824 213.712 258.55 210.576C258.275 207.44 272.054 188.912 272.054 188.912Z" fill="#292C47"/>
<path d="M242.932 190.106C242.932 190.106 238.763 211.952 238.213 216.83C237.662 221.709 237.296 240.439 237.021 243.487C236.744 246.536 235.186 283.386 233.717 287.915H243.421C243.421 287.915 250.869 261.127 250.869 248.452C250.869 235.778 256.623 220.899 260.339 212.536C264.053 204.173 272.556 203.975 274.837 188.46C274.837 188.46 246.024 185.185 242.932 190.106Z" fill="#292C47"/>
<path d="M262.822 114.779C262.822 114.779 255.396 111.996 251.973 117.666C248.549 123.337 248.878 134.689 252.622 136.085C256.365 137.481 261.987 136.752 263.904 133.202C265.82 129.655 267.55 124.526 267.466 121.097C267.384 117.669 264.772 115.768 262.822 114.779" fill="#EEA886"/>
<path d="M253.428 136.344C253.428 136.344 253.737 138.355 253.226 139.347C252.715 140.338 262.846 140.363 262.846 140.363C262.846 140.363 263.668 134.975 265.229 130.421C266.787 125.868 253.428 136.344 253.428 136.344" fill="#EEA886"/>
<path d="M265.229 130.421C265.229 130.421 264.529 131.578 261.676 131.13C258.821 130.68 255.34 126.872 254.147 126.453C252.955 126.034 252.944 125.332 252.944 125.332L252.199 126.425L250.932 126.506C250.932 126.506 252.087 123.098 250.346 121.709C248.604 120.319 252.153 110.679 261.306 113.889C261.306 113.889 268.336 115.832 268.082 119.843C267.825 123.855 266.802 128.424 265.229 130.421" fill="#3A3F47"/>
<path d="M252.625 139.228C252.625 139.228 252.657 137.334 253.512 137.152C254.367 136.972 262.954 136.143 264.003 136.557V138.763C264.003 138.763 261.98 140.01 252.625 139.228" fill="#E2D2CA"/>
<path d="M253.133 123.874C253.294 123.201 254.999 121.278 255.651 123.337C256.305 125.395 254.666 128.165 253.75 127.928C252.836 127.691 252.728 125.578 253.133 123.874" fill="#EEA886"/>
<path d="M218.551 161.594L218.564 161.592C218.507 161.617 218.498 161.621 218.551 161.594Z" fill="#323657"/>
<path d="M278.295 209.918C278.295 209.918 273.742 211.263 265.976 212.121C258.211 212.979 238.808 211.81 238.686 210.89C238.563 209.969 242.859 176.62 242.616 174.902C242.37 173.184 242.24 167.065 242.24 167.065C242.143 168.742 240.44 175.591 238.385 179.326C237.642 180.674 235.151 184.902 233.95 183.941C228.137 179.285 219.136 161.741 218.567 161.592C219.045 161.382 222.832 159.633 223.363 159.457C223.828 159.301 228.022 163.754 230.562 166.515C231.695 167.746 232.499 168.641 232.499 168.641C233.234 166.986 235.906 156.552 236.735 152.941C238.609 144.798 238.321 144.46 238.321 144.46C244.002 142.735 252.625 139.228 252.625 139.228L264.003 138.761C264.003 138.761 274.445 141.069 278.559 142.932C278.949 143.108 278.95 152.277 280.022 154.682L276.612 161.899C276.612 161.899 274.641 176.193 274.233 182.55C274.044 185.469 278.295 209.918 278.295 209.918" fill="#FFDF69"/>
<path d="M280.494 166.585C280.196 167.548 278.848 168.361 277.971 168.716C277.41 168.944 276.782 169.017 276.149 168.9L275.704 168.817L267.906 167.366C267.906 167.366 266.201 147.655 278.559 142.932C278.885 143.038 283.223 157.759 280.494 166.585" fill="#FFDF69"/>
<path d="M277.971 168.716C277.41 168.944 276.782 169.017 276.149 168.9L275.704 168.817L276.473 158.744L277.971 168.716Z" fill="#AB9546"/>
<path d="M232.499 168.641L231.547 172.69C231.547 172.69 230.512 168.626 230.562 166.515C231.695 167.746 232.499 168.641 232.499 168.641Z" fill="#AB9546"/>
<path d="M264.937 115.448C264.937 115.448 274.669 114.224 265.102 130.533L264.937 115.448Z" fill="#3A3F47"/>
<path d="M215.291 140.363L214.302 138.658L222.094 135.961L223.083 137.657L215.291 140.363Z" fill="#292C47"/>
<path d="M369.422 67.3018H363.903L362.212 63.7855H367.732L369.422 67.3018Z" fill="url(#paint7_linear_304_19387)"/>
<path d="M362.634 67.3018H361.319L359.63 63.7855H360.945L362.634 67.3018Z" fill="url(#paint8_linear_304_19387)"/>
<path d="M364.6 63.1133H342.248L341.506 61.357H363.857L364.6 63.1133Z" fill="url(#paint9_linear_304_19387)"/>
<path d="M222.209 7.06348H213.771C213.485 7.06348 213.254 6.83197 213.254 6.54538V4.71741C213.254 4.43265 213.485 4.20118 213.771 4.20118H222.209C222.495 4.20118 222.726 4.43265 222.726 4.71741V6.54538C222.726 6.83197 222.495 7.06348 222.209 7.06348Z" fill="url(#paint10_linear_304_19387)"/>
<path d="M222.209 13.9307H213.771C213.485 13.9307 213.254 13.6992 213.254 13.4126V11.5846C213.254 11.298 213.485 11.0666 213.771 11.0666H222.209C222.495 11.0666 222.726 11.298 222.726 11.5846V13.4126C222.726 13.6992 222.495 13.9307 222.209 13.9307Z" fill="url(#paint11_linear_304_19387)"/>
<path d="M222.209 20.7979H213.771C213.485 20.7979 213.254 20.5645 213.254 20.2798V18.45C213.254 18.1652 213.485 17.9337 213.771 17.9337H222.209C222.495 17.9337 222.726 18.1652 222.726 18.45V20.2798C222.726 20.5645 222.495 20.7979 222.209 20.7979" fill="url(#paint12_linear_304_19387)"/>
<path d="M228.816 7.06348H227.152C226.868 7.06348 226.637 6.83197 226.637 6.54538V4.71741C226.637 4.43265 226.868 4.20118 227.152 4.20118H228.816C229.1 4.20118 229.331 4.43265 229.331 4.71741V6.54538C229.331 6.83197 229.1 7.06348 228.816 7.06348Z" fill="url(#paint13_linear_304_19387)"/>
<path d="M228.817 13.9307H227.152C226.868 13.9307 226.637 13.6992 226.637 13.4126V11.5846C226.637 11.298 226.868 11.0666 227.152 11.0666H228.817C229.101 11.0666 229.331 11.298 229.331 11.5846V13.4126C229.331 13.6992 229.101 13.9307 228.817 13.9307Z" fill="url(#paint14_linear_304_19387)"/>
<path d="M228.817 20.7979H227.152C226.868 20.7979 226.637 20.5645 226.637 20.2798V18.45C226.637 18.1652 226.868 17.9337 227.152 17.9337H228.817C229.101 17.9337 229.331 18.1652 229.331 18.45V20.2798C229.331 20.5645 229.101 20.7979 228.817 20.7979" fill="url(#paint15_linear_304_19387)"/>
<path d="M192.145 161.708H202.054L199.021 155.397H189.112L192.145 161.708Z" fill="url(#paint16_linear_304_19387)"/>
<path d="M187.508 161.708H189.87L186.838 155.397H184.475L187.508 161.708Z" fill="url(#paint17_linear_304_19387)"/>
<path d="M243.938 143.317L234.25 138.317" stroke="#829CB9" stroke-width="0.625" stroke-linecap="round"/>
<path d="M246.733 139.23C246.445 138.698 245.756 137.198 246.329 136.675C246.901 136.153 247.902 136.497 248.773 137.829C249.643 139.161 250.529 141.321 250.118 141.651C249.706 141.98 246.19 143.308 245.672 143.367C245.154 143.427 242.954 143.588 243.001 143.32C243.047 143.052 244.005 142.048 245.309 142.344C245.309 142.344 247.136 141.538 247.42 141.124C247.704 140.71 246.977 139.68 246.733 139.23" fill="#97BC26"/>
<path d="M246.923 133.532C246.923 133.532 247.542 132.517 247.676 132.448C247.81 132.379 247.776 132.871 247.776 132.871C247.776 132.871 248.568 131.647 248.867 131.508C249.166 131.369 248.99 131.793 248.99 131.793C248.99 131.793 250.053 130.758 250.325 130.642C250.598 130.527 250.428 130.885 250.428 130.885C250.428 130.885 251.84 129.796 252.069 129.768C252.297 129.74 252.089 130.133 252.089 130.133C252.089 130.133 253.537 129.411 253.858 129.393C254.179 129.376 253.883 129.852 253.883 129.852C253.883 129.852 255.353 129.25 255.754 129.289C256.155 129.328 255.682 129.646 255.682 129.646C255.682 129.646 257.061 129.34 257.702 129.566C258.343 129.791 257.722 129.932 257.722 129.932C257.722 129.932 259.446 130.022 259.857 130.26C260.268 130.498 259.876 130.612 259.876 130.612C259.876 130.612 261.715 131.14 261.682 131.387C261.65 131.634 261.147 131.416 261.147 131.416C261.147 131.416 263.066 132.193 263.088 132.414C263.11 132.634 262.734 132.663 262.734 132.663C262.734 132.663 264.55 133.33 264.655 133.57C264.76 133.81 264.187 133.703 264.187 133.703C264.187 133.703 265.286 134.164 265.501 134.459C265.717 134.754 265.53 134.979 265.53 134.979L265.732 135.873L247.606 134.246L246.923 133.532" fill="#00975E"/>
<path d="M247.03 134.093C247.03 134.093 249.216 131.167 252.667 130.333C256.118 129.499 258.269 130.117 260.79 131.612C263.31 133.107 266.071 136.452 268.754 136.718C271.438 136.985 272.238 135.653 272.063 134.558C271.888 133.463 271.238 132.51 269.886 132.607C268.534 132.705 268.386 134.622 269.649 134.576C269.649 134.576 269.058 135.138 268.264 134.491C267.469 133.844 267.614 132.295 268.796 131.609C269.977 130.923 271.441 131.188 272.393 132.193C273.346 133.199 274.321 135.508 272.934 137.432C271.182 139.864 266.011 141.217 261.822 141.195C257.634 141.172 250.826 141.466 247.667 139.747L247.03 134.093" fill="#AECC33"/>
<path d="M248.227 131.864C248.227 131.864 249.752 132.823 250.076 133.695C250.4 134.567 250.454 134.993 250.967 135.395C251.48 135.796 252.13 137.018 252.621 137.021C253.112 137.025 252.573 134.478 252.748 134.315C252.923 134.152 252.522 132.997 252.52 132.389C252.517 131.782 252.555 129.786 252.555 129.786C252.555 129.786 248.946 130.996 248.227 131.864" fill="#97BC26"/>
<path d="M253.588 129.306C253.588 129.306 254.647 130.763 254.624 131.693C254.6 132.622 254.492 133.038 254.819 133.602C255.146 134.165 255.295 135.541 255.749 135.727C256.204 135.913 256.651 133.348 256.874 133.262C257.097 133.176 257.154 131.954 257.377 131.389C257.601 130.824 258.378 128.985 258.378 128.985C258.378 128.985 254.578 128.767 253.588 129.306Z" fill="#97BC26"/>
<path d="M259.579 130.09C259.579 130.09 260 131.842 259.623 132.692C259.246 133.542 258.987 133.885 259.074 134.531C259.161 135.176 258.772 136.505 259.121 136.85C259.47 137.196 260.863 134.997 261.102 135.002C261.342 135.008 261.862 133.901 262.284 133.464C262.706 133.027 264.127 131.625 264.127 131.625C264.127 131.625 260.7 129.972 259.579 130.09" fill="#97BC26"/>
<path d="M240.63 140.703C239.793 140.573 239.124 140.095 239.27 138.569C239.416 137.042 241.644 133.377 244.131 132.918C246.618 132.46 247.267 133.298 247.448 134.531C247.628 135.763 247.786 139.389 247.73 139.668C247.674 139.947 244.574 141.314 240.63 140.703" fill="#97BC26"/>
<path d="M251.141 139.68C250.853 139.149 250.164 137.648 250.737 137.126C251.309 136.603 252.31 136.947 253.181 138.28C254.051 139.612 254.937 141.772 254.525 142.102C254.114 142.431 250.598 143.759 250.08 143.818C249.562 143.877 247.362 144.039 247.409 143.77C247.455 143.502 248.413 142.499 249.717 142.795C249.717 142.795 251.544 141.989 251.828 141.575C252.112 141.161 251.385 140.131 251.141 139.68" fill="#97BC26"/>
<path d="M233.625 136.442L234.875 134.879M231.75 136.442L231.125 134.879M230.812 138.317H229.25M232.375 139.254L232.688 141.129" stroke="#EBDB4B" stroke-width="0.625" stroke-linecap="round"/>
<path d="M260.787 138.813C261.068 138.185 262.306 136.889 263.283 136.804C264.26 136.72 265.65 137.441 265.398 138.437C265.146 139.432 263.847 140.362 263.798 140.58C263.748 140.797 265.324 142.684 265.361 142.784C265.397 142.885 262.291 143.253 262.056 143.182C261.82 143.112 262.179 142.387 262.815 142.229C262.815 142.229 260.629 140.969 260.48 140.486C260.33 140.003 260.349 139.788 260.787 138.813Z" fill="#97BC26"/>
<path d="M245.616 136.272C245.672 137.286 244.896 138.152 243.882 138.208C242.869 138.264 242.002 137.487 241.946 136.474C241.891 135.461 242.667 134.594 243.681 134.538C244.694 134.483 245.561 135.259 245.616 136.272" fill="#00975E"/>
<path d="M246.208 138.656C244.865 139.064 243.397 139.116 242.006 139.211C241.104 139.272 239.94 139.394 239.261 138.711C239.247 138.926 239.249 139.12 239.267 139.293C239.778 139.618 240.427 139.738 241.021 139.73C242.756 139.706 244.685 139.598 246.354 139.091C246.637 139.006 246.491 138.57 246.208 138.656" fill="#00975E"/>
<path d="M243.754 135.872C243.77 136.167 243.544 136.419 243.25 136.435C242.956 136.451 242.704 136.225 242.688 135.931C242.671 135.636 242.897 135.385 243.191 135.368C243.486 135.352 243.738 135.578 243.754 135.872Z" fill="#33292D"/>
<path d="M242.062 127.379V134.254C244.312 134.254 245.708 133.421 246.125 133.004L242.062 127.379Z" fill="#0C7448"/>
</g>
<defs>
<linearGradient id="paint0_linear_304_19387" x1="83.2155" y1="228.306" x2="59.887" y2="228.306" gradientUnits="userSpaceOnUse">
<stop stop-color="#3076A1"/>
<stop offset="1" stop-color="#48C9B6"/>
</linearGradient>
<linearGradient id="paint1_linear_304_19387" x1="65.0898" y1="247.624" x2="22.6791" y2="247.624" gradientUnits="userSpaceOnUse">
<stop stop-color="#3076A1"/>
<stop offset="1" stop-color="#48C9B6"/>
</linearGradient>
<linearGradient id="paint2_linear_304_19387" x1="61.4644" y1="253.811" x2="29.6323" y2="253.811" gradientUnits="userSpaceOnUse">
<stop stop-color="#3076A1"/>
<stop offset="1" stop-color="#48C9B6"/>
</linearGradient>
<linearGradient id="paint3_linear_304_19387" x1="99.9423" y1="221.371" x2="52.1408" y2="221.371" gradientUnits="userSpaceOnUse">
<stop stop-color="#3076A1"/>
<stop offset="1" stop-color="#48C9B6"/>
</linearGradient>
<linearGradient id="paint4_linear_304_19387" x1="71.4813" y1="273.717" x2="43.4895" y2="190.009" gradientUnits="userSpaceOnUse">
<stop stop-color="#3076A1"/>
<stop offset="1" stop-color="#48C9B6"/>
</linearGradient>
<linearGradient id="paint5_linear_304_19387" x1="49.9484" y1="328.42" x2="63.9487" y2="268.259" gradientUnits="userSpaceOnUse">
<stop stop-color="#C9C4C1"/>
<stop offset="1" stop-color="#FFF6DE"/>
</linearGradient>
<linearGradient id="paint6_linear_304_19387" x1="47.2578" y1="281.457" x2="81.4669" y2="281.457" gradientUnits="userSpaceOnUse">
<stop stop-color="#C9C4C1"/>
<stop offset="1" stop-color="#FFF6DE"/>
</linearGradient>
<linearGradient id="paint7_linear_304_19387" x1="362.212" y1="65.5436" x2="369.422" y2="65.5436" gradientUnits="userSpaceOnUse">
<stop stop-color="#D3D9E1"/>
<stop offset="1" stop-color="#ECECFF"/>
</linearGradient>
<linearGradient id="paint8_linear_304_19387" x1="359.63" y1="65.5436" x2="362.635" y2="65.5436" gradientUnits="userSpaceOnUse">
<stop stop-color="#D3D9E1"/>
<stop offset="1" stop-color="#ECECFF"/>
</linearGradient>
<linearGradient id="paint9_linear_304_19387" x1="341.506" y1="62.2351" x2="364.599" y2="62.2351" gradientUnits="userSpaceOnUse">
<stop stop-color="#D3D9E1"/>
<stop offset="1" stop-color="#ECECFF"/>
</linearGradient>
<linearGradient id="paint10_linear_304_19387" x1="213.254" y1="5.63233" x2="222.726" y2="5.63233" gradientUnits="userSpaceOnUse">
<stop stop-color="#D1D7E0"/>
<stop offset="1" stop-color="#EBEBFF"/>
</linearGradient>
<linearGradient id="paint11_linear_304_19387" x1="213.254" y1="12.4995" x2="222.726" y2="12.4995" gradientUnits="userSpaceOnUse">
<stop stop-color="#D1D7E0"/>
<stop offset="1" stop-color="#EBEBFF"/>
</linearGradient>
<linearGradient id="paint12_linear_304_19387" x1="213.254" y1="19.3649" x2="222.726" y2="19.3649" gradientUnits="userSpaceOnUse">
<stop stop-color="#D1D7E0"/>
<stop offset="1" stop-color="#EBEBFF"/>
</linearGradient>
<linearGradient id="paint13_linear_304_19387" x1="226.637" y1="5.63233" x2="229.332" y2="5.63233" gradientUnits="userSpaceOnUse">
<stop stop-color="#D1D7E0"/>
<stop offset="1" stop-color="#EBEBFF"/>
</linearGradient>
<linearGradient id="paint14_linear_304_19387" x1="226.637" y1="12.4995" x2="229.332" y2="12.4995" gradientUnits="userSpaceOnUse">
<stop stop-color="#D1D7E0"/>
<stop offset="1" stop-color="#EBEBFF"/>
</linearGradient>
<linearGradient id="paint15_linear_304_19387" x1="226.637" y1="19.3649" x2="229.332" y2="19.3649" gradientUnits="userSpaceOnUse">
<stop stop-color="#D1D7E0"/>
<stop offset="1" stop-color="#EBEBFF"/>
</linearGradient>
<linearGradient id="paint16_linear_304_19387" x1="189.112" y1="158.551" x2="202.053" y2="158.551" gradientUnits="userSpaceOnUse">
<stop stop-color="#D1D7E0"/>
<stop offset="1" stop-color="#EBEBFF"/>
</linearGradient>
<linearGradient id="paint17_linear_304_19387" x1="184.475" y1="158.551" x2="189.869" y2="158.551" gradientUnits="userSpaceOnUse">
<stop stop-color="#D1D7E0"/>
<stop offset="1" stop-color="#EBEBFF"/>
</linearGradient>
<clipPath id="clip0_304_19387">
<rect width="385" height="305" fill="white" transform="translate(0.5 0.884277)"/>
</clipPath>
</defs>
</svg>
