<svg viewBox="0 0 191 78" fill="none" xmlns="http://www.w3.org/2000/svg">
<path class="blow" d="M30.5486 55.2919C30.2894 54.2551 24.3817 54.2142 23.3819 54.0419C20.1271 53.4807 17.0256 52.7059 13.8264 51.7919C10.5291 50.8498 6.99936 49.2426 4.54861 46.7919C1.95456 44.1978 0.12214 37.2659 5.32639 36.3196C9.90521 35.4871 15.6055 36.0513 17.2986 40.7919C18.8909 45.2502 9.04861 48.995 9.04861 43.7919" stroke="#EBBDBD" stroke-width="3" stroke-linecap="round"/>
<path d="M64.7463 55.4072C63.4004 52.9229 60.1794 45.9066 62.857 43.4639C65.5338 41.0207 70.2123 42.6294 74.2829 48.8587C78.3543 55.089 82.4954 65.1887 80.5716 66.7291C78.6485 68.2689 62.2087 74.4781 59.7857 74.7553C57.3626 75.0313 47.0778 75.786 47.295 74.5322C47.5125 73.2784 51.9887 68.5856 58.0879 69.9718C58.0879 69.9718 66.6305 66.2028 67.9584 64.265C69.2856 62.3293 65.8894 57.5145 64.7463 55.4072" fill="#97BC26"/>
<path d="M65.634 28.768C65.634 28.768 68.528 24.0199 69.1555 23.6973C69.7839 23.3762 69.6233 25.6795 69.6233 25.6795C69.6233 25.6795 73.324 19.9553 74.7231 19.304C76.1221 18.6543 75.298 20.635 75.298 20.635C75.298 20.635 80.2684 15.7993 81.5424 15.2573C82.8165 14.7169 82.0215 16.3929 82.0215 16.3929C82.0215 16.3929 88.6268 11.2982 89.695 11.1672C90.7639 11.0362 89.7885 12.8739 89.7885 12.8739C89.7885 12.8739 96.5592 9.49868 98.0608 9.41634C99.5624 9.33325 98.1784 11.5617 98.1784 11.5617C98.1784 11.5617 105.052 8.74563 106.927 8.92903C108.801 9.11242 106.588 10.5968 106.588 10.5968C106.588 10.5968 113.036 9.16707 116.034 10.2218C119.032 11.2758 116.128 11.9375 116.128 11.9375C116.128 11.9375 124.188 12.3544 126.111 13.469C128.035 14.5821 126.201 15.1136 126.201 15.1136C126.201 15.1136 134.797 17.5816 134.646 18.7366C134.494 19.8924 132.143 18.8744 132.143 18.8744C132.143 18.8744 141.118 22.5078 141.22 23.5394C141.321 24.5709 139.563 24.7056 139.563 24.7056C139.563 24.7056 148.052 27.8248 148.545 28.9462C149.036 30.066 146.356 29.5675 146.356 29.5675C146.356 29.5675 151.494 31.7233 152.503 33.1014C153.51 34.481 152.636 35.5327 152.636 35.5327L153.583 39.7119L68.8292 32.1066L65.634 28.768" fill="#00975E"/>
<path d="M66.1361 31.3927C66.1361 31.3927 76.3562 17.7091 92.4928 13.8091C108.629 9.91059 118.685 12.8 130.472 19.79C142.258 26.7801 155.166 42.4212 167.712 43.6683C180.259 44.9154 184.004 38.6851 183.185 33.5672C182.366 28.4479 179.325 23.9895 173.002 24.4446C166.681 24.9004 165.991 33.8667 171.895 33.6496C171.895 33.6496 169.135 36.2763 165.419 33.2521C161.703 30.2294 162.38 22.9856 167.905 19.7773C173.43 16.5683 180.275 17.8071 184.728 22.5103C189.183 27.2142 193.74 38.0092 187.258 47.0052C179.063 58.3775 154.884 64.7034 135.3 64.5972C115.717 64.4902 83.8844 65.865 69.1151 57.8272L66.1361 31.3927" fill="#AECC33"/>
<path d="M71.7325 20.9719C71.7325 20.9719 78.8633 25.4565 80.3784 29.5332C81.8935 33.6083 82.145 35.6032 84.5441 37.4798C86.9417 39.355 89.9801 45.0686 92.2767 45.0859C94.5725 45.1037 92.0536 33.1921 92.8718 32.4316C93.6907 31.6688 91.8163 26.268 91.8036 23.4272C91.7909 20.5864 91.9668 11.2542 91.9668 11.2542C91.9668 11.2542 75.0951 16.914 71.7325 20.9719" fill="#97BC26"/>
<path d="M96.798 9.00664C96.798 9.00664 101.75 15.8215 101.641 20.1691C101.532 24.5152 101.025 26.4607 102.554 29.0942C104.083 31.7276 104.779 38.1614 106.904 39.0305C109.029 39.9011 111.119 27.9084 112.161 27.5057C113.205 27.103 113.474 21.3915 114.517 18.7484C115.562 16.106 119.195 7.51028 119.195 7.51028C119.195 7.51028 101.429 6.49 96.798 9.00664Z" fill="#97BC26"/>
<path d="M124.81 12.6758C124.81 12.6758 126.781 20.8665 125.019 24.8421C123.256 28.8169 122.044 30.4211 122.45 33.4378C122.856 36.4559 121.041 42.6682 122.672 44.2821C124.302 45.8989 130.818 35.6168 131.936 35.643C133.054 35.6692 135.485 30.4959 137.46 28.4516C139.435 26.4096 146.078 19.8537 146.078 19.8537C146.078 19.8537 130.051 12.1219 124.81 12.6758" fill="#97BC26"/>
<path d="M36.2085 62.2968C32.2942 61.6898 29.1677 59.4567 29.8514 52.3185C30.5348 45.1827 40.9517 28.0436 52.5809 25.899C64.2104 23.7543 67.2438 27.6745 68.0877 33.4377C68.9319 39.2001 69.6693 56.1557 69.4079 57.4604C69.1459 58.7657 54.6529 65.1562 36.2085 62.2968" fill="#97BC26"/>
<path d="M85.3568 57.5165C84.0109 55.0322 80.7899 48.016 83.4675 45.5733C86.1443 43.1301 90.8228 44.7388 94.8934 50.9681C98.9648 57.1984 103.106 67.2981 101.182 68.8385C99.259 70.3782 82.8192 76.5874 80.3961 76.8647C77.9731 77.1407 67.6883 77.8954 67.9055 76.6416C68.123 75.3877 72.5992 70.695 78.6984 72.0812C78.6984 72.0812 87.2409 68.3122 88.5689 66.3744C89.8961 64.4387 86.4999 59.6239 85.3568 57.5165" fill="#97BC26"/>
<path d="M130.458 53.4591C131.775 50.5239 137.565 44.4629 142.133 44.0684C146.701 43.6747 153.197 47.0454 152.019 51.7008C150.84 56.3559 144.769 60.7051 144.538 61.7224C144.306 62.7397 151.676 71.5592 151.845 72.0285C152.015 72.4987 137.493 74.2225 136.393 73.8918C135.291 73.5607 136.97 70.1706 139.941 69.4325C139.941 69.4325 129.721 63.5406 129.024 61.2838C128.325 59.0276 128.414 58.0185 130.458 53.4591Z" fill="#97BC26"/>
<path d="M59.5246 41.5803C59.7849 46.3188 56.1549 50.3712 51.4163 50.6317C46.6781 50.8932 42.6254 47.2612 42.3652 42.5235C42.1055 37.7852 45.7351 33.7325 50.4741 33.472C55.2126 33.2122 59.2646 36.842 59.5246 41.5803" fill="#00975E"/>
<path d="M62.2909 52.7266C56.0141 54.6325 49.1507 54.8801 42.6433 55.3211C38.4279 55.6076 32.9857 56.1766 29.8088 52.9862C29.7442 53.9901 29.7535 54.8988 29.8403 55.7058C32.2258 57.2237 35.2633 57.7875 38.0403 57.7492C46.1512 57.6369 55.1737 57.1325 62.9748 54.7626C64.2999 54.3613 63.6163 52.3239 62.2909 52.7266" fill="#00975E"/>
<path d="M50.8163 39.7107C50.892 41.088 49.837 42.2663 48.46 42.3419C47.0837 42.4175 45.9062 41.3628 45.8305 39.9854C45.7547 38.6088 46.8095 37.4314 48.1861 37.3557C49.5633 37.2801 50.7405 38.3349 50.8163 39.7107Z" fill="#33292D"/>
<path d="M42.9086 0L42.9086 32.1459C53.429 32.1459 59.9556 28.2494 61.9039 26.3012L42.9086 0Z" fill="#8AE5BF"/>
</svg>
