<svg width="219" height="81" viewBox="0 0 219 81" fill="none" xmlns="http://www.w3.org/2000/svg">
<path d="M73.4789 77.659L26.3052 53.3113" stroke="#829CB9" stroke-width="3.04347" stroke-linecap="round"/>
<path d="M87.0914 57.7542C85.6897 55.1669 82.3352 47.8599 85.1238 45.3159C87.9115 42.7716 92.7839 44.4469 97.0233 50.9344C101.263 57.4229 105.576 67.9411 103.573 69.5453C101.57 71.1489 84.4487 77.6155 81.9252 77.9042C79.4017 78.1917 68.6906 78.9776 68.9169 77.6718C69.1434 76.366 73.8051 71.4788 80.1571 72.9225C80.1571 72.9225 89.0536 68.9972 90.4366 66.9791C91.8188 64.9632 88.2818 59.9489 87.0914 57.7542" fill="currentColor"/>
<path d="M88.0156 30.0108C88.0156 30.0108 91.0295 25.0659 91.683 24.7299C92.3375 24.3954 92.1702 26.7942 92.1702 26.7942C92.1702 26.7942 96.0243 20.8328 97.4814 20.1545C98.9384 19.4779 98.0801 21.5406 98.0801 21.5406C98.0801 21.5406 103.256 16.5045 104.583 15.9401C105.91 15.3773 105.082 17.1228 105.082 17.1228C105.082 17.1228 111.961 11.8169 113.074 11.6805C114.187 11.5441 113.171 13.4579 113.171 13.4579C113.171 13.4579 120.222 9.94283 121.786 9.85708C123.35 9.77055 121.909 12.0913 121.909 12.0913C121.909 12.0913 129.068 9.15858 131.02 9.34957C132.972 9.54057 130.666 11.0865 130.666 11.0865C130.666 11.0865 137.382 9.59748 140.504 10.6959C143.626 11.7936 140.602 12.4827 140.602 12.4827C140.602 12.4827 148.996 12.9169 150.999 14.0777C153.002 15.237 151.093 15.7905 151.093 15.7905C151.093 15.7905 160.045 18.3607 159.887 19.5636C159.729 20.7673 157.281 19.7071 157.281 19.7071C157.281 19.7071 166.628 23.4911 166.734 24.5654C166.84 25.6397 165.009 25.78 165.009 25.78C165.009 25.78 173.85 29.0285 174.363 30.1963C174.874 31.3625 172.083 30.8434 172.083 30.8434C172.083 30.8434 177.434 33.0885 178.484 34.5237C179.534 35.9605 178.623 37.0558 178.623 37.0558L179.609 41.4082L91.3432 33.4877L88.0156 30.0108" class="face"/>
<path d="M88.5386 32.7446C88.5386 32.7446 99.1822 18.4939 115.988 14.4323C132.793 10.3723 143.265 13.3814 155.54 20.6611C167.816 27.9409 181.258 44.2302 194.324 45.5289C207.391 46.8278 211.291 40.3393 210.438 35.0093C209.585 29.6778 206.418 25.0346 199.834 25.5086C193.25 25.9833 192.531 35.3211 198.681 35.0951C198.681 35.0951 195.806 37.8306 191.937 34.6811C188.066 31.5332 188.771 23.9892 194.525 20.6479C200.28 17.3058 207.408 18.596 212.046 23.4941C216.685 28.393 221.431 39.6353 214.68 49.0042C206.145 60.8477 180.965 67.4358 160.569 67.3253C140.174 67.2138 107.022 68.6456 91.6411 60.2747L88.5386 32.7446" class="body" />
<path d="M94.3667 21.8912C94.3667 21.8912 101.793 26.5617 103.371 30.8073C104.949 35.0513 105.211 37.1289 107.709 39.0833C110.206 41.0362 113.371 46.9866 115.762 47.0046C118.153 47.0232 115.53 34.6179 116.382 33.8258C117.235 33.0314 115.283 27.4068 115.27 24.4483C115.256 21.4898 115.44 11.7708 115.44 11.7708C115.44 11.7708 97.8686 17.6652 94.3667 21.8912" fill="currentColor"/>
<path d="M120.471 9.42967C120.471 9.42967 125.629 16.527 125.515 21.0548C125.401 25.581 124.873 27.6071 126.465 30.3497C128.058 33.0922 128.783 39.7927 130.996 40.6978C133.21 41.6045 135.385 29.1148 136.471 28.6954C137.558 28.276 137.838 22.3278 138.925 19.5751C140.013 16.8232 143.796 7.8713 143.796 7.8713C143.796 7.8713 125.294 6.80873 120.471 9.42967Z" fill="currentColor"/>
<path d="M149.644 13.2514C149.644 13.2514 151.697 21.7815 149.862 25.9219C148.026 30.0614 146.764 31.7321 147.186 34.8738C147.609 38.017 145.719 44.4868 147.418 46.1675C149.116 47.8513 155.901 37.1431 157.065 37.1704C158.23 37.1977 160.762 31.81 162.818 29.681C164.876 27.5543 171.794 20.7267 171.794 20.7267C171.794 20.7267 155.103 12.6745 149.644 13.2514" fill="currentColor"/>
<path d="M57.3707 64.9292C53.2941 64.297 50.0381 61.9714 50.7501 54.5374C51.4618 47.1058 62.3104 29.2564 74.4215 27.0229C86.5331 24.7894 89.6922 28.8721 90.571 34.874C91.4502 40.8752 92.2182 58.5336 91.9459 59.8924C91.6731 61.2518 76.5794 67.9072 57.3707 64.9292" fill="currentColor"/>
<path d="M108.556 59.951C107.154 57.3637 103.8 50.0567 106.588 47.5127C109.376 44.9683 114.248 46.6436 118.488 53.1311C122.728 59.6197 127.04 70.1379 125.037 71.7421C123.034 73.3457 105.913 79.8122 103.39 80.101C100.866 80.3884 90.155 81.1744 90.3812 79.8686C90.6078 78.5628 95.2694 73.6755 101.621 75.1193C101.621 75.1193 110.518 71.194 111.901 69.1759C113.283 67.16 109.746 62.1457 108.556 59.951" fill="currentColor"/>
<path d="M23.2613 44.1814L29.3482 36.5728M14.1309 44.1814L11.0874 36.5728M9.5657 53.3118L1.95703 53.3118M17.1744 57.877L18.6961 67.0074" stroke="#EBDB4B" stroke-width="3.04347" stroke-linecap="round"/>
<path d="M155.526 55.7255C156.898 52.6687 162.928 46.3566 167.685 45.9457C172.442 45.5357 179.208 49.0461 177.981 53.8944C176.754 58.7424 170.43 63.2719 170.19 64.3313C169.949 65.3908 177.624 74.5758 177.8 75.0646C177.977 75.5542 162.853 77.3494 161.707 77.005C160.56 76.6603 162.308 73.1296 165.402 72.361C165.402 72.361 154.759 66.2248 154.033 63.8746C153.305 61.5248 153.397 60.474 155.526 55.7255Z" fill="currentColor"/>
<path d="M81.6531 43.3543C81.9241 48.2891 78.1437 52.5096 73.2087 52.7809C68.2742 53.0532 64.0534 49.2706 63.7825 44.3366C63.512 39.4019 67.292 35.1812 72.2275 34.9099C77.1623 34.6394 81.3823 38.4196 81.6531 43.3543" class="face"/>
<path d="M84.5337 54.9624C77.9967 56.9473 70.8489 57.2052 64.0718 57.6645C59.6818 57.9629 54.014 58.5554 50.7054 55.2328C50.6381 56.2783 50.6479 57.2247 50.7383 58.0652C53.2226 59.646 56.386 60.2331 59.278 60.1932C67.7252 60.0762 77.1215 59.551 85.2459 57.0828C86.626 56.665 85.9141 54.5431 84.5337 54.9624" class="face"/>
<path d="M72.5838 41.4074C72.6627 42.8418 71.564 44.0689 70.13 44.1476C68.6966 44.2264 67.4703 43.1279 67.3914 41.6935C67.3126 40.2599 68.411 39.0336 69.8446 38.9549C71.279 38.8761 72.5049 39.9745 72.5838 41.4074Z" fill="#33292D"/>
<path d="M64.3484 0.0507812L64.3484 33.5289C75.3049 33.5289 82.1019 29.471 84.1309 27.442L64.3484 0.0507812Z" class="hat"/>
</svg>
