<svg width="460" height="200" viewBox="0 25 460 225" fill="none" xmlns="http://www.w3.org/2000/svg">
<path d="M89.3587 257.508C89.3587 257.508 44.8029 265.758 30.6195 234.548C12.2182 194.059 50.0231 163.36 79.0177 169.079C109.046 175.003 121.366 147.05 136.913 119.099C154.077 88.2393 175.176 57.3798 228.379 72.1041C237.211 74.5478 250.699 71.7382 265.748 68.927C299.284 62.664 340.578 56.4026 355.408 108.28C360.517 126.152 378.618 128.121 404.894 139.461C456.318 161.655 432.806 257.884 396.06 258.26C359.315 258.638 89.3587 257.508 89.3587 257.508Z" fill="currentColor"/>
<path d="M310.316 258.045H336.557V159.463H310.316V258.045Z" fill="#82B479"/>
<path d="M298.063 258.045H317.346V159.463H298.063V258.045Z" fill="#A8D29F"/>
<path d="M312.333 247.602C312.333 249.998 310.405 251.941 308.028 251.941C305.652 251.941 303.724 249.998 303.724 247.602C303.724 245.204 305.652 243.262 308.028 243.262C310.405 243.262 312.333 245.204 312.333 247.602Z" fill="#82B479"/>
<path d="M348.809 258.045H375.051V159.463H348.809V258.045Z" fill="#699DEE"/>
<path d="M336.557 258.045H355.839V159.463H336.557V258.045Z" fill="#AFCDFB"/>
<path d="M350.826 247.602C350.826 249.998 348.899 251.941 346.523 251.941C344.145 251.941 342.219 249.998 342.219 247.602C342.219 245.204 344.145 243.262 346.523 243.262C348.899 243.262 350.826 245.204 350.826 247.602Z" fill="#699DEE"/>
<path d="M350.826 221.239H342.219V169.496H350.826V221.239Z" fill="white"/>
<path d="M386.851 258.045H413.094V159.463H386.851V258.045Z" fill="#D86713"/>
<path d="M374.6 258.045H393.881V159.463H374.6V258.045Z" fill="#F1A34F"/>
<path d="M388.869 247.602C388.869 249.998 386.942 251.941 384.565 251.941C382.187 251.941 380.261 249.998 380.261 247.602C380.261 245.204 382.187 243.262 384.565 243.262C386.942 243.262 388.869 245.204 388.869 247.602Z" fill="#D86713"/>
<path d="M388.869 221.239H380.261V169.496H388.869V221.239Z" fill="white"/>
<path d="M303.4 221.902H312.008V170.158H303.4V221.902Z" fill="white"/>
<path d="M247.321 140.361L256.574 251.269C256.574 251.269 257.543 257.992 252.582 258.004C244.427 258.022 211.989 258.004 211.989 258.004C211.989 258.004 218.127 256.604 218.052 253.455C217.965 249.743 207.239 139.311 207.239 139.311L247.321 140.361Z" fill="#D86713"/>
<path d="M209.356 255.991C210.961 255.995 241.943 256.094 249.885 255.991C253.347 255.947 253.954 252.888 253.983 250.909C253.997 249.959 253.877 249.257 253.877 249.257L253.637 246.375L253.023 239.028L252.482 232.536L251.786 224.196L251.199 217.154L244.625 138.348L204.543 137.298C204.543 137.298 209.061 183.513 212.256 217.154C212.613 220.903 212.952 224.497 213.265 227.851C213.368 228.922 213.465 229.969 213.561 230.99C213.857 234.173 214.128 237.095 214.363 239.676C214.487 241.036 214.602 242.301 214.706 243.458C215.114 247.996 215.353 250.892 215.356 251.443C215.357 251.764 215.33 252.063 215.278 252.341C214.619 255.875 209.959 255.991 209.356 255.991" fill="#EE9849"/>
<path d="M152.227 80.008H344.664L322.127 171.271L319.041 183.771L308.546 226.278H113.539L152.227 80.008Z" fill="#F1A34F"/>
<path d="M344.664 80.0078L347.788 81.0576L312.697 229.454L308.545 226.28L344.664 80.0078Z" fill="#EE9849"/>
<path d="M312.697 229.454H118.892L113.54 226.28H308.545L312.697 229.454Z" fill="#D86713"/>
<path d="M202.677 258.045H244.64V256.035H202.677V258.045Z" fill="#F1A34F"/>
<path d="M213.344 229.453L213.561 230.99L253.023 239.028L252.482 232.536L252.224 229.453H213.344Z" fill="#D86713"/>
<path d="M240.158 256.036H230.762C220.551 256.026 210.263 255.994 209.356 255.991C209.96 255.991 214.619 255.875 215.278 252.341C215.328 252.071 215.356 251.783 215.356 251.474C215.356 251.463 215.356 251.454 215.356 251.443C215.353 250.892 215.114 247.996 214.707 243.459L253.983 250.909C253.954 252.888 253.348 255.948 249.886 255.991C247.855 256.017 244.323 256.031 240.158 256.036" fill="#E58433"/>
<path d="M235.786 256.037C234.141 256.037 232.452 256.037 230.762 256.036H240.157C238.759 256.037 237.291 256.037 235.786 256.037Z" fill="#E78B37"/>
<path d="M308.547 226.278L308.545 226.28Z" fill="#BBA767"/>
<path d="M308.546 226.278L225.416 197.543L315.645 197.526L309.845 221.017L308.544 226.28" fill="#E78B37"/>
<path d="M308.546 226.278L308.545 226.28L309.845 221.017L308.546 226.278" fill="#E58433"/>
<path d="M152.227 80.0079H344.664L315.662 197.526L121.004 197.564L152.227 80.0079Z" fill="#F1A34F"/>
<path d="M205.873 212.425C206.429 209.541 209.197 207.204 212.058 207.204C214.916 207.204 216.785 209.541 216.229 212.425C215.673 215.307 212.904 217.644 210.044 217.644C207.184 217.644 205.317 215.307 205.873 212.425Z" fill="#D86713"/>
<path d="M130.08 192.47H310.26L330.665 110.519L332.229 104.236L333.564 98.8742L336.694 86.305H159.11L155.674 98.8742L154.208 104.236L152.49 110.519L130.08 192.47" fill="#E9F3FE"/>
<path d="M159.11 86.3048H336.694L333.564 98.874H155.674L159.11 86.3048" fill="#A8D29F"/>
<path d="M328.177 90.4145C329.037 90.4145 329.561 91.1185 329.347 91.9861C329.132 92.8537 328.259 93.5576 327.399 93.5576C326.538 93.5576 326.015 92.8537 326.229 91.9861C326.443 91.1185 327.316 90.4145 328.177 90.4145Z" fill="#E9F3FE"/>
<path d="M322.998 90.4145C323.859 90.4145 324.382 91.1185 324.168 91.9861C323.954 92.8537 323.082 93.5576 322.222 93.5576C321.36 93.5576 320.836 92.8537 321.05 91.9861C321.266 91.1185 322.138 90.4145 322.998 90.4145" fill="#E9F3FE"/>
<path d="M315.475 91.9861C315.689 91.1185 316.561 90.4145 317.423 90.4145C318.283 90.4145 318.807 91.1185 318.591 91.9861C318.377 92.8537 317.505 93.5576 316.645 93.5576C315.784 93.5576 315.261 92.8537 315.475 91.9861Z" fill="#E9F3FE"/>
<path d="M65.0348 246.747C65.0348 246.747 62.7412 248.89 63.1888 250.412C63.6362 251.935 65.7061 252.95 65.9859 254.811C66.2655 256.673 67.3842 257.688 68.3914 257.688C69.3981 257.688 73.192 257.688 73.192 257.688C73.192 257.688 73.9331 256.378 72.1429 255.983C70.3529 255.588 69.6779 253.402 69.7898 251.37C69.9016 249.34 69.622 246.634 69.622 246.634L65.8179 245.731L65.0348 246.747" fill="#233862"/>
<path d="M106.617 257.685H93.8694C93.7587 257.661 93.6745 257.637 93.6209 257.609C92.7712 257.181 93.0361 253.904 93.1389 252.888C93.1588 252.7 93.1727 252.589 93.1727 252.589C93.1727 252.589 97.6489 248.981 98.2638 251.744C98.2827 251.831 98.3059 251.916 98.3304 251.999C99.1043 254.583 102.579 255.76 104.585 256.087C106.115 256.337 106.513 257.234 106.617 257.685" fill="#233862"/>
<path d="M104.053 183.694C104.053 183.694 103.373 192.243 102.574 202.52C101.488 216.48 100.183 233.628 100.054 236.876C99.8303 242.517 98.9341 251.54 98.9341 251.54C98.9341 251.54 96.8095 253.684 92.5569 252.78C92.5569 252.78 88.7675 239.9 87.685 226.272C87.6682 226.048 87.6515 225.823 87.6345 225.597C86.6277 211.724 85.062 182.51 85.062 182.51L104.053 183.694Z" fill="#699DEE"/>
<path d="M104.053 183.694C104.053 183.694 103.373 192.243 102.574 202.52L87.685 226.272C87.6682 226.048 87.6515 225.823 87.6345 225.597C86.6277 211.724 85.062 182.51 85.062 182.51L104.053 183.694Z" fill="#4A75CB"/>
<path d="M100.949 184.71C100.949 184.71 88.6977 215.671 80.6421 230.223C72.5866 244.772 70.0694 248.834 70.0694 248.834C70.0694 248.834 65.4542 246.972 65.0347 245.703C65.0347 245.703 68.1151 217.613 73.5097 210.765C76.5581 206.895 80.1386 195.284 80.3064 191.223C80.4744 187.163 81.3974 179.126 81.3974 179.126L100.949 184.71" fill="#699DEE"/>
<path d="M113.338 176.162L114.038 177.568C114.038 177.568 117.599 178.07 116.619 181.812C116.619 181.812 116.091 183.353 115.109 182.865C114.127 182.379 114.611 182.419 113.203 181.764C111.796 181.108 110.982 179.849 111.296 178.692L111.071 177.468L113.338 176.162Z" fill="#FFB27D"/>
<path d="M94.6655 136.915C95.2103 133.673 95.2268 131.751 95.2268 131.751L89.011 126.702C89.242 133.646 84.8281 136.985 84.8281 136.985C84.8281 136.985 93.1113 141.096 97.8992 139.574C97.8992 139.574 96.7203 138.054 94.6655 136.915" fill="#FFB27D"/>
<path d="M96.6912 131.637C96.6912 131.637 88.7835 132.962 88.0413 127.985C87.2991 123.006 85.7784 119.826 90.796 118.77C95.8133 117.714 97.0798 119.463 97.7283 121.064C98.3769 122.665 98.7291 131.165 96.6912 131.637Z" fill="#FFB27D"/>
<path d="M88.0935 128.327C88.0935 128.327 88.253 121.66 95.4582 120.59C100.393 119.857 97.4045 115.699 96.8404 115.042C96.8404 115.042 93.0677 115.767 89.2064 116.621C81.1019 118.415 87.2369 127.336 88.0935 128.327" fill="#163560"/>
<path d="M112.508 178.118C113.565 177.023 114.35 175.6 114.35 175.6C114.35 175.6 105.366 164.346 104.635 163.179C103.905 162.012 98.4485 143.294 98.4485 143.294L84.6499 140.475C84.6499 140.475 96.1675 164.431 98.0756 167.352C101.229 172.177 110.662 179.36 110.662 179.36C110.662 179.36 111.678 178.976 112.508 178.118" fill="#82B479"/>
<path d="M104.581 184.405C104.437 184.527 104.27 184.598 104.078 184.598C102.28 184.575 97.0376 185.582 92.6017 185.122C88.8621 184.76 85.5523 183.643 81.9978 182.037C81.5257 181.824 80.4394 181.239 80.4638 180.707C80.4799 180.125 80.5371 179.28 80.6093 178.216C80.8608 174.518 81.2992 168.156 80.8717 160.815C80.7948 159.449 80.7544 158.094 80.7497 156.758C80.7129 146.812 82.6359 138.013 86.5672 135.052C86.9032 134.809 88.9984 135.874 90.8925 136.816C92.6427 137.687 93.8667 137.667 95.5203 137.329L97.7001 138.919C99.714 140.804 101.92 143.366 102.879 147.257C103.694 150.568 104.173 156.539 104.437 162.725C104.557 165.528 104.653 168.357 104.677 171.04V171.137C104.701 171.402 104.701 171.693 104.701 171.96C104.797 178.846 104.701 184.308 104.581 184.405" fill="#A8D29F"/>
<path d="M80.6094 178.217C80.861 174.518 81.2994 168.156 80.8718 160.816C80.795 159.449 80.7545 158.094 80.7498 156.759C82.3875 152.754 83.7261 149.849 83.7261 149.849H87.8542C87.8542 149.849 90.8805 170.689 80.6094 178.217Z" fill="#82B479"/>
<path d="M72.5782 179.512L71.7946 180.874C71.7946 180.874 73.3299 184.151 69.6878 185.377C69.6878 185.377 68.1207 185.775 67.9869 184.679C67.8527 183.584 68.0838 184.015 67.8566 182.468C67.6292 180.923 68.2281 179.546 69.3593 179.177L70.2521 178.316L72.5782 179.512Z" fill="#FFB27D"/>
<path d="M70.5005 179.884C71.987 180.176 73.5985 180.058 73.5985 180.058C73.5985 180.058 78.0116 166.314 78.5795 165.058C79.1476 163.803 91.6879 148.942 91.6879 148.942L86.4638 135.762C86.4638 135.762 72.9 158.603 71.5228 161.813C69.2469 167.117 68.457 179.008 68.457 179.008C68.457 179.008 69.3329 179.655 70.5005 179.884" fill="#A8D29F"/>
<path d="M228.848 173.95H144.731L173.487 56.6633H257.603L228.848 173.95Z" fill="#AFCDFB"/>
<path d="M216.284 166.632H132.167L160.923 49.3459H245.039L216.284 166.632Z" fill="#C0D8F9"/>
<path d="M202.669 158.268H118.553L147.308 40.9832H231.425L202.669 158.268Z" fill="#D4E3F4"/>
<path d="M243.326 56.6632L216.712 165.93L146.782 166.632L218.824 168.23L243.326 56.6632" fill="#699DEE"/>
<path d="M229.354 49.3459L204.07 157.567L134.14 158.268L205.257 160.041L229.354 49.3459" fill="#699DEE"/>
<path d="M167.624 81.6289H144.1L151.464 51.8361H174.989L167.624 81.6289" fill="#E9F3FE"/>
<path d="M221.329 55.9517H179.182L180.218 51.836H222.366L221.329 55.9517Z" fill="#AFCDFB"/>
<path d="M219.429 64.4023H177.28L178.316 60.2867H220.466L219.429 64.4023Z" fill="#AFCDFB"/>
<path d="M217.441 72.8525H175.292L176.33 68.7369H218.478L217.441 72.8525" fill="#AFCDFB"/>
<path d="M215.108 81.3032H172.96L173.997 77.1876H216.145L215.108 81.3032Z" fill="#AFCDFB"/>
<path d="M215.108 90.1025H137.952L138.989 85.9854H216.144L215.108 90.1025" fill="#AFCDFB"/>
<path d="M213.048 98.9004H135.892L136.929 94.7848H214.085L213.048 98.9004" fill="#AFCDFB"/>
<path d="M210.197 108.81H133.041L134.077 104.694H211.234L210.197 108.81Z" fill="#AFCDFB"/>
<path d="M207.605 117.365H130.448L131.485 113.25H208.641L207.605 117.365" fill="#AFCDFB"/>
<path d="M170.088 86.339C170.063 86.4162 170.031 86.4918 169.99 86.5597C169.526 87.3131 161.879 87.3501 161.006 86.7188C160.615 86.4347 160.496 82.5352 160.484 78.3084C160.468 73.0844 160.615 67.3617 160.615 67.3617C160.615 67.3617 163.607 68.7619 163.754 70.4847C163.9 72.2075 162.641 82.5614 163.515 83.1944C164.39 83.8273 168.42 83.9091 169.764 84.3074C169.764 84.3074 170.336 85.5471 170.088 86.339" fill="#A8D2A0"/>
<path d="M162.352 55.4839C161.828 54.9344 160.974 54.8819 160.422 54.8433C160.582 54.7167 160.865 54.6982 160.865 54.6982C160.534 54.604 159.735 54.8433 159.735 54.8433C159.735 54.8433 157.063 52.9923 155.251 56.6078C155.251 56.6078 155.516 56.3515 155.871 56.0675C154.826 58.1469 155.175 61.5447 157.513 62.4463C159.032 63.0329 167.714 61.1124 162.352 55.4839" fill="#163560"/>
<path d="M160.733 68.2262C160.747 68.2339 159.116 68.8345 158.007 68.3683C156.963 67.9283 156.439 66.4231 156.455 66.4216C156.923 66.3892 157.138 65.7732 157.479 63.0454L157.68 63.1133L161.071 64.2634C161.071 64.2634 160.851 65.3564 160.715 66.3969C160.6 67.2706 160.546 68.1058 160.733 68.2262" fill="#E49963"/>
<path d="M161.071 64.2635C161.071 64.2635 160.851 65.3565 160.715 66.397C158.773 66.0882 157.974 64.1616 157.68 63.1134L161.071 64.2635Z" fill="#D68D5D"/>
<path d="M157.37 62.6841C157.37 62.6841 156.557 60.9242 156.491 59.5009C156.444 58.4866 157.419 54.8712 161.019 55.8808C161.019 55.8808 162.071 56.1262 162.984 56.9382C163.711 57.5851 164.71 58.9065 163.011 61.9493L162.538 62.9897L157.37 62.6841" fill="#163560"/>
<path d="M161.595 65.3329C161.595 65.3329 156.977 64.8065 157.346 61.9119C157.715 59.0174 157.367 56.9997 160.332 57.2128C163.296 57.4258 163.728 58.6052 163.838 59.601C163.947 60.5982 162.806 65.3947 161.595 65.3329Z" fill="#E49963"/>
<path d="M161.9 71.8895C161.862 71.5483 162.583 71.3908 162.715 71.7073C162.96 72.2986 162.933 73.001 162.989 73.5691C163.148 75.1962 162.508 77.3096 162.508 77.3096L161.9 71.8895Z" fill="#82B479"/>
<path d="M163.907 57.9742C163.309 57.0124 162.747 57.1313 162.41 57.352C161.607 55.7218 158.18 57.4802 158.18 57.4802C157.605 59.5179 155.966 60.5121 155.966 60.5121C155.966 60.5121 156.74 61.145 158.741 60.8965C160.315 60.7004 161.702 58.658 162.223 57.7966C162.465 58.0791 162.97 58.7213 163.073 59.3003C163.208 60.0675 163.116 61.5973 163.561 61.6035C163.561 61.6035 164.808 59.4207 163.907 57.9742Z" fill="#163560"/>
<path d="M160.797 63.445C160.797 63.445 160.836 63.8233 161.75 63.885C161.75 63.885 162.518 63.9375 162.546 63.5299C162.546 63.5299 161.845 63.1471 160.797 63.445Z" fill="white"/>
<path d="M170.087 86.339C170.063 86.4162 170.031 86.4918 169.989 86.5597C169.526 87.3131 161.878 87.3501 161.006 86.7188C160.615 86.4347 160.488 81.5889 161.565 77.4084C161.82 79.9124 161.352 84.9203 162.653 85.3278C164.126 85.7925 168.152 85.8018 170.087 86.339" fill="#82B479"/>
<path d="M162.765 77.541C159.73 86.3743 161.113 87.9736 160.029 88.7378L159.111 89.0079C157.986 89.7597 158.099 88.6853 154.741 89.6579C153.141 90.1225 151.087 90.7462 149.324 91.0426C148.66 91.1537 148.038 91.2201 147.497 91.214C146.459 91.2001 145.72 90.9222 145.561 90.1935C145.098 88.0771 149.257 83.1618 148.861 79.3842C148.858 79.3533 148.855 79.3194 148.852 79.2869C148.831 78.9581 148.867 78.5892 148.951 78.1893C149.376 76.167 151.038 73.3636 152.691 71.0001C154.516 68.3927 156.328 66.3225 156.453 66.4213C160.019 69.2371 160.615 67.3615 160.615 67.3615C160.615 67.3615 163.8 74.5276 162.765 77.541" fill="#A8D2A0"/>
<path d="M159.434 88.9198C158.311 89.6717 158.099 88.6852 154.741 89.6578C153.141 90.1224 151.087 90.7461 149.324 91.0425C148.438 91.0826 147.775 91.132 147.497 91.2139C146.459 91.2 145.72 90.9221 145.561 90.1934C145.098 88.077 149.257 83.1617 148.861 79.3841C148.858 79.3532 148.855 79.3193 148.852 79.2868C148.824 78.9163 148.861 78.5536 148.951 78.1892C149.333 76.6609 150.683 75.1234 152.282 72.8371C153.023 73.8637 159.606 73.646 156.92 82.4809C156.096 85.1886 159.31 86.7185 159.434 88.9198" fill="#82B479"/>
<path d="M156.455 66.4215C156.455 66.4215 151.203 65.8071 149.936 68.2338C148.669 70.6606 147.806 79.6591 148.832 82.5351C149.858 85.4096 157.195 90.0717 158.043 90.3311C158.891 90.5904 159.606 89.3137 159.589 89.1625C159.571 89.0127 152.263 81.2785 152.388 80.5915C152.513 79.9046 156.455 66.4215 156.455 66.4215" fill="#A8D2A0"/>
<path d="M331.866 243.784L329.991 251.749L327.181 251.732L327.079 243.784H331.866" fill="#E49963"/>
<path d="M308.235 244.124L302.899 251.749L300.82 249.056L304.031 243.076L308.235 244.124Z" fill="#E49963"/>
<path d="M322.11 139.135C323.079 138.579 324.241 138.519 325.054 138.567C324.845 138.349 324.433 138.271 324.433 138.271C324.937 138.195 326.062 138.698 326.062 138.698C333.075 135.975 334.176 146.383 334.029 148.802C333.882 151.22 336.386 152.01 340.033 153.915C346.994 157.551 347.605 162.418 347.605 162.418C347.552 162.45 347.495 162.487 347.435 162.529C347.089 161.939 346.379 160.831 345.778 160.664C345.801 160.718 346.487 162.19 346.743 163.032C344.69 164.607 340.848 168.096 338.171 170.571C338.183 170.087 338.163 169.4 337.989 169.038L337.658 171.046C336.225 172.374 335.237 173.308 335.237 173.308C335.413 171.353 326.471 161.041 321.805 157.953C320.669 156.268 320.265 153.288 320.234 153.055C320.43 155.416 320.831 156.74 321.19 157.486C317.239 153.819 319.539 140.608 322.11 139.135" fill="#163560"/>
<path d="M322.081 158.106C322.058 158.117 324.333 159.309 326.045 158.837C327.656 158.394 328.708 156.289 328.687 156.283C328.004 156.147 327.808 155.203 327.823 151.143L327.514 151.203L322.329 152.239C322.329 152.239 322.447 153.883 322.451 155.433C322.454 156.734 322.376 157.967 322.081 158.106Z" fill="#E49963"/>
<path d="M322.329 152.239C322.329 152.239 322.447 153.883 322.451 155.433C325.352 155.351 326.886 152.682 327.514 151.203L322.329 152.239Z" fill="#D68D5D"/>
<path d="M328.05 150.634C328.05 150.634 329.57 148.212 329.935 146.14C330.195 144.663 329.448 139.183 323.986 139.972C323.986 139.972 322.399 140.129 320.908 141.145C319.721 141.952 318.011 143.695 319.925 148.478L320.421 150.094L328.05 150.634Z" fill="#163560"/>
<path d="M301.666 246.966L304.413 247.051L307.389 247.142C307.389 247.142 314.259 239.43 318.113 227.067C318.204 226.78 318.299 226.488 318.398 226.195C320.508 219.994 324.88 212.21 327.185 205.166C327.552 204.044 327.881 202.988 328.177 201.987C328.272 201.668 328.364 201.353 328.451 201.044C330.149 195.095 330.641 191.189 331.094 187.016L314.455 187.15C314.455 187.15 311.768 215.645 301.666 246.966" fill="#2B478B"/>
<path d="M316.784 177.511C316.826 185.494 315.622 188.92 315.622 188.92C315.622 188.92 322.747 192.569 331.215 189.883C331.314 189.85 337.583 188.583 337.583 188.583C337.441 188.259 335.712 182.737 335.574 182.44C333.786 178.57 333.541 176.693 333.328 175.503C332.934 173.281 332.927 170.983 333.123 168.815C333.639 163.077 335.176 158.313 335.176 158.313C332.868 157.784 330.708 156.854 328.307 155.947C327.754 156.64 326.065 157.365 324.601 157.331C322.914 157.294 322.367 156.566 322.454 155.772C320.657 156.78 319.223 157.733 319.223 157.733C317.695 160.408 314.598 163.005 314.372 167.11C314.317 168.118 316.783 177.287 316.784 177.511" fill="#E7F1FD"/>
<path d="M307.124 165.652C309.566 162.776 315.895 156.536 322.425 155.772L316.79 166.839C316.79 166.839 316.473 168.737 314.804 169.842C310.718 172.551 305.519 173.748 305.519 173.748C305.519 173.748 302 172.199 297.189 168.645C295.678 167.529 293.024 163.275 293.024 163.275L293.741 160.859C293.741 160.859 298.245 163.4 299.855 164.132C300.772 164.55 302.884 165.546 304.372 166.25C305.318 166.699 306.444 166.453 307.124 165.652" fill="#699DEE"/>
<path d="M321.361 153.705C321.361 153.705 328.224 153.819 328.229 149.509C328.233 145.199 329.123 142.31 324.741 142.054C320.358 141.799 319.505 143.443 319.156 144.882C318.809 146.319 319.576 153.564 321.361 153.705" fill="#E49963"/>
<path d="M321.615 141.949C321.615 141.949 323.494 147.007 326.378 147.754C329.263 148.501 330.514 147.723 330.514 147.723C330.514 147.723 328.301 145.951 327.843 142.859C327.843 142.859 323.032 139.543 321.615 141.949" fill="#163560"/>
<path d="M322.081 142.36C322.081 142.36 320.677 143.489 320.335 144.586C319.992 145.684 319.839 147.944 319.185 147.867C319.185 147.867 317.769 144.43 319.361 142.485C321.049 140.423 322.081 142.36 322.081 142.36Z" fill="#163560"/>
<path d="M293.741 160.859C293.741 160.859 292.773 157.344 288.939 157.841C288.499 157.98 287.213 158.497 288.035 159.883C288.64 160.907 288.903 160.379 289.856 161.754C290.808 163.128 291.843 163.438 293.024 163.275L293.741 160.859" fill="#E49963"/>
<path d="M330.085 251.302C330.085 251.302 329.858 252.88 330.443 254.567C330.443 254.567 330.902 256.679 328.84 256.719C326.776 256.758 326.27 256.562 326.503 255.267C326.737 253.971 327.181 251.731 327.181 251.731L330.085 251.302Z" fill="#E49963"/>
<path d="M326.309 257.621C326.309 257.621 326.353 257.649 326.439 257.69H330.477C330.555 257.649 330.592 257.621 330.592 257.621C330.824 256.562 330.443 254.567 330.443 254.567C328.106 256.726 326.644 254.513 326.644 254.513C326.264 255.437 326.309 257.621 326.309 257.621Z" fill="#D86713"/>
<path d="M295.847 255.478C295.847 255.478 299.651 251.222 300.819 249.056L303.648 250.517L297.325 256.503L295.846 256.307L295.847 255.478" fill="#E49963"/>
<path d="M293.486 257.69H298.693C299.193 257.312 299.662 256.438 300.244 255.265C300.553 254.64 301.251 254.294 301.966 254.104V257.65H303.046L304.069 253.882C304.741 252.633 304.122 251.502 303.648 250.517C303.096 250.515 301.614 250.895 298.804 254.087C297.879 255.136 296.86 255.511 295.848 255.478C295.832 255.487 295.818 255.495 295.806 255.5C294.11 256.269 293.626 257.224 293.486 257.69" fill="#D86713"/>
<path d="M322.454 155.772C322.454 155.772 318.484 165.663 318.366 167.663C318.25 169.666 317.899 200.397 317.899 200.397C317.899 200.397 318.133 201.81 315.447 201.221C312.76 200.633 312.06 200.044 312.06 200.044C312.06 200.044 314.63 181.086 313.928 174.493C313.227 167.9 319.302 157.146 319.302 157.146L322.454 155.772" fill="#699DEE"/>
<path d="M304.413 247.051L307.389 247.142C307.389 247.142 314.259 239.43 318.113 227.067C318.204 226.78 318.299 226.488 318.398 226.195C320.508 219.994 324.88 212.21 327.185 205.166C327.552 204.044 327.881 202.988 328.177 201.987C328.272 201.668 328.364 201.353 328.451 201.044L326.001 199.169C326.001 199.169 318.643 211.179 316.366 222.482C314.388 232.299 306.465 244.113 304.413 247.051" fill="#233862"/>
<path d="M325.745 223.533C325.702 229.031 325.978 241.668 326.688 246.898H329.324C330.78 246.898 331.506 246.878 331.506 246.878C333.288 237.782 334.555 230.255 335.478 223.769C336.234 218.448 336.907 213.885 337.424 209.958C337.945 206.004 338.308 202.694 338.436 199.898C338.456 199.457 338.471 199.029 338.481 198.613C338.488 198.196 338.491 197.788 338.487 197.395L324.11 195.982C324.291 205.612 325.768 220.339 325.745 223.533" fill="#2B478B"/>
<path d="M329.324 246.898C330.78 246.898 331.506 246.878 331.506 246.878C333.288 237.782 334.554 230.255 335.478 223.769C336.234 218.448 336.906 213.885 337.424 209.958C337.945 206.004 338.308 202.694 338.436 199.898L333.161 203.026C333.161 203.026 336.528 204.224 335.244 213.291C333.959 222.357 331.112 245.615 329.324 246.898" fill="#233862"/>
<path d="M328.644 199.809C328.644 199.809 329.658 203.497 333.161 203.026C336.665 202.555 341.647 200.436 341.647 200.436C341.647 200.436 340.15 195.666 338.288 189.4C336.034 181.814 333.244 172.034 331.928 165.865C331.559 164.136 331.308 162.693 331.213 161.658L328.307 155.973C328.307 155.973 323.974 165.78 323.739 168.253C323.505 170.725 328.644 199.809 328.644 199.809" fill="#699DEE"/>
<path d="M328.8 173.434C328.956 177.437 329.89 185.208 338.222 189.369C338.243 189.378 338.266 189.39 338.288 189.399C336.034 181.813 333.244 172.034 331.928 165.865C330.399 168.17 328.714 171.229 328.8 173.434Z" fill="#4A75CB"/>
<path d="M292.398 151.332L289.771 153.981L279.322 143.447L281.95 140.798L292.398 151.332" fill="currentColor"/>
<path d="M347.34 208.446L346.423 209.371C344.619 211.189 341.696 211.189 339.892 209.371L288.762 157.824C286.958 156.005 286.958 153.058 288.762 151.24L289.679 150.315C291.482 148.498 294.406 148.498 296.209 150.315L347.34 201.864C349.143 203.681 349.143 206.629 347.34 208.446" fill="currentColor"/>
<path d="M277.156 138.613C261.97 153.924 237.349 153.924 222.164 138.613C206.978 123.304 206.978 98.4818 222.164 83.1725C237.349 67.8631 261.97 67.8631 277.156 83.1725C292.341 98.4818 292.341 123.304 277.156 138.613M218.76 79.7407C201.694 96.9458 201.694 124.84 218.76 142.045C235.826 159.25 263.494 159.25 280.559 142.045C297.625 124.84 297.625 96.9458 280.559 79.7407C263.494 62.5371 235.826 62.5371 218.76 79.7407Z" fill="currentColor"/>
<path d="M332.143 167.884L328.307 155.973C328.318 155.977 333.152 157.424 335.585 158.662C335.585 158.662 337.104 160.638 338.046 165.197C338.046 165.197 339.039 176.142 336.821 180.145C336.821 180.145 329.812 181.557 318.6 177.672V175.081C318.6 175.081 330.864 175.73 333.375 176.024L332.143 167.884Z" fill="#E49963"/>
<path d="M328.307 155.973C328.307 155.973 335.418 156.478 337.131 160.325C338.845 164.17 339.39 176.966 337.21 180.733C337.21 180.733 334.208 181.596 328.899 180.594C328.834 180.583 328.768 180.57 328.703 180.557C328.703 180.557 327.01 176.377 328.527 175.554C328.527 175.554 333.005 175.789 332.538 174.297C332.071 172.806 328.307 155.973 328.307 155.973Z" fill="#699DEE"/>
<path d="M319.858 175.771C319.858 175.771 318.881 174.578 318.672 173.358C318.464 172.14 317.818 171.236 316.13 171.014C314.445 170.79 313.72 170.765 313.725 171.245C313.728 171.724 315.101 175.069 317.521 177.067C319.942 179.066 319.858 175.771 319.858 175.771" fill="#E49963"/>
<path d="M226.788 123.786L229.362 113.285L229.59 113.057L227.039 123.532L226.788 123.786Z" fill="#CFE1FD"/>
<path d="M270.211 80.0078H262.37L266.7 75.6436C268.403 76.4803 270.06 77.4514 271.652 78.5551L270.211 80.0078" fill="#F3F7FB"/>
<path d="M263.965 86.3047H256.124L262.37 80.0077H270.211L263.965 86.3047Z" fill="#F7C895"/>
<path d="M245.861 104.557L247.255 98.8741H251.498L245.861 104.557Z" fill="#F2F8FE"/>
<path d="M251.498 98.874H247.255L248.435 94.056L256.124 86.3048H263.965L251.498 98.874" fill="#CBE4C5"/>
<path d="M229.096 121.459L231.325 111.307L248.435 94.0559L247.255 98.8739L245.861 104.556L229.096 121.459Z" fill="#CFE1FD"/>
<path d="M217.708 132.94C216.624 131.361 215.651 129.7 214.802 127.966L229.362 113.285L226.788 123.786L217.708 132.94Z" fill="#D9E8FB"/>
<path d="M227.039 123.532L229.59 113.056L231.325 111.307L229.096 121.459L227.039 123.532Z" fill="#A5C4F5"/>
<path d="M271.652 78.5552C270.06 77.4514 268.403 76.4804 266.7 75.6437L266.879 75.463C268.599 76.3198 270.247 77.3001 271.812 78.3946L271.652 78.5552" fill="#DD9891"/>
<path d="M231.043 106.432L239.21 73.1257C239.246 73.1149 239.286 73.1041 239.324 73.0933L231.256 106.218L231.043 106.432" fill="#CFE1FD"/>
<path d="M257.252 80.0078H251.881L253.864 71.9186C257.006 72.2613 260.111 72.9884 263.112 74.1014L257.252 80.0078Z" fill="#F3F7FB"/>
<path d="M251.006 86.3047H250.336L251.881 80.0077H257.252L251.006 86.3047Z" fill="#F7C895"/>
<path d="M250.117 87.2031L250.336 86.3047H251.006L250.117 87.2031" fill="#CBE4C5"/>
<path d="M232.78 104.68L239.743 72.9808C242.989 72.1209 246.324 71.6902 249.659 71.6902C251.063 71.6902 252.467 71.7674 253.864 71.9187L251.881 80.008L250.336 86.3049L250.117 87.2034L232.78 104.68" fill="#CFE1FD"/>
<path d="M213.255 124.364C213.206 124.233 213.159 124.099 213.11 123.966L221.942 83.3993C222.014 83.3237 222.089 83.248 222.164 83.1724C227.071 78.2247 232.965 74.8747 239.21 73.1257L231.044 106.432L213.255 124.364ZM212.416 121.843C212.263 121.323 212.119 120.798 211.986 120.269L220.698 84.7316C220.871 84.5386 221.044 84.3472 221.222 84.1558L212.416 121.843" fill="#D9E8FB"/>
<path d="M211.985 120.269C211.212 117.186 210.8 113.958 210.8 110.633C210.8 109.429 210.854 108.239 210.96 107.062C211.226 104.302 211.783 101.565 212.63 98.9005H213.048L213.932 95.3915C215.559 91.5785 217.815 87.9707 220.698 84.7319L211.985 120.269Z" fill="#E5EEF8"/>
<path d="M231.256 106.218L239.325 73.0935C239.464 73.055 239.603 73.0179 239.743 72.9808L232.78 104.68L231.256 106.218" fill="#A5C4F5"/>
<path d="M213.11 123.966C212.86 123.269 212.629 122.56 212.416 121.844L221.222 84.1561C221.458 83.9014 221.697 83.6497 221.942 83.3997L213.11 123.966" fill="#A5C4F5"/>
<path d="M213.048 98.9004H212.63C213.007 97.7148 213.44 96.5431 213.932 95.3914L213.048 98.9004Z" fill="#CFE1FD"/>
<path d="M210.959 107.062C212.748 87.0843 229.403 71.4292 249.685 71.4292C254.478 71.4292 259.067 72.306 263.307 73.9038L263.112 74.1014C260.111 72.9884 257.006 72.2613 253.864 71.9185C252.467 71.7673 251.063 71.6901 249.659 71.6901C246.324 71.6901 242.989 72.1208 239.742 72.9806C239.603 73.0177 239.464 73.0548 239.324 73.0933C239.286 73.1042 239.246 73.115 239.21 73.1258C232.965 74.8748 227.071 78.2248 222.164 83.1725C222.089 83.2481 222.014 83.3238 221.942 83.3994C221.697 83.6495 221.458 83.9011 221.222 84.1559C221.044 84.3473 220.871 84.5387 220.698 84.7317C217.815 87.9705 215.559 91.5782 213.932 95.3913C213.44 96.5429 213.007 97.7146 212.63 98.9002C211.783 101.565 211.226 104.302 210.959 107.062" fill="#DD9891"/>
<path d="M249.685 149.835C244.651 149.835 239.842 148.869 235.427 147.113L236.834 141.377L278.991 98.8742H286.68C288.341 104.087 288.892 109.583 288.333 114.982C286.187 134.584 269.703 149.835 249.685 149.835" fill="#F2F8FE"/>
<path d="M286.68 98.874H278.991L284.453 93.3675C285.34 95.1551 286.083 96.9968 286.68 98.874" fill="#CBE4C5"/>
<path d="M235.427 147.113C234.417 146.71 233.428 146.267 232.461 145.786L236.835 141.377L235.427 147.113Z" fill="#CFE1FD"/>
<path d="M288.334 114.981C288.893 109.583 288.341 104.087 286.68 98.874C286.083 96.9968 285.34 95.1551 284.454 93.3674L284.555 93.2671C287.124 98.5019 288.571 104.396 288.571 110.633C288.571 112.102 288.49 113.553 288.334 114.981" fill="#DD9891"/>
<path d="M32.8554 258.4H427.52C427.714 258.4 427.872 258.241 427.872 258.045C427.872 257.851 427.714 257.69 427.52 257.69H32.8554C32.6617 257.69 32.5032 257.851 32.5032 258.045C32.5032 258.241 32.6617 258.4 32.8554 258.4Z" fill="currentColor"/>
</svg>
