<svg width="453" height="335" viewBox="0 30 453 365" xmlns="http://www.w3.org/2000/svg">
<path class="gear" d="M374.946 96.0038C362.559 96.0038 352.516 86.4162 352.516 74.5892C352.516 62.7621 362.559 53.1737 374.946 53.1737C387.333 53.1737 397.375 62.7621 397.375 74.5892C397.375 86.4162 387.333 96.0038 374.946 96.0038ZM404.136 67.3685C403.426 64.7454 402.337 62.2687 400.931 59.991L404.193 55.3068L399.667 50.9853L395.141 46.6637L390.235 49.7785C387.849 48.4358 385.255 47.3961 382.508 46.7183L381.347 41.2082H374.946H368.545L367.384 46.7183C364.636 47.3961 362.042 48.4358 359.657 49.7785L354.75 46.6637L350.224 50.9853L345.698 55.3068L348.96 59.991C347.555 62.2687 346.465 64.7454 345.756 67.3685L339.984 68.4774V74.5892V80.701L345.756 81.8099C346.465 84.433 347.555 86.9097 348.96 89.1865L345.698 93.8716L350.224 98.1931L354.75 102.515L359.657 99.3999C362.042 100.743 364.636 101.782 367.384 102.46L368.545 107.97H374.946H381.347L382.508 102.46C385.255 101.782 387.849 100.743 390.235 99.3999L395.141 102.515L399.667 98.1931L404.193 93.8716L400.931 89.1865C402.337 86.9097 403.426 84.433 404.136 81.8099L409.907 80.701V74.5892V68.4774L404.136 67.3685Z" fill="#587AA2"/>
<path class="gear" d="M399.487 132.471C393.807 132.471 389.204 128.076 389.204 122.653C389.204 117.231 393.807 112.836 399.487 112.836C405.166 112.836 409.769 117.231 409.769 122.653C409.769 128.076 405.166 132.471 399.487 132.471ZM412.869 119.343C412.543 118.14 412.044 117.005 411.4 115.961L412.896 113.813L410.82 111.832L408.746 109.851L406.495 111.279C405.402 110.664 404.213 110.187 402.954 109.876L402.421 107.35H399.487H396.553L396.02 109.876C394.76 110.187 393.571 110.664 392.477 111.279L390.229 109.851L388.153 111.832L386.079 113.813L387.574 115.961C386.929 117.005 386.431 118.14 386.105 119.343L383.459 119.851V122.653V125.455L386.105 125.964C386.431 127.167 386.929 128.301 387.574 129.346L386.079 131.493L388.153 133.474L390.229 135.456L392.477 134.028C393.571 134.643 394.76 135.12 396.02 135.43L396.553 137.957H399.487H402.421L402.954 135.43C404.213 135.12 405.402 134.643 406.495 134.028L408.746 135.456L410.82 133.474L412.896 131.493L411.4 129.346C412.044 128.301 412.543 127.167 412.869 125.964L415.515 125.455V122.653V119.851L412.869 119.343Z" fill="#829CB9"/>
<path d="M226.877 314.05H258.365V222.731H226.877V314.05Z" fill="#AEBECC"/>
<path d="M120.501 266.72H364.744C372.38 266.72 378.573 260.808 378.573 253.515V96.7803C378.573 89.4886 372.38 83.5768 364.744 83.5768H120.501C112.863 83.5768 106.672 89.4886 106.672 96.7803V253.515C106.672 260.808 112.863 266.72 120.501 266.72Z" fill="#F0F0F0"/>
<path d="M117.319 238.02H367.922V64.0841H117.319V238.02Z" fill="white"/>
<path d="M117.319 85.0933H367.922V64.0853H117.319V85.0933" fill="currentColor"/>
<path d="M233.851 251.153C233.851 255.778 237.778 259.526 242.621 259.526C247.465 259.526 251.392 255.778 251.392 251.153C251.392 246.528 247.465 242.779 242.621 242.779C237.778 242.779 233.851 246.528 233.851 251.153Z" fill="#757575"/>
<path class="placeholder" d="M194.897 106.26H276.622C278.376 106.26 279.797 104.902 279.797 103.228V103.066C279.797 101.392 278.376 100.035 276.622 100.035H194.897C193.144 100.035 191.722 101.392 191.722 103.066V103.228C191.722 104.902 193.144 106.26 194.897 106.26Z" fill="#DFE1E8"/>
<path class="placeholder" d="M194.897 117.488H276.622C278.376 117.488 279.797 116.131 279.797 114.457V114.294C279.797 112.62 278.376 111.262 276.622 111.262H194.897C193.144 111.262 191.722 112.62 191.722 114.294V114.457C191.722 116.131 193.144 117.488 194.897 117.488Z" fill="#DFE1E8"/>
<path class="placeholder" d="M194.897 128.715H276.622C278.376 128.715 279.797 127.358 279.797 125.684V125.521C279.797 123.848 278.376 122.49 276.622 122.49H194.897C193.144 122.49 191.722 123.848 191.722 125.521V125.684C191.722 127.358 193.144 128.715 194.897 128.715Z" fill="#DFE1E8"/>
<path d="M143.128 145.795C136.276 145.795 130.703 151.117 130.703 157.658V212.217C130.703 218.759 136.276 224.082 143.128 224.082H237.066C243.917 224.082 249.491 218.759 249.491 212.217V157.658C249.491 151.117 243.917 145.795 237.066 145.795H143.128ZM237.066 225.782H143.128C135.295 225.782 128.922 219.697 128.922 212.217V157.658C128.922 150.179 135.295 144.094 143.128 144.094H237.066C244.899 144.094 251.271 150.179 251.271 157.658V212.217C251.271 219.697 244.899 225.782 237.066 225.782Z" fill="#DFE1E8"/>
<path class="placeholder" d="M150.558 164.657H229.636C233.101 164.657 235.91 161.975 235.91 158.666V157.527C235.91 154.219 233.101 151.537 229.636 151.537H150.558C147.094 151.537 144.284 154.219 144.284 157.527V158.666C144.284 161.975 147.094 164.657 150.558 164.657Z" fill="#DFE1E8"/>
<path d="M313.452 317.495H171.792V310.602H313.452V317.495Z" fill="#F0F0F0"/>
<path d="M339.74 162.02C339.74 169.187 335.683 175.451 329.642 178.831C328.428 179.51 327.133 180.072 325.775 180.502C325.653 180.541 325.53 180.58 325.407 180.615C323.493 181.183 321.459 181.489 319.35 181.489C316.093 181.489 313.016 180.761 310.285 179.465C303.572 176.278 298.958 169.664 298.958 162.02C298.958 151.268 308.087 142.55 319.35 142.55C330.61 142.55 339.74 151.268 339.74 162.02Z" fill="#EEF0F7"/>
<path d="M314.478 159.965C314.478 159.965 313.085 151.363 320.547 151.522C328.01 151.681 327.91 155.934 327.777 160.157C327.645 164.378 324.785 164.061 328.01 169.933C331.235 175.806 325.218 175.806 325.218 175.806L320.547 169.68L314.478 159.965" fill="#3C4145"/>
<path d="M319.731 152.347C319.731 152.347 314.678 153.109 314.478 159.965C314.278 166.822 315.841 168.283 320.264 166.854C324.685 165.426 326.082 158.251 326.181 157.141C326.281 156.03 326.548 151.522 319.731 152.347Z" fill="#EEA886"/>
<path d="M328.607 176.196C328.622 178.25 327.471 179.624 325.776 180.502C325.653 180.541 325.531 180.58 325.407 180.615C323.493 181.183 321.459 181.489 319.35 181.489C316.093 181.489 313.016 180.761 310.285 179.465C309.67 178.294 310.562 176.632 312.37 174.081C313.612 172.327 314.829 170.537 316.913 169.667C319.986 169.2 323.24 169.172 325.533 170.408C327.359 171.395 328.576 173.184 328.607 176.196Z" fill="#E55353"/>
<path d="M313.36 173.978L311.035 177.474C311.041 177.455 311.196 176.926 311.458 175.392C311.508 175.101 311.561 174.774 311.619 174.408C311.635 174.3 311.661 174.192 311.692 174.085C312.687 171.896 315.788 170.267 315.9 170.213L313.36 173.978" fill="#E55353"/>
<path d="M329.642 178.832C328.428 179.51 327.133 180.072 325.775 180.502C325.653 180.541 325.531 180.58 325.407 180.616C324.891 179.346 324.443 178.246 324.347 177.962C324.319 177.879 324.252 177.725 324.162 177.517C323.744 176.544 322.805 174.383 322.793 172.691C322.786 171.601 323.163 170.706 324.313 170.453C324.765 170.352 325.171 170.346 325.532 170.409C326.815 170.631 327.564 171.731 327.982 172.708C327.989 172.724 327.995 172.741 328.001 172.756C328.35 173.587 328.459 174.312 328.459 174.312C328.459 174.312 328.48 174.389 328.516 174.527C328.589 174.798 328.727 175.315 328.905 175.992C329.11 176.77 329.368 177.757 329.642 178.832" fill="#EEA886"/>
<path d="M323.107 163.766C322.668 164.556 322.206 169.458 322.206 169.458C322.206 169.458 316.024 171.689 316.657 170.428C316.944 169.855 317.029 169.112 317.034 168.471C317.04 167.967 316.996 167.525 316.965 167.28C316.95 167.151 316.937 167.077 316.937 167.077C316.937 167.077 323.544 162.975 323.107 163.766Z" fill="#EEA886"/>
<path d="M317.671 157.268C317.671 157.268 320.264 161.299 322.624 162.887C324.985 164.474 323.788 165.744 323.788 165.744C323.788 165.744 329.947 153.363 324.092 152.506C318.236 151.649 314.645 151.585 314.478 159.966C314.478 159.966 317.138 157.204 317.671 157.268" fill="#3C4145"/>
<path d="M320.49 166.775C319.541 168.111 317.034 168.471 317.034 168.471C317.039 167.967 316.996 167.525 316.965 167.28C318.576 167.576 320.49 166.775 320.49 166.775Z" fill="#A77860"/>
<path d="M311.703 174.059H311.703C311.703 174.059 311.568 174.325 311.458 175.393L312.369 174.081C312.369 174.081 313.995 171.855 314.551 171.276C315.108 170.697 315.916 170.189 315.916 170.189C315.916 170.189 312.675 171.658 311.703 174.059" fill="#BD4444"/>
<path d="M324.004 177.379C324.004 177.379 327.971 175.893 329.145 175.807C329.145 175.807 328.347 169.725 324.449 170.369C320.552 171.014 324.004 177.379 324.004 177.379Z" fill="#E55353"/>
<path d="M316.913 169.668C316.913 169.668 314.001 173.944 314.986 174.317C315.973 174.691 321.308 173.819 323.578 169.757C323.578 169.757 320.186 168.096 316.913 169.668Z" fill="#EEA886"/>
<path class="profileImg" d="M347.273 105.219C347.273 119.151 335.454 130.552 320.741 130.552C306.084 130.552 294.208 119.205 294.208 105.219C294.208 91.2269 306.087 79.8846 320.741 79.8846C335.394 79.8846 347.273 91.2269 347.273 105.219Z" fill="#EEF0F7"/>
<path d="M338.023 119.199L336.066 125.902C332.574 128.265 328.456 129.842 323.998 130.363C323.214 130.456 322.417 130.514 321.612 130.539C321.323 130.548 321.033 130.552 320.741 130.552C319.882 130.552 319.033 130.513 318.197 130.438C317.26 130.352 316.339 130.221 315.436 130.044C311.416 129.266 307.726 127.621 304.59 125.319C304.215 123.103 303.811 120.649 303.458 118.355C305.407 117.662 311.614 115.647 315.531 114.382C315.586 114.364 315.641 114.347 315.694 114.33C315.78 114.301 315.865 114.274 315.949 114.248C316.18 114.172 316.402 114.101 316.614 114.033C316.828 113.964 317.032 113.899 317.222 113.836C318.025 113.578 318.59 113.396 318.793 113.332C318.795 113.331 318.795 113.331 318.795 113.331C318.848 113.314 318.876 113.305 318.876 113.305L318.921 113.307L324.188 113.684L325.072 113.747L325.347 113.766C325.347 113.766 325.387 113.775 325.467 113.795C325.784 113.872 326.707 114.103 327.93 114.46C327.93 114.46 327.933 114.461 327.935 114.461C331.055 115.372 336.115 117.104 338.023 119.199" fill="#D9C7C1"/>
<path d="M322.122 92.6397C322.122 92.6397 328.439 93.6568 327.367 103.1C326.295 112.542 320.72 111.709 320.347 111.696C319.974 111.682 314.738 111.81 314.462 100.264C314.462 100.264 314.381 91.729 322.122 92.6397Z" fill="#EEA987"/>
<path d="M324.89 108.959C324.89 108.959 324.671 112.845 325.056 113.69C325.44 114.536 319.984 117.213 316.593 114.164C316.593 114.164 317.279 109.916 317.066 108.417C316.853 106.917 324.89 108.959 324.89 108.959" fill="#EEA987"/>
<path d="M327.496 100.431C327.496 100.431 328.197 99.7313 328.442 100.449C328.689 101.167 327.323 104.35 327.409 104.494C327.409 104.494 327.278 104.77 327.114 104.615C326.949 104.461 327.496 100.431 327.496 100.431Z" fill="#EEA987"/>
<path d="M314.534 100.176C314.534 100.176 313.863 99.45 313.587 100.157C313.31 100.865 314.32 104.043 314.446 104.24C314.446 104.24 314.664 104.566 314.835 104.418C315.005 104.27 314.534 100.176 314.534 100.176" fill="#EEA987"/>
<path d="M327.899 99.6286C327.681 100.92 327.476 101.881 327.476 101.881L326.555 103.027C326.555 103.027 326.611 100.493 326.47 100.094C326.417 99.9429 326.354 99.6763 326.29 99.3863C326.184 98.9084 326.076 98.37 326.002 98.1899C325.884 97.9034 320.588 96.4265 315.871 98.4998C315.871 98.4998 315.911 98.8902 315.908 99.3257C315.907 99.8312 315.849 100.397 315.606 100.483C315.153 100.641 315.342 103.45 315.342 103.45L314.607 102.639C314.607 102.639 314.394 101.172 314.186 99.4858C314.186 99.4858 314.184 99.4815 314.183 99.4737C314.136 99.0807 314.087 98.6764 314.042 98.2748C313.935 96.5789 314.112 93.4989 316.425 91.6896C317.986 91.0516 320.478 90.5089 324.632 91.7234C324.632 91.7234 325.585 91.784 325.853 92.0298C328.44 94.7489 327.899 99.6286 327.899 99.6286" fill="#E8734D"/>
<path d="M317.498 110.433C317.498 110.433 318.506 111.77 320.849 111.72C323.191 111.669 324.209 110.504 324.209 110.504C324.209 110.504 323.099 112.718 320.838 112.694C318.577 112.67 317.498 110.433 317.498 110.433Z" fill="#C78D71"/>
<path d="M315.948 114.247C315.948 114.247 317.641 117.06 320.853 117.326C322.891 117.494 324.655 115.028 325.482 113.817C325.482 113.817 320.92 111.953 315.948 114.247Z" fill="#EEA987"/>
<path d="M324.896 112.928C324.896 112.928 323.606 114.543 320.854 116.272L322.565 118.788L325.483 113.817L324.896 112.928Z" fill="#EDDAD3"/>
<path d="M316.721 113.303C316.721 113.303 318.364 115.27 320.854 116.271L318.976 118.863L315.694 114.328L316.721 113.303Z" fill="#EDDAD3"/>
<path d="M320.854 116.27L322.321 118.401C322.321 118.401 320.781 119.232 319.349 118.348L320.854 116.27" fill="currentColor"/>
<path d="M339.717 118.802C339.465 119.668 339.087 120.928 338.09 124.387C337.786 124.638 337.475 124.884 337.159 125.12C336.802 125.39 336.437 125.65 336.066 125.903C332.574 128.265 328.457 129.842 323.999 130.363C324.392 121.594 325.483 113.818 325.483 113.818C326.342 114.033 327.158 114.248 327.93 114.46C327.93 114.46 327.933 114.461 327.935 114.461C334.668 116.306 338.082 117.925 339.247 118.539C339.255 118.543 339.264 118.549 339.272 118.553C339.576 118.715 339.717 118.802 339.717 118.802" fill="#323657"/>
<path d="M315.435 130.044C311.415 129.266 307.726 127.62 304.59 125.318C303.643 124.626 302.749 123.873 301.911 123.067C301.747 122.91 301.586 122.751 301.429 122.59C300.964 120.707 300.655 119.478 300.636 119.398L300.635 119.394C300.635 119.394 303.917 117.334 315.531 114.375C315.531 114.375 315.531 114.378 315.531 114.381C315.531 114.635 315.538 121.748 315.435 130.044" fill="#323657"/>
<path d="M321.694 118.636C321.586 120.945 321.575 125.426 321.612 130.539C321.323 130.548 321.033 130.552 320.741 130.552C319.882 130.552 319.034 130.513 318.197 130.438C318.707 124.132 319.567 120.19 319.959 118.629C320.088 118.118 320.166 117.864 320.166 117.864L321.723 118.109C321.712 118.27 321.703 118.445 321.694 118.636Z" fill="#5073AB"/>
<path d="M341.055 121.516C340.147 122.546 339.156 123.506 338.09 124.386C337.786 124.637 337.475 124.883 337.158 125.119L339.717 118.802C340.34 119.304 340.842 121.022 341.055 121.516Z" fill="#323657"/>
<path d="M301.91 123.067C301.747 122.91 301.586 122.751 301.429 122.59C300.834 121.99 300.272 121.362 299.743 120.708C300.044 120.024 300.342 119.565 300.635 119.394L300.636 119.398L301.91 123.067" fill="#323657"/>
<path d="M160.542 78.5591H130.776C129.126 78.5591 127.787 77.2814 127.787 75.7058V73.4742C127.787 71.8986 129.126 70.6209 130.776 70.6209H160.542C162.192 70.6209 163.53 71.8986 163.53 73.4742V75.7058C163.53 77.2814 162.192 78.5591 160.542 78.5591Z" fill="#F5F7FF"/>
<path d="M339.739 208.417C339.739 219.13 330.65 227.887 319.349 227.887C308.067 227.887 298.959 219.151 298.959 208.417C298.959 197.665 308.088 188.948 319.349 188.948C330.61 188.948 339.739 197.665 339.739 208.417Z" fill="#EEF0F7"/>
<path d="M319.349 216.18C318.782 216.18 318.321 215.74 318.321 215.199V201.636C318.321 201.094 318.782 200.654 319.349 200.654C319.916 200.654 320.376 201.094 320.376 201.636V215.199C320.376 215.74 319.916 216.18 319.349 216.18" fill="#949494"/>
<path d="M326.452 209.398H312.246C311.678 209.398 311.219 208.958 311.219 208.417C311.219 207.875 311.678 207.436 312.246 207.436H326.452C327.019 207.436 327.479 207.875 327.479 208.417C327.479 208.958 327.019 209.398 326.452 209.398" fill="#949494"/>
<path d="M275.795 163.205H264.673C262.464 163.205 260.672 161.495 260.672 159.384V148.766C260.672 146.655 262.464 144.945 264.673 144.945H275.795C278.006 144.945 279.797 146.655 279.797 148.766V159.384C279.797 161.495 278.006 163.205 275.795 163.205Z" fill="currentColor"/>
<path class="tick" d="M269.629 158.097L264.794 154.072C264.398 153.742 264.357 153.168 264.703 152.789C265.048 152.411 265.65 152.371 266.046 152.702L269.466 155.547L274.341 150.355C274.692 149.981 275.294 149.95 275.685 150.285C276.077 150.62 276.11 151.196 275.759 151.57L269.629 158.097" fill="#F3F3F3"/>
<path d="M275.795 186.604H264.673C262.464 186.604 260.672 184.894 260.672 182.784V172.166C260.672 170.056 262.464 168.345 264.673 168.345H275.795C278.006 168.345 279.797 170.056 279.797 172.166V182.784C279.797 184.894 278.006 186.604 275.795 186.604Z" fill="currentColor"/>
<path class="tick" d="M269.629 181.497L264.794 177.472C264.398 177.142 264.357 176.567 264.703 176.189C265.048 175.811 265.65 175.772 266.046 176.102L269.466 178.947L274.341 173.755C274.692 173.381 275.294 173.35 275.685 173.685C276.077 174.02 276.11 174.595 275.759 174.969L269.629 181.497" fill="#F3F3F3"/>
<path d="M275.795 210.004H264.673C262.464 210.004 260.672 208.293 260.672 206.183V195.565C260.672 193.455 262.464 191.744 264.673 191.744H275.795C278.006 191.744 279.797 193.455 279.797 195.565V206.183C279.797 208.293 278.006 210.004 275.795 210.004" fill="currentColor"/>
<path d="M183.722 323.131C183.722 323.131 182.75 325.219 181.93 326.046C181.109 326.874 177.97 328.352 177.953 330.81C177.935 333.475 183.246 332.735 185.323 332.637C187.4 332.54 187.558 331.116 188.432 329.607C189.306 328.1 190.188 328.355 190.353 327.138C190.516 325.922 189.683 323.197 189.683 323.197L183.722 323.131" fill="#131C24"/>
<path d="M183.633 322.36L183.48 323.623C183.48 323.623 186.747 324.67 189.835 323.734L189.664 322.006L183.633 322.36" fill="#4F4946"/>
<path d="M222.022 323.131C222.022 323.131 222.994 325.219 223.814 326.046C224.634 326.874 227.774 328.352 227.791 330.81C227.809 333.475 222.498 332.735 220.421 332.637C218.344 332.54 218.186 331.116 217.312 329.607C216.437 328.1 215.556 328.355 215.392 327.138C215.227 325.922 216.061 323.197 216.061 323.197L222.022 323.131" fill="#131C24"/>
<path d="M222.111 322.36L222.264 323.623C222.264 323.623 218.997 324.67 215.908 323.734L216.08 322.006L222.111 322.36" fill="#4F4946"/>
<path d="M220.394 288.728C220.394 292.013 223.607 322.006 223.607 322.006C223.237 323.101 215.352 322.967 214.123 322.421C212.892 321.873 209.318 292.149 209.09 288.837C208.863 285.524 203.729 256.716 202.65 256.826C201.572 256.936 196.461 287.807 195.6 290.326C194.739 292.845 190.833 322.706 190.833 322.706C188.128 324.129 181.695 322.348 181.695 322.348C181.695 322.348 183.043 291.69 183.197 290.763C183.426 289.393 183.187 285.702 183.813 277.507C184.373 270.177 186.396 254.218 187.678 245.576C187.724 245.268 187.767 244.974 187.81 244.69C188.061 243.008 188.249 241.772 188.34 241.18C188.379 240.924 188.4 240.787 188.4 240.787C188.745 240.646 189.108 240.514 189.484 240.395C198.492 237.513 215.64 237.697 215.64 237.697C215.64 237.697 215.876 240.639 215.896 240.783C215.919 240.956 215.955 241.228 216.002 241.581C216.101 242.343 216.251 243.478 216.423 244.795C216.423 244.804 216.425 244.813 216.426 244.823C216.43 244.863 216.436 244.903 216.441 244.943C217.047 249.631 217.904 256.492 217.824 257.207C217.701 258.302 220.394 285.443 220.394 288.728" fill="#293E4F"/>
<path d="M221.677 191.567L217.251 206.727C217.099 207.219 216.918 207.824 216.726 208.527L216.718 208.554C216.716 208.56 216.713 208.566 216.713 208.573C215.975 211.275 215.061 215.395 214.788 219.972C214.604 223.092 215.209 235.635 215.209 235.635C215.209 235.635 208.512 238.02 198.49 237.416C198.49 237.416 187.712 237.175 188.59 230.865C190.916 214.164 188.641 207.277 188.337 205.6C188.337 205.6 187.064 197.905 186.016 191.109C189.049 190.03 201.817 185.454 201.817 185.454L208.53 185.933C208.53 185.933 218.73 188.331 221.677 191.567" fill="#D9C7C1"/>
<path d="M205.185 164.022C205.185 164.022 211.737 165.078 210.625 174.871C209.514 184.664 203.731 183.801 203.343 183.787C202.956 183.773 197.527 183.904 197.24 171.93C197.24 171.93 197.157 163.077 205.185 164.022" fill="#EEA987"/>
<path d="M208.054 180.947C208.054 180.947 207.829 184.978 208.229 185.856C208.627 186.732 202.967 189.508 199.45 186.346C199.45 186.346 200.161 181.941 199.941 180.385C199.72 178.829 208.054 180.947 208.054 180.947" fill="#EEA987"/>
<path d="M210.758 172.102C210.758 172.102 211.485 171.376 211.74 172.121C211.995 172.866 210.579 176.167 210.668 176.317C210.668 176.317 210.533 176.603 210.362 176.443C210.192 176.282 210.758 172.102 210.758 172.102" fill="#EEA987"/>
<path d="M197.315 171.838C197.315 171.838 196.621 171.085 196.333 171.819C196.047 172.553 197.094 175.85 197.226 176.053C197.226 176.053 197.45 176.392 197.628 176.238C197.806 176.084 197.315 171.838 197.315 171.838" fill="#EEA987"/>
<path d="M211.177 171.271C210.951 172.611 210.738 173.606 210.738 173.606L209.784 174.796C209.784 174.796 209.84 172.167 209.695 171.754C209.639 171.597 209.575 171.32 209.508 171.02C209.399 170.525 209.287 169.965 209.21 169.778C209.087 169.482 203.594 167.95 198.703 170.1C198.703 170.1 198.744 170.505 198.741 170.956C198.74 171.48 198.678 172.068 198.427 172.156C197.957 172.32 198.153 175.234 198.153 175.234L197.391 174.393C197.391 174.393 197.17 172.871 196.954 171.123C196.954 171.123 196.953 171.118 196.951 171.11C196.902 170.702 196.852 170.282 196.804 169.867C196.695 168.108 196.878 164.913 199.277 163.037C200.896 162.375 205.32 161.709 207.789 163.072C207.789 163.072 209.112 163.857 209.39 164.111C212.073 166.931 211.177 171.271 211.177 171.271" fill="#E8734D"/>
<path d="M200.39 182.476C200.39 182.476 201.436 183.863 203.866 183.81C206.295 183.759 207.35 182.549 207.35 182.549C207.35 182.549 206.199 184.846 203.854 184.822C201.508 184.797 200.39 182.476 200.39 182.476" fill="#C78D71"/>
<path d="M198.783 186.431C198.783 186.431 200.539 189.35 203.871 189.625C205.984 189.799 207.796 187.236 208.654 185.98C208.654 185.98 203.939 184.053 198.783 186.431" fill="#EEA987"/>
<path d="M208.063 185.064C208.063 185.064 206.722 186.739 203.87 188.532L205.644 191.143L208.67 185.968L208.063 185.064" fill="#EDDAD3"/>
<path d="M199.584 185.454C199.584 185.454 201.288 187.494 203.87 188.531L201.923 191.22L198.538 186.629L199.584 185.454" fill="#EDDAD3"/>
<path d="M203.871 188.531L205.391 190.74C205.391 190.74 203.794 191.604 202.309 190.686L203.871 188.531Z" fill="currentColor"/>
<path d="M188.224 238.553C188.224 238.553 196.445 241.447 215.035 238.721L214.788 235.507C214.788 235.507 204.012 238.542 188.552 235.943L188.224 238.553" fill="#1A2833"/>
<path d="M208.67 185.966C208.67 185.966 206.748 199.695 207.012 211.522C207.275 223.347 211.297 245.522 211.297 245.522C211.297 245.522 218.467 244.852 220.246 242.713C220.246 242.713 216.132 221.371 216.249 218.207C216.366 215.043 221.522 191.256 221.522 191.256C221.522 191.256 219.507 188.69 208.67 185.966Z" fill="#385369"/>
<path d="M198.382 186.684C198.382 186.684 198.365 199.695 198.102 211.522C197.838 223.347 196.207 245.362 196.207 245.362C196.207 245.362 187.796 244.219 186.017 242.08C186.017 242.08 188.981 221.371 188.864 218.207C188.747 215.043 185.062 191.489 185.062 191.489C185.062 191.489 186.336 189.753 198.382 186.684Z" fill="#385369"/>
<path d="M204.487 240.081H199.435V236.496H204.487V240.081Z" fill="#3E5E78"/>
<path d="M203.157 190.183C203.157 190.183 200.901 197.534 200.703 212.135C200.507 226.736 200.98 230.923 200.98 230.923L202.742 234.25L205.089 230.778C205.089 230.778 204.336 197.18 204.772 190.438L203.157 190.183" fill="#5073AB"/>
<path d="M212.574 210.73C212.574 210.73 215.912 209.126 216.376 208.844C216.839 208.562 222.416 207.773 223.118 207.794C223.821 207.817 223.852 208.351 223.653 208.541C223.455 208.731 217.88 209.605 217.785 209.732C217.688 209.86 218.255 209.812 218.255 209.812C218.255 209.812 224.264 209.724 224.683 210.109C225.104 210.493 224.622 210.857 224.378 210.953C224.378 210.953 224.926 211.553 224.293 211.799C223.662 212.047 222.807 212.205 222.807 212.205C222.807 212.205 223.601 212.595 223.079 212.943C222.555 213.292 216.19 215.174 216.19 215.174C216.19 215.174 213.822 210.852 212.574 210.73" fill="#EEA886"/>
<path d="M224.047 221.717C219.707 222.706 209.677 221.1 205.855 220.296C205.046 220.126 204.131 219.947 203.191 219.771H203.189C201.625 219.477 199.995 219.192 198.67 218.967H198.669C197.038 218.689 195.873 218.503 195.873 218.503C195.873 218.503 216.922 213.987 217.7 213.987C218.476 213.987 215.756 202.237 215.756 202.237C215.756 202.237 213.045 192.398 214.453 188.53C214.453 188.53 219.793 190.077 221.522 191.256C222.486 191.913 223.195 196.181 223.853 199.083C224.686 202.761 226.621 211.137 226.84 212.905C227.041 214.516 228.387 220.728 224.047 221.717" fill="#385369"/>
<path d="M191.837 188.578C191.837 188.578 185.372 190.687 185.062 191.489C183.754 194.881 183.146 198.587 182.724 200.073C182.207 201.888 181.037 207.318 180.735 209.088C180.353 211.346 179.616 219.344 179.937 220.578C180.342 222.135 184.186 222.022 186.259 221.714C188.331 221.403 217.132 214.713 217.132 214.713C217.132 214.713 215.489 209.596 215.406 209.145C215.406 209.145 193.205 211.568 190.377 212.143C188.761 212.472 188.412 212.598 188.412 212.598C188.412 212.598 193.309 193.411 191.837 188.578" fill="#385369"/>
<path d="M195.661 211.479C195.661 211.479 192.762 209.226 192.374 208.855C191.986 208.484 186.717 206.567 186.026 206.444C185.336 206.319 185.217 206.849 185.269 207.109C185.362 207.569 190.733 209.288 190.798 209.432C190.863 209.576 190.32 209.414 190.32 209.414C190.32 209.414 184.471 208.092 183.975 208.381C183.479 208.67 183.867 209.123 184.083 209.268C184.083 209.268 183.413 209.741 183.975 210.113C184.537 210.484 185.335 210.813 185.335 210.813C185.335 210.813 184.471 211.032 184.904 211.479C185.336 211.927 188.412 212.598 188.412 212.598C188.412 212.598 194.414 211.34 195.661 211.479" fill="#EEA886"/>
<path d="M212.955 215.681L203.19 219.771H203.189C201.625 219.478 199.994 219.192 198.67 218.968L212.955 215.681Z" fill="#263947"/>
<path d="M208.248 163.951C208.248 163.951 209.874 163.169 210.753 164.193C211.632 165.218 211.726 170.792 210.653 172.931C209.58 175.07 210.824 165.336 208.248 163.951" fill="#E8734D"/>
<path d="M146.372 345.376H143.466V219.206H146.372V345.376Z" fill="#706865"/>
<path d="M150.458 324.551H72.2522C67.4332 324.551 63.5264 320.822 63.5264 316.22V174.828C63.5264 170.226 67.4332 166.496 72.2522 166.496H150.458C155.277 166.496 159.185 170.226 159.185 174.828V316.22C159.185 320.822 155.277 324.551 150.458 324.551" fill="#BDAFAA"/>
<path d="M147.938 318.377H74.7729C70.012 318.377 66.1514 314.691 66.1514 310.145V177.274C66.1514 172.728 70.012 169.042 74.7729 169.042H147.938C152.699 169.042 156.559 172.728 156.559 177.274V310.145C156.559 314.691 152.699 318.377 147.938 318.377" fill="white"/>
<path d="M125.608 171.443H97.103V165.298H125.608V171.443Z" fill="#706865"/>
<path d="M81.2863 265.764C77.2026 265.764 73.8806 268.936 73.8806 272.836V304.289C73.8806 308.189 77.2026 311.36 81.2863 311.36H139.155C143.239 311.36 146.562 308.189 146.562 304.289V272.836C146.562 268.936 143.239 265.764 139.155 265.764H81.2863ZM139.155 312.406H81.2863C76.5988 312.406 72.7844 308.765 72.7844 304.289V272.836C72.7844 268.36 76.5988 264.718 81.2863 264.718H139.155C143.844 264.718 147.657 268.36 147.657 272.836V304.289C147.657 308.765 143.844 312.406 139.155 312.406Z" fill="currentColor"/>
<path d="M87.2337 236.325C87.2299 236.324 87.2261 236.323 87.2205 236.325C87.2792 236.349 87.2877 236.351 87.2337 236.325Z" fill="#323657"/>
<path d="M137.489 215.966C132.893 215.966 129.155 219.536 129.155 223.924C129.155 228.312 132.893 231.882 137.489 231.882C142.085 231.882 145.823 228.312 145.823 223.924C145.823 219.536 142.085 215.966 137.489 215.966ZM137.489 232.929C132.29 232.929 128.059 228.89 128.059 223.924C128.059 218.959 132.29 214.92 137.489 214.92C142.689 214.92 146.92 218.959 146.92 223.924C146.92 228.89 142.689 232.929 137.489 232.929Z" fill="currentColor"/>
<path d="M137.489 236.715C132.893 236.715 129.155 240.285 129.155 244.673C129.155 249.06 132.893 252.63 137.489 252.63C142.085 252.63 145.823 249.06 145.823 244.673C145.823 240.285 142.085 236.715 137.489 236.715ZM137.489 253.676C132.29 253.676 128.059 249.637 128.059 244.673C128.059 239.707 132.29 235.668 137.489 235.668C142.689 235.668 146.92 239.707 146.92 244.673C146.92 249.637 142.689 253.676 137.489 253.676Z" fill="currentColor"/>
<path d="M94.9842 224.324C94.2063 224.324 93.4193 224.288 92.6423 224.218C91.7828 224.139 90.9278 224.019 90.1 223.857C86.496 223.158 83.0425 221.654 80.1139 219.506C79.2472 218.87 78.4167 218.173 77.6478 217.432C77.4891 217.279 77.3395 217.131 77.2026 216.991C76.6613 216.446 76.14 215.862 75.6531 215.26C72.3184 211.146 70.5549 206.215 70.5549 201C70.5549 188.138 81.5147 177.675 94.9842 177.675V178.721C82.1186 178.721 71.6511 188.715 71.6511 201C71.6511 205.981 73.3348 210.691 76.5199 214.62C76.985 215.196 77.4828 215.751 78.0014 216.274C78.1329 216.41 78.2752 216.551 78.4257 216.696C79.1601 217.403 79.9526 218.07 80.7812 218.676C83.5783 220.728 86.8759 222.165 90.3185 222.832C91.1091 222.986 91.926 223.102 92.7457 223.176C93.4882 223.243 94.2408 223.278 94.9842 223.278C95.2562 223.278 95.5056 223.273 95.7504 223.265C96.4585 223.244 97.1648 223.193 97.8493 223.111C101.657 222.666 105.326 221.311 108.461 219.19C108.792 218.965 109.115 218.733 109.422 218.502C109.689 218.302 109.964 218.085 110.242 217.855C111.176 217.084 112.053 216.234 112.849 215.331C116.375 211.328 118.317 206.239 118.317 201C118.317 199.905 118.233 198.805 118.067 197.73L119.152 197.579C119.325 198.703 119.414 199.855 119.414 201C119.414 206.485 117.379 211.813 113.688 216.005C112.855 216.95 111.936 217.839 110.958 218.648C110.668 218.887 110.379 219.114 110.099 219.323C109.78 219.564 109.442 219.806 109.097 220.042C105.812 222.264 101.969 223.684 97.9835 224.149C97.2663 224.235 96.5265 224.289 95.7866 224.312C95.53 224.32 95.268 224.324 94.9842 224.324" fill="currentColor"/>
<path d="M112.027 213.35C111.945 213.247 111.865 213.163 111.789 213.095C111.765 213.065 111.726 213.033 111.665 212.999C111.656 212.993 111.649 212.991 111.642 212.985L111.64 212.988C107.087 210.583 98.8688 208.624 98.8688 208.624C98.6312 208.101 98.6494 206.286 98.6838 205.201C99.537 204.257 100.309 202.778 100.742 200.474C100.88 200.571 100.985 200.347 100.985 200.347C100.909 200.217 102.138 197.353 101.917 196.707C101.792 196.342 101.536 196.384 101.338 196.489C101.367 196.323 101.397 196.15 101.428 195.968C101.428 195.968 101.915 191.576 99.586 189.129C99.3466 188.908 98.488 188.853 98.488 188.853C94.7489 187.76 92.5058 188.247 91.1014 188.822C89.0196 190.451 88.861 193.222 88.9562 194.75C88.9979 195.111 89.0414 195.474 89.0831 195.828C89.084 195.835 89.0849 195.839 89.0849 195.839C89.1021 195.978 89.1194 196.116 89.1375 196.251C88.9426 196.137 88.6878 196.083 88.5473 196.445C88.2979 197.081 89.2073 199.942 89.3207 200.119C89.3207 200.119 89.5156 200.412 89.6697 200.279V200.278C90.1004 202.791 90.8756 204.338 91.6889 205.292C91.6073 206.702 91.3434 208.466 91.2709 208.932C91.2709 208.932 91.27 208.932 91.27 208.933C89.3605 209.508 79.7861 211.94 76.8884 213.758C76.6255 213.912 76.3571 214.325 76.0869 214.94C76.5629 215.53 77.0679 216.094 77.6029 216.634C77.7452 216.779 77.8903 216.922 78.0371 217.064C78.7915 217.79 79.5966 218.468 80.4489 219.09C83.2714 221.162 86.5916 222.644 90.2101 223.344C91.0234 223.503 91.853 223.621 92.6944 223.697C93.4478 223.766 94.2121 223.801 94.9846 223.801C95.2475 223.801 95.5087 223.798 95.7689 223.788C96.4933 223.767 97.2114 223.713 97.9177 223.63C101.93 223.161 105.635 221.743 108.779 219.616C109.112 219.388 109.441 219.153 109.762 218.911C110.047 218.698 110.326 218.477 110.6 218.251C111.559 217.458 112.452 216.595 113.269 215.668C112.818 214.619 112.396 213.811 112.027 213.35" fill="currentColor"/>
<path d="M368.212 264.217H396.508V265.82H368.212V264.217Z" fill="#E2D2CA"/>
<path d="M392.716 342.933H390.237V269.994H392.716V342.933Z" fill="#706865"/>
<path d="M352.971 263.762H372.64V266.052H352.971V263.762Z" fill="#CCBDB7"/>
<path d="M359.081 265.82H366.529V244.222H359.081V265.82Z" fill="#075031"/>
<path d="M297.681 269.994H406.659V265.847H297.681V269.994Z" fill="#B59074"/>
<path d="M427.574 240.747C427.574 240.747 428.766 256.705 425.499 258.615C423.453 259.812 415.296 263.848 415.539 264.604C415.781 265.361 420.144 271.338 420.144 271.338C420.144 271.338 435.813 261.487 436.318 258.382C436.812 255.348 435.547 235.014 433.394 234.077C431.781 233.375 430.929 233.955 428.896 235.398C426.043 237.419 427.574 240.747 427.574 240.747" fill="#323657"/>
<path d="M399.017 245.304L397.636 244.815C397.636 244.815 399.358 240.955 400.109 241.048C400.975 241.156 402.057 241.43 402.057 241.43L399.017 245.304Z" fill="#EAD8CF"/>
<path d="M398.702 245.969C398.878 245.844 401.637 240.791 401.637 240.791L407.532 241.554L404.346 247.541L398.702 245.969Z" fill="#DA9B5B"/>
<path d="M408.295 332.974C408.295 332.974 408.783 336.203 408.844 336.689C408.905 337.174 414.264 336.403 414.264 336.403L414.697 332.558C414.697 332.558 408.965 332.519 408.295 332.974Z" fill="#424773"/>
<path d="M408.787 336.279C408.787 336.279 407.089 338.225 405.446 339.073C403.805 339.921 401.224 340.257 400.253 341.136C399.551 341.768 397.699 344.498 404.52 344.441C411.341 344.387 414.63 344.826 415.36 343.781C416.091 342.735 414.303 336.061 414.303 336.061C414.303 336.061 412.688 336.616 408.787 336.279" fill="#292C47"/>
<path d="M373.959 333.006C373.959 333.006 374.446 336.235 374.507 336.719C374.569 337.205 379.928 336.434 379.928 336.434L380.361 332.59C380.361 332.59 374.63 332.55 373.959 333.006" fill="#424773"/>
<path d="M374.451 336.311C374.451 336.311 372.753 338.256 371.11 339.103C369.468 339.953 363.424 340.649 362.452 341.526C361.752 342.16 360.586 344.711 370.184 344.472C377.002 344.303 380.293 344.858 381.025 343.813C381.754 342.766 379.966 336.091 379.966 336.091C379.966 336.091 378.445 336.684 374.451 336.311Z" fill="#292C47"/>
<path d="M425.583 277.193C425.583 277.193 406.097 280.342 401.696 281.002C397.296 281.662 373.435 287.33 370.451 289.057C368.074 290.433 371.697 323.459 372.542 336.059H381.94L382.622 298.262C393.901 298.532 401.948 295.743 410.161 296.934C418.375 298.125 425.222 299.818 430.441 293.134C430.441 293.134 430.634 278.653 425.583 277.193" fill="#292C47"/>
<path d="M406.378 336.089L415.537 335.549L416.429 298.262C421.284 298.378 422.949 298.084 426.878 297.629L434.273 281.218C427.792 282.455 407.027 287.455 404.259 289.057C401.882 290.434 405.532 323.489 406.378 336.089" fill="#292C47"/>
<path d="M416.613 207.459C416.613 207.459 409.47 205.574 406.746 210.868C404.02 216.162 405.255 226.199 408.856 227.143C412.456 228.088 417.632 227 419.126 223.705C420.621 220.411 421.813 215.728 421.455 212.697C421.098 209.664 418.51 208.184 416.613 207.459" fill="#EEA886"/>
<path d="M410.722 226.087C410.722 226.087 410.8 230.114 410.336 230.972C409.87 231.831 420.281 231.615 420.281 231.615C420.281 231.615 418.641 226.78 419.572 222.661C420.493 218.583 410.722 226.087 410.722 226.087" fill="#EEA886"/>
<path d="M420.131 221.136C420.131 221.136 419.576 222.216 416.88 222.041C414.186 221.867 410.631 218.762 409.487 218.485C408.343 218.208 408.275 217.587 408.275 217.587L407.67 218.614L406.498 218.785C406.498 218.785 407.294 215.674 405.559 214.578C403.823 213.483 406.34 204.66 415.128 206.788C415.128 206.788 421.833 207.961 421.924 211.537C422.015 215.112 421.433 219.242 420.131 221.136Z" fill="#3A3F47"/>
<path d="M409.787 230.868C409.787 230.868 409.816 229.228 410.595 229.071C411.374 228.913 418.779 227.941 419.735 228.3L420.145 230.465C420.145 230.465 418.303 231.547 409.787 230.868" fill="#E2D2CA"/>
<path d="M407.645 216.854C407.845 215.51 409.445 213.965 410.362 216.059C411.278 218.153 409.743 221.202 408.715 221.039C407.686 220.876 407.373 218.678 407.645 216.854Z" fill="#EEA886"/>
<path d="M378.774 250.246C378.778 250.244 378.783 250.243 378.787 250.245C378.73 250.268 378.722 250.269 378.774 250.246Z" fill="#323657"/>
<path d="M418.696 208.419C418.696 208.419 427.405 208.029 420.216 221.009L418.696 208.419Z" fill="#3A3F47"/>
<path d="M438.101 340.512L437.452 342.253L410.079 334.155L411.391 330.632L438.101 340.512" fill="#918783"/>
<path d="M409.14 332.916H412.252V304.5H409.14V332.916Z" fill="#918783"/>
<path d="M401.52 304.664H419.87V302.99H401.52V304.664Z" fill="#5E5854"/>
<path d="M383.051 340.512L383.699 342.253L411.072 334.155L409.869 330.41L383.051 340.512" fill="#918783"/>
<path d="M402.337 342.066V344.09L411.072 334.155L409.869 330.41L402.337 342.066" fill="#918783"/>
<path d="M380.493 342.933C380.493 344.282 381.637 345.376 383.051 345.376C384.464 345.376 385.608 344.282 385.608 342.933C385.608 341.583 384.464 340.491 383.051 340.491C381.637 340.491 380.493 341.583 380.493 342.933" fill="#BFB2AC"/>
<path d="M402.12 342.933C402.12 344.282 403.265 345.376 404.678 345.376C406.091 345.376 407.236 344.282 407.236 342.933C407.236 341.583 406.091 340.491 404.678 340.491C403.265 340.491 402.12 341.583 402.12 342.933" fill="#BFB2AC"/>
<path d="M435.542 342.933C435.542 344.282 436.688 345.376 438.101 345.376C439.513 345.376 440.659 344.282 440.659 342.933C440.659 341.583 439.513 340.491 438.101 340.491C436.688 340.491 435.542 341.583 435.542 342.933" fill="#BFB2AC"/>
<path d="M392.118 302.99H429.033C430.844 302.99 432.313 301.588 432.313 299.859V299.778C432.313 298.049 430.844 296.647 429.033 296.647H392.118C390.307 296.647 388.839 298.049 388.839 299.778V299.859C388.839 301.588 390.307 302.99 392.118 302.99Z" fill="#E2D2CA"/>
<path d="M311.624 342.933H314.104V269.994H311.624V342.933Z" fill="#706865"/>
<path d="M333.92 254.626H391.692C393.498 254.626 394.964 253.228 394.964 251.503V214.429C394.964 212.704 393.498 211.306 391.692 211.306H333.92C332.112 211.306 330.648 212.704 330.648 214.429V251.503C330.648 253.228 332.112 254.626 333.92 254.626" fill="currentColor"/>
<path d="M333.166 247.837H392.444V213.647H333.166V247.837" fill="#F5F7FF"/>
<path d="M333.166 216.369H392.444V213.648H333.166V216.369" fill="#CECFD6"/>
<path d="M337.383 245.732H340.481C341.599 245.732 342.505 244.867 342.505 243.798V220.348C342.505 219.28 341.599 218.415 340.481 218.415H337.383C336.265 218.415 335.358 219.28 335.358 220.348V243.798C335.358 244.867 336.265 245.732 337.383 245.732Z" fill="#CECFD6"/>
<path d="M378.825 220.944H389.675C390.279 220.944 390.768 220.478 390.768 219.901V219.458C390.768 218.881 390.279 218.414 389.675 218.414H378.825C378.221 218.414 377.731 218.881 377.731 219.458V219.901C377.731 220.478 378.221 220.944 378.825 220.944Z" fill="#CECFD6"/>
<path d="M379.989 246.429H388.51C389.757 246.429 390.768 245.464 390.768 244.272V224.797C390.768 223.607 389.757 222.641 388.51 222.641H379.989C378.742 222.641 377.731 223.607 377.731 224.797V244.272C377.731 245.464 378.742 246.429 379.989 246.429Z" fill="#CECFD6"/>
<path d="M360.731 251.117C360.731 252.212 361.66 253.098 362.806 253.098C363.952 253.098 364.88 252.212 364.88 251.117C364.88 250.023 363.952 249.136 362.806 249.136C361.66 249.136 360.731 250.023 360.731 251.117Z" fill="#59524F"/>
<path d="M349.491 265.903V265.132C349.491 265.132 350.626 260.337 358.656 260.337C366.684 260.337 366.522 265.903 366.522 265.903H349.491" fill="#314875"/>
<path d="M366.619 261.051C366.619 261.051 364.875 260.922 364.236 260.553C363.597 260.185 359.774 257.73 358.875 258.123C357.978 258.516 352.001 260.264 352.209 261.099C352.416 261.934 352.969 261.853 353.391 261.705C353.813 261.557 358.152 260.687 358.535 260.833C358.535 260.833 354.273 262.319 354.255 263.402C354.239 264.486 355.148 264.749 355.552 265.158C355.956 265.568 356.441 266.586 357.54 266.664C358.638 266.741 363.998 264.962 365.102 264.879C366.205 264.799 368.248 264.945 368.386 264.774C368.524 264.602 366.619 261.051 366.619 261.051" fill="#EEA886"/>
<path d="M398.372 233.141C403.934 232.208 409.787 230.868 409.787 230.868L420.145 230.465C420.145 230.465 429.651 232.463 433.394 234.078C433.75 234.231 433.752 242.174 434.725 244.258L431.622 250.509C431.622 250.509 429.829 262.894 429.458 268.402C429.286 270.93 429.94 292.838 429.94 292.838C429.94 292.838 429.009 293.277 421.941 294.021C414.872 294.764 397.21 293.751 397.099 292.955C396.987 292.158 400.519 263.271 400.675 261.776C400.916 259.48 399.982 248.871 399.982 248.871C398.649 250.579 395.254 258.293 391.716 261.964C389.633 264.122 379.325 265.446 377.382 265.507C373.153 265.643 365.437 266.447 365.211 266.054C365.032 265.818 364.539 259.515 365.022 259.361C365.446 259.227 379.774 258.438 383.444 256.579C384.787 255.898 388.802 247.541 388.802 247.541C388.802 247.541 395.305 234.457 398.372 233.141" fill="#323657"/>
<path d="M418.784 292.205H436.172C439.649 292.205 442.468 289.514 442.468 286.193V258.571C442.468 255.251 439.649 252.559 436.172 252.559H418.784C415.306 252.559 412.488 255.251 412.488 258.571V286.193C412.488 289.514 415.306 292.205 418.784 292.205Z" fill="#E2D2CA"/>
<path d="M417.801 301.411C422.22 301.411 425.805 299.993 428.457 297.198C434.45 290.881 433.373 279.775 433.324 279.305C433.234 278.43 432.414 277.79 431.5 277.878C430.584 277.965 429.914 278.744 430.004 279.619C430.017 279.746 430.972 289.812 425.978 295.066C423.958 297.192 421.283 298.226 417.801 298.226C416.879 298.226 416.132 298.939 416.132 299.818C416.132 300.698 416.879 301.411 417.801 301.411" fill="#E2D2CA"/>
<path d="M363.666 227.623C363.666 232.018 359.937 235.616 355.294 235.616C350.678 235.616 346.92 232.044 346.92 227.623C346.92 223.208 350.669 219.628 355.294 219.628C359.917 219.628 363.666 223.208 363.666 227.623Z" fill="#EEF0F7"/>
<path d="M360.747 232.033L360.129 234.149C359.028 234.894 357.729 235.392 356.322 235.556C356.074 235.586 355.823 235.604 355.568 235.612C355.477 235.615 355.386 235.616 355.294 235.616C355.023 235.616 354.755 235.604 354.491 235.58C354.195 235.553 353.904 235.511 353.619 235.457C352.351 235.21 351.186 234.692 350.198 233.965C350.079 233.265 349.951 232.492 349.84 231.767C350.455 231.549 352.414 230.913 353.649 230.514C353.667 230.508 353.684 230.503 353.701 230.498C353.728 230.488 353.755 230.479 353.782 230.472C353.854 230.447 353.924 230.425 353.991 230.404C354.058 230.382 354.124 230.361 354.183 230.341C354.436 230.26 354.615 230.202 354.679 230.182H354.68C354.697 230.176 354.705 230.174 354.705 230.174L354.719 230.175L356.381 230.294L356.66 230.313L356.747 230.319C356.747 230.319 356.76 230.323 356.785 230.329C356.885 230.353 357.176 230.426 357.563 230.538C357.563 230.538 357.564 230.539 357.564 230.539C358.549 230.826 360.145 231.373 360.747 232.033" fill="#D9C7C1"/>
<path d="M355.729 223.652C355.729 223.652 357.722 223.974 357.384 226.953C357.046 229.934 355.287 229.671 355.169 229.666C355.051 229.661 353.399 229.702 353.312 226.058C353.312 226.058 353.287 223.366 355.729 223.652Z" fill="#EEA987"/>
<path d="M356.602 228.803C356.602 228.803 356.534 230.028 356.655 230.296C356.776 230.562 355.055 231.407 353.984 230.445C353.984 230.445 354.201 229.106 354.133 228.632C354.066 228.158 356.602 228.803 356.602 228.803" fill="#EEA987"/>
<path d="M357.424 226.11C357.424 226.11 357.645 225.89 357.723 226.116C357.8 226.343 357.37 227.347 357.397 227.393C357.397 227.393 357.356 227.481 357.304 227.431C357.252 227.382 357.424 226.11 357.424 226.11Z" fill="#EEA987"/>
<path d="M353.336 226.031C353.336 226.031 353.123 225.801 353.035 226.025C352.949 226.249 353.268 227.251 353.307 227.312C353.307 227.312 353.375 227.415 353.43 227.37C353.484 227.323 353.336 226.031 353.336 226.031Z" fill="#EEA987"/>
<path d="M357.552 225.857C357.483 226.265 357.418 226.568 357.418 226.568L357.128 226.93C357.128 226.93 357.146 226.13 357.101 226.005C357.084 225.956 357.065 225.872 357.044 225.781C357.011 225.631 356.976 225.461 356.954 225.403C356.916 225.313 355.245 224.847 353.757 225.502C353.757 225.502 353.769 225.624 353.768 225.761C353.768 225.922 353.749 226.1 353.673 226.127C353.53 226.177 353.59 227.062 353.59 227.062L353.358 226.807C353.358 226.807 353.291 226.345 353.224 225.812C353.224 225.812 353.224 225.811 353.224 225.809C353.209 225.684 353.194 225.557 353.179 225.43C353.146 224.894 353.201 223.923 353.932 223.351C354.424 223.151 355.21 222.979 356.521 223.363C356.521 223.363 356.822 223.382 356.906 223.46C357.722 224.317 357.552 225.857 357.552 225.857" fill="#E8734D"/>
<path d="M354.27 229.267C354.27 229.267 354.588 229.689 355.328 229.674C356.066 229.657 356.388 229.29 356.388 229.29C356.388 229.29 356.038 229.988 355.324 229.98C354.611 229.974 354.27 229.267 354.27 229.267Z" fill="#C78D71"/>
<path d="M353.781 230.471C353.781 230.471 354.316 231.359 355.329 231.443C355.972 231.496 356.529 230.717 356.79 230.336C356.79 230.336 355.349 229.747 353.781 230.471" fill="#EEA987"/>
<path d="M356.605 230.054C356.605 230.054 356.198 230.564 355.329 231.11L355.869 231.904L356.79 230.335L356.605 230.054" fill="#EDDAD3"/>
<path d="M354.024 230.173C354.024 230.173 354.544 230.794 355.329 231.11L354.736 231.927L353.7 230.496L354.024 230.173Z" fill="#EDDAD3"/>
<path d="M355.33 231.11L355.793 231.781C355.793 231.781 355.306 232.044 354.854 231.765L355.33 231.11" fill="#5073AB"/>
<path d="M361.282 231.909C361.282 231.909 361.277 231.923 361.269 231.953C361.219 232.125 361.023 232.788 360.769 233.671C360.673 233.75 360.575 233.828 360.475 233.902C360.363 233.987 360.248 234.069 360.13 234.149C359.028 234.894 357.729 235.392 356.323 235.557C356.446 232.789 356.789 230.336 356.789 230.336C357.061 230.404 357.319 230.472 357.563 230.538C357.563 230.538 357.564 230.539 357.565 230.539C359.688 231.121 360.766 231.632 361.133 231.826C361.136 231.826 361.139 231.828 361.141 231.829C361.238 231.881 361.282 231.909 361.282 231.909" fill="#323657"/>
<path d="M353.619 235.457C352.351 235.21 351.186 234.691 350.198 233.964C349.899 233.746 349.617 233.509 349.352 233.254C349.3 233.205 349.249 233.154 349.199 233.104C349.053 232.509 348.956 232.121 348.949 232.096V232.095C348.949 232.095 349.985 231.445 353.649 230.512C353.649 230.512 353.649 230.512 353.649 230.514C353.649 230.593 353.651 232.838 353.619 235.457" fill="#323657"/>
<path d="M355.593 231.856C355.56 232.585 355.556 233.999 355.567 235.612C355.476 235.615 355.385 235.616 355.293 235.616C355.022 235.616 354.754 235.604 354.49 235.58C354.651 233.591 354.922 232.347 355.046 231.853C355.086 231.692 355.112 231.612 355.112 231.612L355.603 231.69C355.6 231.741 355.596 231.796 355.593 231.856" fill="#5073AB"/>
<path d="M361.704 232.764C361.418 233.09 361.105 233.393 360.768 233.671C360.672 233.749 360.574 233.827 360.475 233.902C360.477 233.892 360.956 232.562 361.282 231.908C361.503 232.049 361.603 232.529 361.704 232.764" fill="#323657"/>
<path d="M349.351 233.254C349.299 233.205 349.249 233.154 349.199 233.104C349.011 232.914 348.834 232.716 348.667 232.509C348.762 232.294 348.856 232.149 348.949 232.095V232.096L349.351 233.254" fill="#323657"/>
<path d="M293.093 329.233C293.093 329.233 292.002 327.53 290.506 326.866C289.01 326.202 285.944 328.52 285.676 329.809L282.122 334.76L282.794 335.201L284.692 332.558C283.4 335.526 281.554 339.079 282.851 340.865C284.59 343.263 288.538 345.687 289.58 345.267C290.623 344.848 290.414 337.876 290.414 337.876C289.289 331.722 293.093 329.233 293.093 329.233" fill="#1D3B54"/>
<path d="M293.094 329.233C293.094 329.233 291.798 331.611 291.133 333.457C290.468 335.303 290.343 340.416 289.923 340.77C289.503 341.124 286.198 339.532 285.755 337.62C285.314 335.709 286.655 331.888 287.932 329.879C289.209 327.87 290.507 326.865 290.507 326.865C290.507 326.865 292.761 327.284 293.094 329.233" fill="#DE9673"/>
<path d="M305.857 284.431C305.857 284.431 303.831 294.694 303.831 297.149C303.831 299.604 303.131 303.62 301.495 306.594C299.859 309.57 292.681 329.894 292.058 332.263C291.435 334.628 290.901 336.865 290.901 336.865C290.901 336.865 287.317 335.303 287.317 333.071C287.317 330.841 290.435 312.396 290.979 308.752C291.524 305.108 296.042 286.439 296.042 286.439L305.857 284.431" fill="#DE9673"/>
<path d="M294.406 283.762C294.406 283.762 295.107 292.315 295.029 294.546C294.951 296.777 293.861 301.835 293.861 303.174C293.861 304.512 293.86 332.251 295.022 335.598C296.185 338.943 291.758 336.642 291.758 336.642C291.758 336.642 284.047 318.397 284.047 310.785C284.047 303.174 284.981 299.381 284.435 294.546C283.891 289.711 281.467 283.348 281.467 283.348L294.406 283.762" fill="#EEA886"/>
<path d="M282.741 242.593C282.741 242.593 278.596 247.442 277.505 253.913C276.415 260.383 278.796 272.585 279.643 276.115C280.386 279.212 281.807 289.128 281.885 290.169C281.885 290.169 295.823 291.676 306.417 288.478C306.417 288.478 307.386 274.63 308.009 268.754C308.632 262.879 305.591 243.038 305.591 243.038L282.741 242.593Z" fill="#EB4747"/>
<path d="M298.679 344.035C293.687 339.872 295.022 335.597 295.022 335.597C295.022 335.597 293.026 334.92 291.406 335.306C289.785 335.693 288.917 339.383 289.565 340.563L290.069 346.625L290.892 346.561L290.624 343.326C291.587 346.449 292.502 350.371 294.716 350.989C297.687 351.819 302.412 351.327 302.954 350.363C303.495 349.398 298.679 344.035 298.679 344.035" fill="#1D3B54"/>
<path d="M301.609 197.274C301.609 197.274 300.373 204.294 301.44 206.652C302.507 209.01 295.771 203.895 295.771 203.895C295.771 203.895 298.566 196.161 301.609 197.274" fill="#754836"/>
<path d="M299.118 177.769C299.118 177.769 288.305 175.406 286.959 186.438C285.612 197.469 290.476 198.854 287.184 206.33C283.89 213.806 295.224 203.895 295.224 203.895L299.118 177.769" fill="#754836"/>
<path d="M298.186 177.609C300.962 177.556 307.07 179.053 307.812 186.093C307.812 186.093 307.533 187.977 307.009 189.45C306.485 190.923 307.749 195.341 307.379 195.547C307.009 195.753 305.498 195.989 305.498 195.989C305.498 195.989 303.739 200.731 301.981 200.643C300.222 200.555 293.601 199.062 290.639 193.023C287.677 186.985 286.977 177.826 298.186 177.609" fill="#EEA886"/>
<path d="M267.942 264.952C267.942 264.952 268.201 260.706 269.379 260.048C270.556 259.389 269.875 260.703 269.875 260.703C269.875 260.703 269.214 263.783 269.068 265.031C269.06 265.092 267.942 264.952 267.942 264.952" fill="#1D3B54"/>
<path d="M273.392 255.396C273.392 255.396 273.72 257.298 274.324 259.134C274.927 260.968 275.483 261.553 275.242 262.604C275.059 263.398 274.118 263.993 273.881 263.739C273.644 263.484 273.528 260.399 272.19 260.414C270.851 260.428 272.59 264.235 271.793 263.954C270.996 263.675 267.928 262.071 268.121 260.516C268.314 258.96 269.542 257.837 269.463 255.513C269.391 253.406 270.078 252.525 270.078 252.525L273.392 255.396" fill="#EEA886"/>
<path d="M272.322 260.284C272.322 260.284 274.105 260.72 273.999 266.478L271.98 266.156C271.98 266.156 272.017 262.974 271.414 261.239C271.414 261.239 271.517 260.112 272.322 260.284" fill="#1D3B54"/>
<path d="M279.724 267.777L264.002 263.519L264.048 282.007L279.695 290.961L279.724 267.777" fill="#EDDAD3"/>
<path d="M279.695 290.961L277.725 291.307L262.507 282.271L262.695 263.602L264.002 263.518L279.695 290.961" fill="#EDDAD3"/>
<path d="M299.682 203.544C299.682 203.544 303.873 205.187 304.621 205.687C305.369 206.187 306.867 211.975 307.24 212.476C307.615 212.976 311.23 217.267 310.729 220.747C310.338 223.481 308.719 224.927 307.67 225.999C306.623 227.071 305.653 232.841 305.324 233.698C304.996 234.555 306.04 245.812 306.04 245.812C306.04 245.812 293.743 250.382 282.741 242.593C282.741 242.593 284.938 235.057 284.938 233.698C284.938 232.341 283.517 222.765 279.699 217.12C275.882 211.475 280.373 205.472 283.292 204.759C286.21 204.043 291.823 202.043 291.823 202.043L299.682 203.544" fill="#EB4747"/>
<path d="M286.266 203.906C286.266 203.906 280.111 203.544 277.024 206.974C273.937 210.404 274.106 214.477 273.319 216.245C272.533 218.013 270.737 225.623 270.344 226.857C269.952 228.089 269.569 235.018 269.007 240.591C268.446 246.165 268.559 256.573 268.559 256.573L274.448 255.553C274.448 255.553 274.685 245.631 274.835 239.88C274.985 234.126 279.886 223.963 281.739 219.514C283.591 215.066 290.966 206.697 286.266 203.906" fill="#EB4747"/>
<path d="M304.01 205.363C304.01 205.363 306.718 205.526 308.008 208.099C309.299 210.672 309.793 212.811 310.13 213.454C310.466 214.098 315.137 222.569 315.417 224.445C315.698 226.32 315.249 229.751 312.779 230.662C310.309 231.572 301.441 231.68 301.441 231.68C301.441 231.68 303.686 227.324 301.61 225.073C301.61 225.073 308.045 223.963 309.568 223.816C311.176 223.662 301.971 207.291 304.01 205.363" fill="#EB4747"/>
<path d="M289.266 212.635L301.259 239.377L316.209 232.652L305.152 206.972L289.266 212.635" fill="#1D3B54"/>
<path d="M296.145 225.774C296.145 225.774 294.522 226.186 294.008 226.258C293.494 226.328 294.13 227.238 294.761 227.265C295.391 227.292 296.145 225.774 296.145 225.774Z" fill="#EEA886"/>
<path d="M297.236 233.383C297.236 233.383 297.989 233.348 298.31 233.179C298.31 233.179 298.871 232.828 299.284 232.602C299.416 232.531 299.533 232.471 299.612 232.441C299.944 232.312 300.712 232.124 301.418 231.6C302.121 231.078 304.415 228.992 304.415 228.992L302.899 226.809L301.728 225.073C301.728 225.073 296.799 225.202 296.084 225.617C296.014 225.657 295.947 225.701 295.886 225.746C295.316 226.152 295.071 226.685 294.797 226.93C294.697 227.021 293.767 227.99 293.823 228.379C293.901 228.919 294.184 229.263 294.537 229.424C294.537 229.424 294.738 230.475 295.311 230.94C295.311 230.94 295.463 231.915 296.351 232.299C296.351 232.299 296.622 233.272 297.236 233.383" fill="#EEA886"/>
<path d="M301.609 225.073C301.609 225.073 308.91 223.828 310.926 223.624C310.926 223.624 311.064 221.178 310.696 219.105C310.327 217.032 308.544 214.251 308.544 214.251L312.278 217.516C312.278 217.516 315.348 223.132 315.417 224.446C315.485 225.758 315.85 227.786 314.034 229.841C312.217 231.895 303.643 230.955 303.643 230.955C303.643 230.955 304.359 228.434 301.609 225.073" fill="#EB4747"/>
<path d="M299.362 199.524C299.362 199.524 299.127 200.189 298.852 201.178C298.71 201.683 298.56 202.273 298.425 202.9C298.054 204.639 297.806 206.674 298.241 208.045C298.241 208.045 294.312 209.228 291.394 203.896C291.394 203.896 292.881 198.275 291.267 194.8C289.653 191.326 299.362 199.524 299.362 199.524" fill="#EEA886"/>
<path d="M307.811 186.093C307.811 186.093 303.224 188.9 298.741 189.372C294.257 189.843 291.763 196.317 291.763 196.317C291.763 196.317 284.715 185.837 290.391 179.397C296.067 172.955 309.023 177.943 307.811 186.093Z" fill="#754836"/>
<path d="M296.89 189.124C296.89 188.298 295.964 187.034 294.515 188.124C293.065 189.213 294.854 193.189 296.026 192.836C297.198 192.483 296.89 189.979 296.89 189.124" fill="#EEA886"/>
<path d="M299.928 203.642C299.928 203.642 301.776 208.85 297.455 208.822C293.132 208.796 291.252 205.551 290.018 202.672C290.018 202.672 292.01 201.749 292.935 201.615C293.862 201.48 299.928 203.642 299.928 203.642" fill="#EEA886"/>
<path d="M274.003 266.227L271.976 266.478L271.977 265.575L274.003 266.227Z" fill="#1D3B54"/>
<path d="M269.085 264.895L267.964 265.022C267.964 265.022 267.961 264.7 267.971 264.594C267.981 264.486 269.046 264.828 269.085 264.895Z" fill="#1D3B54"/>
<path d="M295.022 335.599C295.022 335.599 295.59 338.26 296.297 340.119C297.005 341.977 300.317 346.079 300.223 346.614C300.129 347.149 296.462 347.906 294.84 346.669C293.217 345.432 291.723 341.606 291.388 339.247C291.053 336.888 291.23 335.367 291.23 335.367C291.23 335.367 293.46 334.265 295.022 335.599" fill="#EEA886"/>
<path d="M299.201 200.063C299.06 200.568 298.852 201.177 298.69 201.779C295.142 199.491 293.442 196.775 293.442 196.775C295.455 198.614 299.201 200.063 299.201 200.063Z" fill="#A77860"/>
<path class="placeholder" d="M134.777 99.8483H176.592C179.999 99.8483 182.762 102.486 182.762 105.739V121.878C182.762 125.131 179.999 127.769 176.592 127.769H134.777C131.369 127.769 128.607 125.131 128.607 121.878V105.739C128.607 102.486 131.369 99.8483 134.777 99.8483Z" fill="#DFE1E8"/>
<path d="M100.743 240.044C100.74 240.043 100.735 240.042 100.729 240.043C100.787 240.067 100.796 240.07 100.743 240.044Z" fill="#323657"/>
<path d="M74.9827 235.592H114.987C116.1 235.592 117.003 234.73 117.003 233.666V232.493C117.003 231.429 116.1 230.567 114.987 230.567H74.9827C73.8684 230.567 72.9653 231.429 72.9653 232.493V233.666C72.9653 234.73 73.8684 235.592 74.9827 235.592Z" fill="currentColor"/>
<path d="M74.9827 244.655H114.987C116.1 244.655 117.003 243.792 117.003 242.729V241.556C117.003 240.492 116.1 239.63 114.987 239.63H74.9827C73.8684 239.63 72.9653 240.492 72.9653 241.556V242.729C72.9653 243.792 73.8684 244.655 74.9827 244.655Z" fill="currentColor"/>
<path d="M74.9827 253.717H114.987C116.1 253.717 117.003 252.855 117.003 251.792V250.617C117.003 249.555 116.1 248.692 114.987 248.692H74.9827C73.8684 248.692 72.9653 249.555 72.9653 250.617V251.792C72.9653 252.855 73.8684 253.717 74.9827 253.717Z" fill="currentColor"/>
<path d="M142.268 211.19H132.712C130.637 211.19 128.955 209.585 128.955 207.603V179.401C128.955 177.42 130.637 175.814 132.712 175.814H142.268C144.342 175.814 146.025 177.42 146.025 179.401V207.603C146.025 209.585 144.342 211.19 142.268 211.19Z" fill="currentColor"/>
<path d="M39.5344 274.514C39.5344 274.514 40.19 275.539 40.2717 276.377C40.3369 277.04 40.9209 278.031 41.1734 278.578C41.4263 279.125 42.2395 281.602 42.2689 282.246C42.2809 282.509 41.665 284.17 41.7522 284.701C41.8393 285.232 42.1577 286.284 41.6583 286.354C41.1586 286.425 40.5923 285.561 40.5923 285.561C40.5923 285.561 40.6394 286.051 40.2169 286.237C39.3948 286.601 38.9595 286.281 38.9595 286.281C38.9595 286.281 38.6564 286.819 38.276 286.892C37.4367 287.051 37.0258 286.73 37.0258 286.73C37.0258 286.73 36.6557 287.031 36.0763 287.021C35.3343 287.007 35.0227 286.395 35.0227 286.395C35.0227 286.395 34.083 286.577 33.811 286.159C33.5386 285.74 33.5858 285.294 33.4728 284.915C33.3598 284.535 33.4452 281.111 34.6635 278.645C35.8818 276.181 34.3536 273.775 34.3536 273.775L39.5344 274.514" fill="#EEA886"/>
<path d="M40.7245 285.24C40.7245 285.24 40.8081 282.168 39.9613 281.515C39.1142 280.859 39.0178 281.969 39.0178 281.969C39.0178 281.969 39.133 280.872 38.2075 280.725C37.2821 280.577 37.2431 281.879 37.2431 281.879C37.2431 281.879 37.0915 281.034 36.1193 281.207C35.1472 281.38 35.3787 282.459 35.3787 282.459C35.3787 282.459 34.4505 281.402 33.8481 282.417C32.8309 284.132 33.8112 286.158 33.8112 286.158C33.8112 286.158 34.0981 286.622 35.0229 286.394C35.0229 286.394 35.6419 287.585 37.026 286.729C37.026 286.729 38.443 287.474 38.9597 286.28C38.9597 286.28 40.5224 286.989 40.7245 285.24" fill="#DB9C7C"/>
<path d="M50.4503 230.257C50.4503 230.257 44.9415 247.786 43.0804 254.252C42.4967 256.281 41.0843 275.646 40.8349 276.426C40.5852 277.205 33.5986 278.273 33.5986 278.273C33.5986 278.273 34.4451 254.047 34.5241 252.726C34.603 251.404 42.2332 224.349 44.4525 223.384C46.1148 222.661 46.9921 223.26 49.0874 224.745C52.0273 226.829 50.4503 230.257 50.4503 230.257Z" fill="#323657"/>
<path d="M104.782 206.597L104.169 205.702L116.777 197.823L117.39 198.717L104.782 206.597Z" fill="#4DA8F2"/>
<path d="M118.735 202.352C118.735 202.352 118.615 203.033 118.409 203.307C118.409 203.307 117.997 203.776 117.724 204.127C117.639 204.238 117.567 204.338 117.528 204.406C117.361 204.693 117.086 205.371 116.485 205.952C115.886 206.533 113.546 208.383 113.546 208.383L111.543 206.759L109.462 205.869C109.462 205.869 110.627 201.034 111.12 200.43C111.169 200.372 111.219 200.315 111.271 200.266C111.741 199.793 112.299 199.631 112.575 199.41C112.677 199.329 113.748 198.593 114.129 198.688C114.658 198.819 114.969 199.115 115.091 199.454C115.091 199.454 116.116 199.754 116.515 200.329C116.515 200.329 117.47 200.578 117.754 201.426C117.754 201.426 118.693 201.783 118.735 202.352" fill="#EFAA88"/>
<path d="M45.9806 349.943C45.9806 349.943 45.4784 353.27 45.4158 353.771C45.3527 354.27 39.8298 353.476 39.8298 353.476L39.3828 349.514C39.3828 349.514 45.29 349.474 45.9806 349.943" fill="#424773"/>
<path d="M45.4746 353.348C45.4746 353.348 47.2241 355.354 48.9167 356.227C50.6093 357.101 53.2691 357.448 54.269 358.351C54.9916 359.005 56.901 361.816 49.8715 361.76C42.8428 361.703 39.4534 362.157 38.7 361.079C37.9471 360.001 39.7902 353.122 39.7902 353.122C39.7902 353.122 41.4547 353.695 45.4746 353.348" fill="#292C47"/>
<path d="M85.5527 349.943C85.5527 349.943 85.0514 353.27 84.9888 353.771C84.9262 354.27 79.4028 353.476 79.4028 353.476L78.9558 349.514C78.9558 349.514 84.8628 349.474 85.5527 349.943" fill="#424773"/>
<path d="M85.0464 353.348C85.0464 353.348 86.7963 355.354 88.489 356.227C90.1818 357.101 96.4097 357.819 97.4106 358.724C98.1332 359.377 99.3346 362.006 89.4437 361.76C82.417 361.585 79.0261 362.157 78.2727 361.079C77.5201 360.001 79.3625 353.122 79.3625 353.122C79.3625 353.122 80.931 353.733 85.0464 353.348Z" fill="#292C47"/>
<path d="M50.5538 264.435C50.5538 264.435 45.3642 272.307 45.7517 279.423C46.1384 286.539 43.87 294.309 43.0905 301.743C42.2213 310.03 38.6648 329.649 38.5355 334.082C38.4066 338.516 39.0873 352.671 39.0873 352.671L46.2071 352.826C46.2071 352.826 52.1865 318.528 53.7357 315.028C55.2842 311.528 62.9637 286.577 63.2221 283.777C63.4796 280.978 50.5538 264.435 50.5538 264.435" fill="#292C47"/>
<path d="M77.8723 265.502C77.8723 265.502 81.7836 285.006 82.2995 289.361C82.8154 293.717 83.16 310.438 83.4174 313.16C83.6758 315.883 85.8292 348.7 86.5155 352.826H77.4135C77.4135 352.826 70.4267 328.91 70.4267 317.593C70.4267 306.278 65.0284 292.993 61.5441 285.527C58.0597 278.061 50.0844 277.884 47.9424 264.031C47.9424 264.031 74.9727 261.108 77.8723 265.502" fill="#292C47"/>
<path d="M59.2138 198.249C59.2138 198.249 66.1789 195.764 69.3912 200.827C72.6026 205.889 72.2935 216.024 68.7819 217.271C65.2713 218.517 59.9963 217.865 58.1993 214.698C56.4023 211.531 54.7793 206.95 54.8564 203.89C54.9344 200.829 57.3851 199.132 59.2138 198.249Z" fill="#EEA886"/>
<path d="M68.0257 217.503C68.0257 217.503 67.7365 219.298 68.2152 220.184C68.6949 221.067 59.1911 221.091 59.1911 221.091C59.1911 221.091 58.4196 216.28 56.9571 212.214C55.4946 208.15 68.0257 217.503 68.0257 217.503" fill="#EEA886"/>
<path d="M56.957 212.214C56.957 212.214 57.6125 213.248 60.2899 212.847C62.9673 212.445 66.2341 209.046 67.352 208.671C68.4699 208.298 68.4799 207.671 68.4799 207.671L69.1798 208.648L70.3676 208.72C70.3676 208.72 69.285 205.677 70.9179 204.437C72.5517 203.196 69.2224 194.589 60.6363 197.455C60.6363 197.455 54.0412 199.189 54.2805 202.771C54.5208 206.352 55.481 210.431 56.957 212.214" fill="#D88A51"/>
<path d="M68.7788 220.076C68.7788 220.076 68.7489 218.386 67.9465 218.224C67.1441 218.063 59.0901 217.322 58.1055 217.692V219.661C58.1055 219.661 60.0031 220.776 68.7788 220.076" fill="#E2D2CA"/>
<path d="M68.3027 206.368C68.1521 205.767 66.5528 204.051 65.9399 205.889C65.327 207.726 66.8656 210.199 67.7233 209.987C68.581 209.775 68.6826 207.891 68.3027 206.368" fill="#EEA886"/>
<path d="M82.1005 222.637C76.5789 221.941 68.7797 220.077 68.7797 220.077L58.1064 219.661C58.1064 219.661 48.3104 221.721 44.4529 223.385C44.0866 223.543 44.0852 231.729 43.0808 233.875L46.2793 240.318C46.2793 240.318 48.1273 253.081 48.5105 258.758C48.6869 261.362 44.6997 283.19 44.6997 283.19C44.6997 283.19 48.9713 284.391 56.2559 285.158C63.541 285.924 81.7415 284.881 81.8557 284.059C81.9708 283.238 78.3315 253.47 78.1701 251.928C77.9226 249.561 79.0242 236.99 79.0242 236.99C80.706 235.744 95.4739 229.199 99.5022 225.789C100.58 224.875 105.131 220.645 106.425 219.184C111.005 214.013 114.761 209.576 115.217 208.62C115.736 208.076 110.24 205.222 109.742 205.064C109.305 204.925 103.113 212.585 100.73 215.05C99.6672 216.149 95.2499 219.218 95.2499 219.218C95.2499 219.218 85.5549 222.826 82.1005 222.637Z" fill="#323657"/>
<path d="M57.2298 198.847C57.2298 198.847 48.3479 199.511 56.9569 212.214L57.2298 198.847Z" fill="#D88A51"/>
<path class="placeholder" d="M117.391 198.716L118.12 197.655L116.778 197.822L117.391 198.716Z" fill="#DFE1E8"/>
</svg>
