<svg viewBox="120 2 45 18" fill="none" xmlns="http://www.w3.org/2000/svg">
<path d="M286.366 3.91406L282.892 19.2369L273.477 6.64348C277.887 6.05754 282.192 5.13961 286.366 3.91406Z" fill="#FF709D"/>
<path d="M268.594 7.15039V21.4329L262 16.3265L255.407 21.4329V7.15039C257.583 7.31504 259.783 7.39801 262 7.39801C264.218 7.39801 266.417 7.31504 268.594 7.15039Z" fill="#FE5D26"/>
<path d="M250.524 6.64348L241.109 19.237L237.634 3.91406C241.808 5.13961 246.113 6.05754 250.524 6.64348Z" fill="#E60048"/>
<path d="M262 8.35491C251.922 8.35491 242.042 6.65405 232.636 3.29944C232.138 3.1219 231.878 2.57405 232.056 2.07612C232.234 1.57819 232.781 1.31804 233.279 1.49593C242.479 4.77647 252.141 6.44007 262 6.44007C271.859 6.44007 281.522 4.77671 290.721 1.49593C291.219 1.31827 291.766 1.57796 291.944 2.07612C292.122 2.57417 291.862 3.1219 291.364 3.29944C281.958 6.65394 272.078 8.35491 262 8.35491Z" fill="#9AD6D4"/>
<path d="M107.366 3.91406L103.892 19.2369L94.4767 6.64348C98.8873 6.05754 103.192 5.13961 107.366 3.91406Z" fill="#FF709D"/>
<path d="M89.5937 7.15039V21.4329L83.0002 16.3265L76.4066 21.4329V7.15039C78.5831 7.31504 80.7828 7.39801 83.0002 7.39801C85.2176 7.39801 87.4172 7.31504 89.5937 7.15039Z" fill="#FE5D26"/>
<path d="M71.5236 6.64348L62.1088 19.237L58.6339 3.91406C62.8084 5.13961 67.113 6.05754 71.5236 6.64348Z" fill="#E60048"/>
<path d="M83.0001 8.35491C72.9219 8.35491 63.0424 6.65405 53.6361 3.29944C53.1381 3.1219 52.8782 2.57405 53.0559 2.07612C53.2336 1.57819 53.7812 1.31804 54.2793 1.49593C63.4786 4.77647 73.1415 6.44007 83 6.44007C92.8585 6.44007 102.522 4.77671 111.721 1.49593C112.219 1.31827 112.766 1.57796 112.944 2.07612C113.122 2.57417 112.862 3.1219 112.364 3.29944C102.958 6.65394 93.0785 8.35491 83.0001 8.35491Z" fill="#9AD6D4"/>
<path d="M142 8.87579C131.922 8.87579 122.042 7.17505 112.636 3.82056C112.138 3.6429 111.878 3.09517 112.056 2.59724C112.234 2.09919 112.781 1.83903 113.279 2.01704C122.479 5.29759 132.141 6.96095 142 6.96095C151.858 6.96095 161.522 5.29759 170.721 2.01704C171.219 1.83892 171.766 2.09907 171.944 2.59724C172.122 3.09528 171.862 3.64302 171.364 3.82056C161.958 7.17505 152.078 8.87579 142 8.87579Z" fill="#9AD6D4"/>
<path d="M164.732 4.96094L161.258 20.2838L151.841 7.68894C156.252 7.1043 160.558 6.18637 164.732 4.96094Z" fill="#FF3776"/>
<path d="M146.96 8.1958V22.4796L140.366 17.3732L133.773 22.4796V8.1958C135.949 8.36045 138.149 8.44342 140.366 8.44342C142.584 8.44342 144.783 8.36045 146.96 8.1958Z" fill="#FE841A"/>
<path d="M128.891 7.68894L119.475 20.2838L116 4.96094C120.174 6.18637 124.48 7.1043 128.891 7.68894Z" fill="#57BAB7"/>
<path d="M226.374 4.43359L229.341 18.3879L221.829 14.7637L216.442 21.13L213.473 7.16418C217.887 6.57824 222.197 5.66043 226.374 4.43359Z" fill="#459492"/>
<path d="M208.594 7.6709L202 21.9547L195.407 7.6709C197.583 7.83555 199.783 7.91852 202 7.91852C204.218 7.91852 206.417 7.83555 208.594 7.6709Z" fill="#FFD102"/>
<path d="M190.527 7.16418L187.558 21.13L182.171 14.7637L174.659 18.3879L177.626 4.43359C181.803 5.66043 186.113 6.57824 190.527 7.16418Z" fill="#FFD3C7"/>
<path d="M202 8.87575C191.922 8.87575 182.042 7.175 172.636 3.82051C172.138 3.64285 171.878 3.09512 172.056 2.59719C172.234 2.09903 172.781 1.83899 173.279 2.017C182.479 5.29754 192.141 6.9609 202 6.9609C211.858 6.9609 221.522 5.29754 230.721 2.017C231.219 1.83899 231.766 2.09903 231.944 2.59719C232.122 3.09524 231.862 3.64297 231.364 3.82051C221.958 7.17489 212.078 8.87575 202 8.87575Z" fill="#9AD6D4"/>
<path d="M48.374 4.43359L51.3408 18.3879L43.8294 14.7637L38.4422 21.13L35.4729 7.16418C39.8872 6.57824 44.197 5.66043 48.374 4.43359Z" fill="#459492"/>
<path d="M30.5937 7.6709L24.0002 21.9547L17.4066 7.6709C19.5831 7.83555 21.7828 7.91852 24.0002 7.91852C26.2176 7.91852 28.4172 7.83555 30.5937 7.6709Z" fill="#FFD102"/>
<path d="M12.5274 7.16418L9.55813 21.13L4.17091 14.7637L-3.34058 18.3879L-0.37374 4.43359C3.80329 5.66043 8.11298 6.57824 12.5274 7.16418Z" fill="#FFD3C7"/>
<path d="M24.0001 8.87575C13.9218 8.87575 4.04234 7.175 -5.36394 3.82051C-5.86199 3.64285 -6.12168 3.09512 -5.94414 2.59719C-5.76648 2.09903 -5.21887 1.83899 -4.7207 2.017C4.47852 5.29754 14.1414 6.9609 24 6.9609C33.8585 6.9609 43.5215 5.29754 52.7206 2.017C53.2189 1.83899 53.7663 2.09903 53.9441 2.59719C54.1216 3.09524 53.8618 3.64297 53.3639 3.82051C43.9578 7.17489 34.0784 8.87575 24.0001 8.87575Z" fill="#9AD6D4"/>
</svg>
