<svg width="418" height="350" viewBox="0 30 418 398" fill="none" xmlns="http://www.w3.org/2000/svg">
<g clip-path="url(#clip0_304_18647)">
<path d="M222.609 76.3611C222.609 76.3611 193.628 82.5086 187.48 114.124C181.333 145.741 205.923 167.696 241.052 166.819C241.052 166.819 290.233 168.575 305.163 200.191C320.092 231.808 357.856 223.024 367.517 191.409C377.178 159.793 364.003 109.734 322.728 91.2903C281.451 72.8478 249.834 71.0911 222.609 76.3611Z" fill="currentColor"/>
<path d="M51.3545 238.833C51.3545 238.833 69.7972 206.339 119.857 215.999C169.915 225.66 184.845 268.693 226.122 267.815C267.398 266.937 318.336 250.249 338.536 275.719C358.734 301.187 342.048 352.124 280.573 348.612C219.096 345.099 218.218 321.387 183.967 330.169C149.716 338.951 128.638 357.395 77.7015 340.708C26.7637 324.022 37.3028 259.91 51.3545 238.833Z" fill="currentColor"/>
<path d="M48.1436 357.652C48.1436 359.749 68.3916 361.449 93.3675 361.449C118.344 361.449 138.592 359.749 138.592 357.652C138.592 355.554 118.344 353.854 93.3675 353.854C68.3916 353.854 48.1436 355.554 48.1436 357.652" fill="currentColor"/>
<path d="M94.314 158.503H77.9849C76.6961 158.503 75.6519 157.459 75.6519 156.169C75.6519 154.881 76.6961 153.837 77.9849 153.837H94.314V158.503Z" fill="#355F9E"/>
<path d="M86.41 162.647H63.3567C61.5381 162.647 60.0635 161.172 60.0635 159.354C60.0635 157.534 61.5381 156.06 63.3567 156.06H86.41V162.647Z" fill="#2C3D79"/>
<path d="M107.195 162.647H84.1417C82.3226 162.647 80.8484 161.172 80.8484 159.354C80.8484 157.534 82.3226 156.06 84.1417 156.06H107.195V162.647" fill="#A5E2EC"/>
<path d="M86.5199 159.299C86.5199 160.481 85.5616 161.439 84.3791 161.439C83.1972 161.439 82.2385 160.481 82.2385 159.299C82.2385 158.116 83.1972 157.158 84.3791 157.158C85.5616 157.158 86.5199 158.116 86.5199 159.299Z" fill="#5E8DD1"/>
<path d="M65.2595 166.672L66.2842 163.159L63.6595 160.534C63.128 160.003 62.9915 159.193 63.3194 158.516L65.1136 154.816L72.7246 154.523L74.6276 156.426L72.139 157.012L71.1143 161.256C71.1143 161.256 71.6999 162.573 71.6999 163.013C71.6999 163.452 70.529 168.136 70.529 168.136L65.2595 166.672" fill="#F5775B"/>
<path d="M63.2102 159.499L69.9433 161.11L72.7245 160.232L73.749 162.574L71.6998 163.013L67.1624 163.305L63.2102 159.499Z" fill="#F35E4E"/>
<path d="M74.6276 156.426L72.7246 154.523L70.3828 155.84" stroke="#E74D4D" stroke-width="0.616775" stroke-miterlimit="10"/>
<path d="M72.7246 154.523L68.0407 154.816L67.3086 155.402" stroke="#E74D4D" stroke-width="0.616775" stroke-miterlimit="10"/>
<path d="M69.9434 161.11L72.7246 160.232C72.7246 160.232 74.3347 158.475 75.3594 158.768C76.3838 159.061 76.5303 159.793 76.5303 159.793L73.749 162.574L70.0899 163.744L69.9434 161.11Z" fill="#F5775B"/>
<path d="M71.261 155.84L65.1135 154.816L63.2102 159.499L66.2841 163.159" stroke="#E74D4D" stroke-width="0.616775" stroke-miterlimit="10"/>
<path d="M76.5304 159.793C76.5304 159.793 75.4327 158.475 74.4448 158.804C73.4568 159.134 72.7247 160.232 72.7247 160.232L70.822 160.561" stroke="#E74D4D" stroke-width="0.616775" stroke-miterlimit="10"/>
<path d="M63.3567 169.453L65.1135 165.354C65.1135 165.354 68.4798 165.209 71.261 166.964L69.9433 171.063L63.3567 169.453Z" fill="#E1E2EB"/>
<path d="M109.891 345.362C109.891 345.362 108.931 343.306 105.367 343.854C101.804 344.403 101.393 345.088 100.981 346.87C100.571 348.651 99.3373 350.57 98.5148 350.981C97.6923 351.392 94.6773 353.448 92.2098 353.859C89.7423 354.271 89.469 355.778 90.0165 356.463C90.5648 357.149 99.8848 357.698 101.941 357.423C101.941 357.423 108.931 357.287 110.576 356.737C112.221 356.189 110.028 346.047 109.891 345.362" fill="#191825"/>
<path d="M92.0333 345.362C92.0333 345.362 91.0741 343.306 87.5108 343.854C83.9466 344.403 83.5358 345.088 83.1243 346.87C82.7135 348.651 81.4798 350.57 80.6575 350.981C79.8352 351.392 76.8196 353.448 74.3525 353.859C71.8854 354.271 71.6113 355.778 72.1598 356.463C72.7076 357.149 82.028 357.698 84.0841 357.423C84.0841 357.423 91.0741 357.287 92.7191 356.737C94.3633 356.189 92.1708 346.047 92.0333 345.362Z" fill="#191825"/>
<path d="M113.19 294.329C113.19 294.329 114.233 288.653 108.238 286.748C102.244 284.843 101.109 287.613 99.295 292.789C97.4809 297.967 100.828 346.855 100.828 346.855C100.828 346.855 108.133 347.022 109.903 345.977C109.903 345.977 114.786 313.536 114.42 305.635C114.054 297.734 113.19 294.329 113.19 294.329" fill="#272135"/>
<path d="M91.8784 148.874C91.8784 148.874 87.8226 149.911 85.5259 156.138C83.2282 162.365 84.7601 175.596 86.2917 177.153C87.8226 178.71 92.4751 178.115 98.9259 175.985C105.742 173.735 108.045 166.65 109.263 161.975C111.596 153.025 103.813 143.815 91.8784 148.874Z" fill="#F5775B"/>
<path d="M106.422 183.243L103.133 171.455C103.133 171.455 96.554 169.536 92.4424 173.923L91.0715 175.841V183.517C91.0715 183.517 97.9249 184.888 106.422 183.243" fill="#F5775B"/>
<path d="M115.606 246.703C115.606 246.703 118.072 261.094 115.606 277.54C113.138 293.989 108.204 295.633 103.681 295.633C99.1582 295.633 97.9249 282.474 97.1024 276.719C96.2799 270.962 92.9899 251.224 99.1582 246.703C105.326 242.179 112.316 241.768 115.606 246.703Z" fill="#272135"/>
<path d="M98.3359 266.028C98.3359 266.028 103.27 252.87 94.635 247.114C86.0009 241.357 79.4213 242.179 77.3656 251.636C75.3096 261.094 74.8981 293.577 77.7767 300.156C80.655 306.735 90.935 296.455 98.3359 266.028Z" fill="#272135"/>
<path d="M108.163 183.18C108.163 183.18 107.245 179.953 106.423 179.679C105.6 179.405 95.4575 178.309 89.975 181.598C87.5084 183.517 87.7817 184.888 87.7817 184.888C87.7817 184.888 104.148 181.748 108.163 183.18" fill="#E1E2EB"/>
<path d="M76.3106 207.436C76.3106 207.436 73.366 244.485 74.1882 258.739C75.2849 261.481 98.1609 262.234 101.999 261.959C105.837 261.686 118.411 258.977 118.685 258.154C118.959 257.331 116.291 220.798 116.839 216.959C117.388 213.123 119.032 194.208 118.484 191.466C117.936 188.725 115.468 183.517 110.26 182.42C110.26 182.42 93.2642 181.324 81.2032 186.532C81.2032 186.532 72.139 188.115 66.4307 190.091C66.4307 190.091 69.5043 174.503 71.041 169.892C71.041 169.892 66.8699 166.819 62.6983 167.916C62.6983 167.916 55.0235 185.376 53.485 200.746C53.3076 202.517 54.5775 204.108 56.338 204.37C62.906 205.351 76.3106 207.436 76.3106 207.436" fill="#272135"/>
<path d="M90.5233 295.222C90.5233 295.222 90.935 289.465 84.7667 288.231C78.599 286.998 77.7767 289.876 76.543 295.222C75.3096 300.567 82.6227 347.185 82.6227 347.185C82.6227 347.185 90.6933 347.649 92.3383 346.416C92.3383 346.416 94.2242 314.136 92.99 306.324C91.7567 298.511 90.5233 295.222 90.5233 295.222Z" fill="#272135"/>
<path d="M99.9807 262.944C99.9807 262.944 94.224 281.447 89.9065 290.493" stroke="#282C55" stroke-width="0.616775" stroke-miterlimit="10"/>
<path d="M88.2616 294.194C88.2616 294.194 84.7666 292.138 81.2717 294.194" stroke="#282C55" stroke-width="0.616775" stroke-miterlimit="10"/>
<path d="M88.8784 296.455C88.8784 296.455 86.0009 294.81 81.0662 298.305" stroke="#282C55" stroke-width="0.616775" stroke-miterlimit="10"/>
<path d="M110.466 291.727C110.466 291.727 108.204 289.67 103.064 291.932" stroke="#282C55" stroke-width="0.616775" stroke-miterlimit="10"/>
<path d="M108.821 293.783C108.821 293.783 105.532 292.138 102.448 294.605" stroke="#282C55" stroke-width="0.616775" stroke-miterlimit="10"/>
<path d="M101.214 297.072L102.447 339.013" stroke="#282C55" stroke-width="0.616775" stroke-miterlimit="10"/>
<path d="M84.2183 261.915C84.2183 261.915 79.5582 264.657 77.6396 260.271" stroke="#282C55" stroke-width="0.616775" stroke-miterlimit="10"/>
<path d="M79.5582 262.465C79.5582 262.465 77.3655 279.46 77.9137 290.699" stroke="#282C55" stroke-width="0.616775" stroke-miterlimit="10"/>
<path d="M81.4775 188.109C81.4775 188.109 90.1125 192.631 84.355 203.117" stroke="#4B4384" stroke-width="0.616775" stroke-miterlimit="10"/>
<path d="M93.7098 174.437C93.7098 174.437 92.2706 178.137 87.439 177.52" stroke="#E74D4D" stroke-width="0.616775" stroke-miterlimit="10"/>
<path d="M87.5083 151.596C87.5083 151.596 85.1666 154.816 85.02 156.719C84.8733 158.622 87.9475 160.524 88.3866 161.695C88.8258 162.867 88.0933 165.354 88.5325 166.087C88.9716 166.819 89.1183 167.696 89.1183 167.696L89.265 170.185L90.875 170.478C90.875 170.478 92.485 165.94 93.6558 165.647C94.8266 165.354 95.9975 167.404 96.4366 168.429C96.8758 169.453 98.1933 172.234 98.1933 172.234C98.1933 172.234 103.316 173.551 104.341 173.259C105.365 172.966 110.049 163.744 110.196 159.061C110.342 154.377 107.122 149.693 103.755 148.229C100.389 146.765 93.8016 145.449 87.5083 151.596" fill="#7A2A32"/>
<path d="M89.8025 167.143C89.8025 167.143 90.3858 164.614 92.5267 165.781C94.6675 166.949 92.1375 172.98 90.3858 172.591C88.635 172.203 89.4133 168.116 89.8025 167.143" fill="#F35E4E"/>
<path d="M88.2398 150.864C88.2398 150.864 88.0931 146.912 92.7773 143.984C97.4614 141.057 105.072 145.449 106.097 147.79C107.121 150.132 110.342 153.206 110.927 156.279C111.513 159.354 109.464 166.964 107.268 169.014C106.536 169.599 106.536 167.989 106.536 167.989C106.536 167.989 105.072 169.599 104.195 170.039C103.316 170.478 101.852 167.404 101.852 167.404C101.852 167.404 101.121 168.575 100.096 169.16C99.0714 169.746 98.6323 165.647 98.6323 165.647C98.6323 165.647 97.7539 161.256 95.9973 159.207C94.2406 157.158 89.1181 152.913 88.2398 150.864" fill="#6C2931"/>
<path d="M111.22 192.287C111.22 193.604 105.951 219.951 106.829 223.464C107.707 226.978 111.659 252.007 111.659 252.007" stroke="#4B4384" stroke-width="0.616775" stroke-miterlimit="10"/>
<path d="M62.4788 197.556C65.9914 194.702 65.9914 191.629 65.9914 191.629C65.9914 191.629 67.3085 194.044 66.6503 196.239" stroke="#4B4384" stroke-width="0.616775" stroke-miterlimit="10"/>
<path d="M95.9973 152.328C95.9973 152.328 101.999 157.597 104.195 160.232" stroke="#52222A" stroke-width="0.616775" stroke-miterlimit="10"/>
<path d="M102.145 157.889C102.145 157.889 103.316 153.938 108.732 153.206" stroke="#52222A" stroke-width="0.616775" stroke-miterlimit="10"/>
<path d="M99.511 155.548C99.511 155.548 97.4618 155.694 96.876 158.622" stroke="#52222A" stroke-width="0.616775" stroke-miterlimit="10"/>
<path d="M258.616 210.73H150.594C145.744 210.73 141.812 206.798 141.812 201.948V148.375C141.812 143.525 145.744 139.594 150.594 139.594H258.616C263.467 139.594 267.398 143.525 267.398 148.375V201.948C267.398 206.798 263.467 210.73 258.616 210.73" fill="#C7DBF3"/>
<path d="M266.171 215.704H143.04C137.512 215.704 133.03 211.222 133.03 205.694V144.629C133.03 139.1 137.512 134.619 143.04 134.619H266.171C271.699 134.619 276.181 139.1 276.181 144.629V205.694C276.181 211.222 271.699 215.704 266.171 215.704Z" fill="#A5E2EC"/>
<path d="M265.203 175.271C265.203 187.974 254.905 198.272 242.202 198.272C229.5 198.272 219.202 187.974 219.202 175.271C219.202 162.569 229.5 152.271 242.202 152.271C254.905 152.271 265.203 162.569 265.203 175.271" fill="white"/>
<path d="M253.346 173.628C253.346 179.682 248.438 184.589 242.385 184.589C236.331 184.589 231.422 179.682 231.422 173.628C231.422 167.574 236.331 162.666 242.385 162.666C248.438 162.666 253.346 167.574 253.346 173.628Z" fill="#7B242A"/>
<path d="M260.748 201.615C260.256 191.799 252.141 183.991 242.202 183.991C232.264 183.991 224.149 191.799 223.656 201.615H260.748" fill="#5DC6E4"/>
<path d="M248.221 186.742C248.221 190.066 245.526 192.76 242.202 192.76C238.879 192.76 236.184 190.066 236.184 186.742C236.184 183.419 238.879 180.724 242.202 180.724C245.526 180.724 248.221 183.419 248.221 186.742Z" fill="#F35D4C"/>
<path d="M254.664 176.241C254.664 177.598 253.565 178.698 252.208 178.698C250.851 178.698 249.751 177.598 249.751 176.241C249.751 174.884 250.851 173.784 252.208 173.784C253.565 173.784 254.664 174.884 254.664 176.241Z" fill="#F35D4C"/>
<path d="M234.193 176.241C234.193 177.598 233.093 178.698 231.736 178.698C230.38 178.698 229.28 177.598 229.28 176.241C229.28 174.884 230.38 173.784 231.736 173.784C233.093 173.784 234.193 174.884 234.193 176.241Z" fill="#F35D4C"/>
<path d="M251.854 176.241C251.854 181.6 247.51 185.944 242.151 185.944C236.793 185.944 232.448 181.6 232.448 176.241C232.448 170.882 236.793 166.538 242.151 166.538C247.51 166.538 251.854 170.882 251.854 176.241Z" fill="#F6816B"/>
<path d="M252.413 172.928C251.328 176.116 246.879 177.486 242.477 175.989C238.074 174.491 235.383 170.693 236.468 167.504C237.553 164.316 242.002 162.945 246.404 164.443C250.807 165.94 253.498 169.739 252.413 172.928Z" fill="#7B242A"/>
<path d="M204.02 207.802H153.375C148.929 207.802 145.325 204.198 145.325 199.752C145.325 195.306 148.929 191.702 153.375 191.702H204.02C208.466 191.702 212.071 195.306 212.071 199.752C212.071 204.198 208.466 207.802 204.02 207.802Z" fill="white"/>
<path d="M157.264 201.855L155.344 202.864C155.163 202.959 154.952 202.805 154.987 202.604L155.353 200.466C155.367 200.386 155.341 200.305 155.282 200.248L153.729 198.734C153.583 198.591 153.664 198.343 153.866 198.314L156.012 198.002C156.092 197.99 156.162 197.94 156.197 197.867L157.158 195.922C157.248 195.739 157.509 195.739 157.6 195.922L158.56 197.867C158.596 197.94 158.665 197.99 158.745 198.002L160.892 198.314C161.093 198.343 161.174 198.591 161.028 198.734L159.475 200.248C159.417 200.305 159.39 200.386 159.404 200.466L159.771 202.604C159.806 202.805 159.594 202.959 159.413 202.864L157.493 201.855C157.422 201.816 157.336 201.816 157.264 201.855" fill="#F8990F"/>
<path d="M167.957 201.855L166.037 202.864C165.857 202.959 165.645 202.805 165.679 202.604L166.046 200.466C166.06 200.386 166.033 200.305 165.975 200.248L164.422 198.734C164.276 198.591 164.357 198.343 164.558 198.314L166.705 198.002C166.786 197.99 166.855 197.94 166.891 197.867L167.851 195.922C167.941 195.739 168.202 195.739 168.292 195.922L169.252 197.867C169.288 197.94 169.357 197.99 169.438 198.002L171.584 198.314C171.786 198.343 171.867 198.591 171.721 198.734L170.167 200.248C170.109 200.305 170.083 200.386 170.097 200.466L170.463 202.604C170.498 202.805 170.287 202.959 170.106 202.864L168.186 201.855C168.114 201.816 168.028 201.816 167.957 201.855" fill="#F8990F"/>
<path d="M178.649 201.855L176.73 202.864C176.549 202.959 176.337 202.805 176.372 202.604L176.739 200.466C176.752 200.386 176.726 200.305 176.667 200.248L175.115 198.734C174.968 198.591 175.049 198.343 175.252 198.314L177.397 198.002C177.478 197.99 177.547 197.94 177.583 197.867L178.543 195.922C178.633 195.739 178.895 195.739 178.985 195.922L179.945 197.867C179.981 197.94 180.05 197.99 180.131 198.002L182.277 198.314C182.479 198.343 182.56 198.591 182.413 198.734L180.86 200.248C180.802 200.305 180.776 200.386 180.789 200.466L181.156 202.604C181.191 202.805 180.979 202.959 180.798 202.864L178.878 201.855C178.807 201.816 178.722 201.816 178.649 201.855" fill="#F8990F"/>
<path d="M189.342 201.855L187.422 202.864C187.242 202.959 187.03 202.805 187.064 202.604L187.432 200.466C187.445 200.386 187.418 200.305 187.36 200.248L185.807 198.734C185.661 198.591 185.742 198.343 185.944 198.314L188.09 198.002C188.171 197.99 188.24 197.94 188.276 197.867L189.236 195.922C189.326 195.739 189.587 195.739 189.677 195.922L190.637 197.867C190.673 197.94 190.743 197.99 190.823 198.002L192.97 198.314C193.172 198.343 193.252 198.591 193.106 198.734L191.553 200.248C191.495 200.305 191.468 200.386 191.482 200.466L191.849 202.604C191.883 202.805 191.672 202.959 191.491 202.864L189.572 201.855C189.5 201.816 189.414 201.816 189.342 201.855" fill="#F8990F"/>
<path d="M200.035 201.855L198.115 202.864C197.934 202.959 197.723 202.805 197.758 202.604L198.124 200.466C198.138 200.386 198.112 200.305 198.053 200.248L196.5 198.734C196.353 198.591 196.435 198.343 196.637 198.314L198.783 198.002C198.863 197.99 198.933 197.94 198.968 197.867L199.928 195.922C200.018 195.739 200.28 195.739 200.37 195.922L201.33 197.867C201.367 197.94 201.436 197.99 201.516 198.002L203.663 198.314C203.864 198.343 203.945 198.591 203.799 198.734L202.246 200.248C202.188 200.305 202.161 200.386 202.175 200.466L202.542 202.604C202.576 202.805 202.365 202.959 202.184 202.864L200.264 201.855C200.193 201.816 200.107 201.816 200.035 201.855" fill="#C4D8DA"/>
<path d="M150.302 159.5H187.187" stroke="white" stroke-width="3.51292" stroke-miterlimit="10" stroke-linecap="round" stroke-linejoin="round"/>
<path d="M150.302 180.87H197.433" stroke="white" stroke-width="3.51292" stroke-miterlimit="10" stroke-linecap="round" stroke-linejoin="round"/>
<path d="M150.302 169.746H166.402" stroke="white" stroke-width="3.51292" stroke-miterlimit="10" stroke-linecap="round" stroke-linejoin="round"/>
<path d="M175.185 169.746H207.971" stroke="white" stroke-width="3.51292" stroke-miterlimit="10" stroke-linecap="round" stroke-linejoin="round"/>
<path d="M236.441 145.522H259.056" stroke="#45B2B1" stroke-width="3.51292" stroke-miterlimit="10" stroke-linecap="round" stroke-linejoin="round"/>
<path d="M158.498 134.543H198.897" stroke="#45B2B1" stroke-width="0.878225" stroke-miterlimit="10" stroke-linecap="round" stroke-linejoin="round"/>
<path d="M213.167 134.543H227.879" stroke="#45B2B1" stroke-width="0.878225" stroke-miterlimit="10" stroke-linecap="round" stroke-linejoin="round"/>
<path d="M208.557 215.56H254.226" stroke="#45B2B1" stroke-width="0.878225" stroke-miterlimit="10" stroke-linecap="round" stroke-linejoin="round"/>
<path d="M275.888 160.671V170.331" stroke="#45B2B1" stroke-width="0.878225" stroke-miterlimit="10" stroke-linecap="round" stroke-linejoin="round"/>
<path d="M133.03 172.381V200.777" stroke="#45B2B1" stroke-width="0.878225" stroke-miterlimit="10" stroke-linecap="round" stroke-linejoin="round"/>
<path d="M251.106 288.923H158.105C153.929 288.923 150.544 285.538 150.544 281.361V235.24C150.544 231.064 153.929 227.678 158.105 227.678H251.106C255.281 227.678 258.666 231.064 258.666 235.24V281.361C258.666 285.538 255.281 288.923 251.106 288.923" fill="#C7DBF3"/>
<path d="M257.609 293.205H151.602C146.842 293.205 142.983 289.347 142.983 284.587V232.014C142.983 227.254 146.842 223.396 151.602 223.396H257.609C262.369 223.396 266.228 227.254 266.228 232.014V284.587C266.228 289.347 262.369 293.205 257.609 293.205Z" fill="#CDEFF8"/>
<path d="M150.594 300.602V320.861C150.594 325.033 153.976 328.414 158.148 328.414H251.063C255.235 328.414 258.616 325.033 258.616 320.861V300.602H150.594" fill="#CDEFF8"/>
<path d="M263.886 128.179V107.92C263.886 103.748 260.504 100.366 256.332 100.366H154.05C149.878 100.366 146.496 103.748 146.496 107.92V128.179H263.886Z" fill="#8AE5BF"/>
<path d="M256.776 258.395C256.776 269.332 247.911 278.198 236.974 278.198C226.038 278.198 217.172 269.332 217.172 258.395C217.172 247.459 226.038 238.593 236.974 238.593C247.911 238.593 256.776 247.459 256.776 258.395Z" fill="white"/>
<path d="M246.567 256.98C246.567 262.192 242.343 266.418 237.131 266.418C231.918 266.418 227.694 262.192 227.694 256.98C227.694 251.769 231.918 247.543 237.131 247.543C242.343 247.543 246.567 251.769 246.567 256.98Z" fill="#5DC6E4"/>
<path d="M252.941 281.075C252.517 272.624 245.531 265.903 236.974 265.903C228.418 265.903 221.432 272.624 221.008 281.075H252.941Z" fill="#5DC6E4"/>
<path d="M242.155 268.27C242.155 271.132 239.836 273.452 236.974 273.452C234.112 273.452 231.793 271.132 231.793 268.27C231.793 265.409 234.112 263.09 236.974 263.09C239.836 263.09 242.155 265.409 242.155 268.27Z" fill="#A5E2EC"/>
<path d="M247.703 259.23C247.703 260.398 246.757 261.344 245.588 261.344C244.42 261.344 243.473 260.398 243.473 259.23C243.473 258.062 244.42 257.115 245.588 257.115C246.757 257.115 247.703 258.062 247.703 259.23Z" fill="#CDEFF8"/>
<path d="M230.078 259.23C230.078 260.398 229.132 261.344 227.964 261.344C226.796 261.344 225.849 260.398 225.849 259.23C225.849 258.062 226.796 257.115 227.964 257.115C229.132 257.115 230.078 258.062 230.078 259.23Z" fill="#CDEFF8"/>
<path d="M245.284 259.23C245.284 263.843 241.544 267.583 236.93 267.583C232.317 267.583 228.576 263.843 228.576 259.23C228.576 254.616 232.317 250.875 236.93 250.875C241.544 250.875 245.284 254.616 245.284 259.23Z" fill="#CDEFF8"/>
<path d="M245.764 256.378C244.831 259.122 241.002 260.302 237.211 259.013C233.42 257.724 231.104 254.453 232.037 251.708C232.972 248.963 236.802 247.783 240.592 249.072C244.382 250.362 246.699 253.632 245.764 256.378" fill="#5DC6E4"/>
<path d="M204.101 286.402H160.499C156.672 286.402 153.568 283.299 153.568 279.472C153.568 275.644 156.672 272.54 160.499 272.54H204.101C207.929 272.54 211.033 275.644 211.033 279.472C211.033 283.299 207.929 286.402 204.101 286.402Z" fill="#A5E2EC"/>
<path d="M163.847 281.282L162.194 282.15C162.039 282.232 161.857 282.099 161.887 281.927L162.202 280.086C162.214 280.017 162.192 279.947 162.142 279.898L160.804 278.594C160.678 278.473 160.747 278.258 160.922 278.233L162.77 277.964C162.839 277.954 162.898 277.911 162.93 277.848L163.756 276.174C163.834 276.016 164.058 276.016 164.137 276.174L164.963 277.848C164.994 277.911 165.053 277.954 165.122 277.964L166.971 278.233C167.144 278.258 167.214 278.473 167.088 278.594L165.751 279.898C165.701 279.947 165.677 280.017 165.69 280.086L166.005 281.927C166.035 282.099 165.853 282.232 165.697 282.15L164.045 281.282C163.983 281.249 163.909 281.249 163.847 281.282" fill="white"/>
<path d="M173.053 281.282L171.4 282.15C171.245 282.232 171.062 282.099 171.092 281.927L171.408 280.086C171.42 280.017 171.397 279.947 171.347 279.898L170.01 278.594C169.884 278.473 169.953 278.258 170.127 278.233L171.976 277.964C172.045 277.954 172.104 277.911 172.135 277.848L172.962 276.174C173.039 276.016 173.264 276.016 173.342 276.174L174.168 277.848C174.199 277.911 174.259 277.954 174.328 277.964L176.177 278.233C176.35 278.258 176.42 278.473 176.294 278.594L174.957 279.898C174.907 279.947 174.883 280.017 174.895 280.086L175.211 281.927C175.241 282.099 175.059 282.232 174.903 282.15L173.251 281.282C173.189 281.249 173.115 281.249 173.053 281.282" fill="white"/>
<path d="M182.259 281.282L180.606 282.15C180.45 282.232 180.268 282.099 180.298 281.927L180.614 280.086C180.626 280.017 180.603 279.947 180.553 279.898L179.216 278.594C179.09 278.473 179.159 278.258 179.333 278.233L181.181 277.964C181.25 277.954 181.31 277.911 181.341 277.848L182.167 276.174C182.245 276.016 182.47 276.016 182.547 276.174L183.374 277.848C183.405 277.911 183.465 277.954 183.534 277.964L185.382 278.233C185.556 278.258 185.625 278.473 185.5 278.594L184.162 279.898C184.112 279.947 184.089 280.017 184.101 280.086L184.417 281.927C184.447 282.099 184.265 282.232 184.109 282.15L182.457 281.282C182.394 281.249 182.321 281.249 182.259 281.282Z" fill="white"/>
<path d="M191.465 281.282L189.811 282.15C189.656 282.232 189.474 282.099 189.504 281.927L189.82 280.086C189.831 280.017 189.808 279.947 189.758 279.898L188.421 278.594C188.296 278.473 188.365 278.258 188.539 278.233L190.386 277.964C190.456 277.954 190.516 277.911 190.546 277.848L191.373 276.174C191.451 276.016 191.676 276.016 191.753 276.174L192.58 277.848C192.611 277.911 192.671 277.954 192.74 277.964L194.587 278.233C194.761 278.258 194.831 278.473 194.705 278.594L193.367 279.898C193.318 279.947 193.295 280.017 193.306 280.086L193.622 281.927C193.652 282.099 193.47 282.232 193.315 282.15L191.662 281.282C191.6 281.249 191.526 281.249 191.465 281.282Z" fill="white"/>
<path d="M200.671 281.282L199.017 282.15C198.862 282.232 198.68 282.099 198.71 281.927L199.026 280.086C199.037 280.017 199.014 279.947 198.964 279.898L197.627 278.594C197.501 278.473 197.571 278.258 197.745 278.233L199.592 277.964C199.662 277.954 199.722 277.911 199.752 277.848L200.579 276.174C200.657 276.016 200.882 276.016 200.959 276.174L201.786 277.848C201.817 277.911 201.876 277.954 201.945 277.964L203.793 278.233C203.967 278.258 204.037 278.473 203.911 278.594L202.573 279.898C202.524 279.947 202.501 280.017 202.513 280.086L202.828 281.927C202.858 282.099 202.676 282.232 202.521 282.15L200.867 281.282C200.806 281.249 200.732 281.249 200.671 281.282" fill="white"/>
<path d="M157.853 244.817H189.609" stroke="white" stroke-width="3.02441" stroke-miterlimit="10" stroke-linecap="round" stroke-linejoin="round"/>
<path d="M157.853 263.215H198.431" stroke="white" stroke-width="3.02441" stroke-miterlimit="10" stroke-linecap="round" stroke-linejoin="round"/>
<path d="M157.853 253.638H171.715" stroke="white" stroke-width="3.02441" stroke-miterlimit="10" stroke-linecap="round" stroke-linejoin="round"/>
<path d="M179.276 253.638H207.503" stroke="white" stroke-width="3.02441" stroke-miterlimit="10" stroke-linecap="round" stroke-linejoin="round"/>
<path d="M232.013 232.782H251.484" stroke="#A5E2EC" stroke-width="3.02441" stroke-miterlimit="10" stroke-linecap="round" stroke-linejoin="round"/>
<path d="M122.491 172.966V165.062" stroke="#45B2B1" stroke-width="0.878225" stroke-miterlimit="10" stroke-linecap="round" stroke-linejoin="round"/>
<path d="M122.491 159.793V138.276" stroke="#45B2B1" stroke-width="0.878225" stroke-miterlimit="10" stroke-linecap="round" stroke-linejoin="round"/>
<path d="M125.126 132.714C125.126 134.088 124.012 135.202 122.638 135.202C121.263 135.202 120.149 134.088 120.149 132.714C120.149 131.339 121.263 130.226 122.638 130.226C124.012 130.226 125.126 131.339 125.126 132.714Z" stroke="#45B2B1" stroke-width="0.878225" stroke-miterlimit="10" stroke-linecap="round" stroke-linejoin="round"/>
<path d="M270.326 281.867H260.958V272.499H270.326V281.867Z" stroke="#45B2B1" stroke-width="0.878225" stroke-miterlimit="10" stroke-linecap="round" stroke-linejoin="round"/>
<path d="M274.424 298.26H268.57V292.405H274.424V298.26Z" stroke="#45B2B1" stroke-width="0.878225" stroke-miterlimit="10" stroke-linecap="round" stroke-linejoin="round"/>
<path d="M150.594 300.602H227" stroke="#45B2B1" stroke-width="0.878225" stroke-miterlimit="10" stroke-linecap="round" stroke-linejoin="round"/>
<path d="M337.364 175.454C337.364 175.454 341.609 177.796 346.001 171.941C345.854 170.478 339.413 167.989 339.413 167.989L337.364 175.454Z" fill="#F35E4E"/>
<path d="M340.93 160.517L345.729 173.813L340.768 176.938L335.726 162.902L340.93 160.517" fill="#2C3D79"/>
<path d="M356.081 150.178L351.978 154.53L347.498 147.416L353.193 145.595L356.081 150.178" fill="#F04248"/>
<path d="M350.088 150.789L349.095 149.018L348.921 149.128L344.001 142.134L328.817 161.288L326.107 162.995L326.335 163.356L328.497 166.789L328.724 167.149L331.434 165.443L355.267 160.016L351.082 152.559L351.257 152.45L350.088 150.789" fill="#F04248"/>
<path d="M357.464 162.186C356.562 162.754 355.371 162.484 354.802 161.582L342.255 141.667C341.687 140.764 341.957 139.573 342.86 139.004C343.762 138.436 344.954 138.707 345.522 139.609L358.068 159.524C358.637 160.425 358.366 161.618 357.464 162.186Z" fill="#2C3D79"/>
<path d="M333.279 172.626C333.279 172.626 332.507 174.309 332.412 175.183C332.317 176.056 330.105 196.428 330.105 196.428L315.921 187.457L311.783 199.739C311.783 199.739 330.746 206.804 335.984 207.373C338.862 207.979 339.666 206.006 339.989 205.746C340.311 205.487 338.682 174.391 338.682 174.391C338.682 174.391 337.67 170.159 333.279 172.626" fill="#F5775B"/>
<path d="M311.017 183.212L330.046 195.8L325.947 210.73L309.261 198.142C309.261 198.142 306.333 190.238 311.017 183.212Z" fill="#4EAD8B"/>
<path d="M271.593 358.182C271.593 360.304 292.082 362.025 317.358 362.025C342.636 362.025 363.125 360.304 363.125 358.182C363.125 356.06 342.636 354.34 317.358 354.34C292.082 354.34 271.593 356.06 271.593 358.182" fill="currentColor"/>
<path d="M295.815 353.174C295.815 353.174 300.938 358.532 303.035 359.696C302.569 360.627 295.116 360.627 292.322 359.23C289.527 357.833 287.43 354.572 287.43 354.572L287.663 358.065H286.266C286.266 358.065 284.868 353.174 284.868 352.01C284.868 350.845 286.266 349.215 286.266 349.215L295.815 353.174" fill="#2C3D79"/>
<path d="M297.912 284.234L292.787 347.119L286.732 346.654C286.732 346.654 279.744 300.537 282.539 284.699C285.334 268.861 297.912 284.234 297.912 284.234Z" fill="#F5775B"/>
<path d="M292.788 347.12C292.788 347.12 294.65 352.01 297.213 354.34C299.774 356.669 293.253 356.669 290.458 354.34C287.663 352.01 287.43 350.613 286.498 350.147C285.567 349.681 286.732 346.654 286.732 346.654L292.788 347.12Z" fill="#F5775B"/>
<path d="M337.871 352.119C337.871 352.119 343.824 356.535 346.087 357.329C345.785 358.327 338.438 359.584 335.448 358.677C332.457 357.77 329.842 354.909 329.842 354.909L330.66 358.313L329.282 358.549C329.282 358.549 327.081 353.963 326.884 352.816C326.688 351.668 327.791 349.826 327.791 349.826L337.871 352.119Z" fill="#2C3D79"/>
<path d="M328.317 283.811L333.866 346.66L327.818 347.222C327.818 347.222 313.157 302.944 313.243 286.861C313.329 270.779 328.317 283.811 328.317 283.811Z" fill="#F5775B"/>
<path d="M333.866 346.66C333.866 346.66 336.527 351.167 339.444 353.031C342.362 354.895 335.935 355.994 332.787 354.169C329.64 352.345 329.174 351.007 328.177 350.704C327.181 350.402 327.818 347.222 327.818 347.222L333.866 346.66" fill="#F5775B"/>
<path d="M321.552 230.141L321.848 237.369C321.848 237.369 326.533 247.323 327.997 258.154C329.46 268.986 330.046 290.649 330.046 290.649L333.266 329.876C333.266 329.876 326.826 332.219 321.557 330.754C321.557 330.754 315.116 308.799 313.359 301.187C311.603 293.576 311.896 278.939 311.896 278.939L306.627 258.447C306.627 258.447 299.015 288.306 298.722 292.405C298.43 296.504 294.917 331.34 294.917 331.34C294.917 331.34 289.94 332.804 283.793 331.047C283.793 331.047 280.279 299.431 280.573 281.867C281.158 268.693 282.036 261.959 282.036 261.959C282.036 261.959 279.402 255.227 282.914 242.346C286.134 235.028 288.183 233.271 288.183 233.271L290.108 229.268L321.552 230.141" fill="#2C3D79"/>
<path d="M297.258 179.992C297.258 179.992 286.615 186.121 284.169 189.964C281.724 193.807 274.387 214.594 274.387 214.594C274.387 214.594 282.597 217.564 289.759 217.564C289.759 217.564 289.06 224.202 288.362 226.298C287.663 228.394 290.108 229.268 290.108 229.268C290.108 229.268 307.227 233.984 319.979 231.189C319.979 231.189 321.552 230.839 321.552 230.141C321.552 229.442 321.377 227.695 321.377 227.695C321.377 227.695 322.6 215.817 322.949 213.72C323.297 211.624 327.142 205.919 326.792 203.648C326.442 201.376 320.503 190.837 320.503 190.837C320.503 190.837 316.486 186.121 314.739 184.899C312.992 183.675 308.089 182.041 308.089 182.041L297.258 179.992" fill="#4EAD8B"/>
<path d="M309.372 176.166C309.367 176.44 308.369 182.369 311.653 186.565C314.937 190.853 301.984 190.669 298.974 186.291C296.237 182.369 296.512 181.73 296.512 181.73C296.512 181.73 298.701 174.616 298.062 169.964C298.244 165.768 309.555 168.322 309.372 176.166" fill="#F5775B"/>
<path d="M296.514 197.592L291.156 216.69" stroke="#3B8B79" stroke-width="0.658672" stroke-miterlimit="10"/>
<path d="M299.833 198.699C299.833 198.699 298.609 202.366 294.593 204.812" stroke="#3B8B79" stroke-width="0.658672" stroke-miterlimit="10"/>
<path d="M293.718 194.156C293.718 194.156 293.02 189.265 287.43 188.916" stroke="#3B8B79" stroke-width="0.658672" stroke-miterlimit="10"/>
<path d="M321.143 192.06C321.143 192.06 326.85 201.434 326.792 203.648C326.733 205.86 323.065 212.149 323.065 212.149L318.523 224.027" stroke="#3B8B79" stroke-width="0.658672" stroke-miterlimit="10"/>
<path d="M301.405 231.014L295.291 224.027" stroke="#3B8B79" stroke-width="0.658672" stroke-miterlimit="10"/>
<path d="M299.774 246.502C299.774 246.502 302.686 249.705 303.559 250.404C304.432 251.103 310.372 251.627 310.372 251.627C310.372 251.627 312.992 255.994 313.691 255.819C314.389 255.644 314.215 255.12 314.215 255.12C314.215 255.12 314.389 247.26 313.865 246.386C313.341 245.513 304.782 243.067 304.782 243.067L303.734 241.844L299.774 246.502" fill="#F5775B"/>
<path d="M276.949 215.409C276.717 216.109 274.853 221.581 273.921 224.377C272.99 227.171 293.952 241.844 297.212 244.407L299.774 246.502L303.734 241.844L285.334 223.444L288.012 217.389L276.949 215.409" fill="#F5775B"/>
<path d="M313.691 255.819L312.584 250.928" stroke="#E74D4D" stroke-width="0.624175" stroke-miterlimit="10"/>
<path d="M314.332 251.394L313.051 248.599" stroke="#E74D4D" stroke-width="0.624175" stroke-miterlimit="10"/>
<path d="M313.865 246.386L314.332 255.819H312.817L310.372 251.627" stroke="#E74D4D" stroke-width="0.624175" stroke-miterlimit="10"/>
<path d="M291.304 155.262C291.304 155.262 291.816 150.847 287.626 150.739C283.436 150.63 280.334 157.914 283.516 160.594C286.043 162.949 287.436 161.645 287.436 161.645C287.436 161.645 286.331 165.278 287.203 166.753C287.741 167.247 287.787 163.515 289.388 161.726C290.989 159.937 291.304 155.262 291.304 155.262" fill="#D5621D"/>
<path d="M304.833 150.908C304.833 150.908 308.723 151.163 311.894 156.468C315.065 161.773 315.933 174.146 314.798 175.834C313.663 177.521 309.303 177.775 303.033 176.933C296.409 176.043 293.086 169.952 291.168 165.883C287.497 158.09 293.042 148.324 304.833 150.908Z" fill="#F5775B"/>
<path d="M308.94 177.329C308.94 177.329 304.419 177.228 301.357 173.536" stroke="#E74D4D" stroke-width="0.624175" stroke-miterlimit="10"/>
<path d="M303.35 170.26C303.57 171.429 304.695 172.2 305.865 171.981C307.034 171.762 307.805 170.636 307.585 169.466C307.366 168.297 306.241 167.526 305.071 167.746C303.901 167.965 303.131 169.09 303.35 170.26" fill="#F1474E"/>
<path d="M306.935 166.626C306.987 166.911 307.262 167.099 307.546 167.045C307.831 166.992 308.018 166.718 307.964 166.434C307.912 166.149 307.637 165.961 307.353 166.015C307.068 166.068 306.881 166.342 306.935 166.626Z" fill="#1F4170"/>
<path d="M312.486 165.586C312.539 165.87 312.813 166.058 313.098 166.005C313.382 165.951 313.569 165.678 313.516 165.393C313.463 165.108 313.189 164.921 312.904 164.975C312.62 165.028 312.433 165.301 312.486 165.586Z" fill="#1F4170"/>
<path d="M294.595 151.369C294.595 151.369 306.338 146.487 314.197 154.247C318.773 160.389 312.856 162.987 311.588 163.374C310.32 163.76 311.669 161.423 311.669 161.423C311.669 161.423 308.333 164.281 304.018 165.09C299.558 165.926 303.577 163.534 303.577 163.534C303.577 163.534 300.429 165.019 299.567 165.179C298.703 165.342 300.969 170.279 300.753 171.51C300.393 172.769 297.048 166.844 297.048 166.844L296.86 170.602L297.443 174.513C297.443 174.513 291.653 171.429 289.631 167.787C287.608 164.145 286.503 155.864 294.595 151.369" fill="#D5621D"/>
<path d="M298.147 167.639C298.147 167.639 296.345 165.627 295.124 166.721C293.904 167.815 297.12 172.531 299.02 172.299C300.92 172.066 299.268 168.789 298.147 167.639" fill="#F35E4E"/>
<path d="M297.405 178.967C297.405 178.967 301.503 186.871 309.407 186.871C310.725 185.408 309.553 182.188 309.553 182.188C309.553 182.188 314.092 185.261 314.092 189.067C314.092 189.067 318.043 192.873 319.653 195.654C319.361 196.679 316.141 196.971 316.141 196.971C316.141 196.971 318.921 203.704 318.482 209.559C318.482 209.559 316.579 210.73 312.334 210.291C312.334 210.291 313.748 189.767 309.7 191.116C309.261 191.263 304.577 191.116 299.454 188.481C294.331 185.847 294.623 181.163 294.623 181.163C294.623 181.163 295.356 176.772 297.697 176.772L297.405 178.967" fill="#2C3D79"/>
<path d="M310.981 167.806C310.981 167.806 313.176 169.233 312.956 170.331C312.737 171.428 311.42 170.88 311.42 170.88C311.42 170.88 310.651 168.355 310.981 167.806" fill="#F1474E"/>
<path d="M313.615 171.648C313.615 171.648 311.091 172.637 309.663 172.637C308.566 172.856 310.542 174.613 312.297 173.954C314.055 173.295 313.615 171.648 313.615 171.648Z" fill="white"/>
<path d="M342.267 163.744C342.267 163.744 346.219 163.086 347.098 163.525C347.977 163.964 346.878 171.648 346.878 171.648L343.366 173.185L342.267 163.744Z" fill="#F5775B"/>
<path d="M332.626 174.604C332.626 174.604 332.742 173.789 334.353 170.522C336.14 166.9 336.542 165.414 336.542 165.414C336.542 165.414 342.198 163.224 343.111 162.13C344.023 161.035 344.57 160.854 344.57 160.854C344.57 160.854 345.664 162.859 344.023 164.319C342.381 165.779 340.921 166.874 340.921 166.874C340.921 166.874 341.104 171.069 340.556 173.076C340.009 175.083 338.365 176.056 338.365 176.056L332.626 174.604Z" fill="#F5775B"/>
<path d="M343.108 165.171L340.922 166.874L339.264 166.452" stroke="#E74D4D" stroke-width="0.624175" stroke-miterlimit="10"/>
<path d="M342.377 165.72L343.366 173.185L346.878 171.648" stroke="#E74D4D" stroke-width="0.624175" stroke-miterlimit="10"/>
<path d="M343.036 171.759L346.219 169.563" stroke="#E74D4D" stroke-width="0.624175" stroke-miterlimit="10"/>
<path d="M342.707 169.344L346.109 167.258" stroke="#E74D4D" stroke-width="0.624175" stroke-miterlimit="10"/>
<path d="M342.707 166.708L345.561 164.952" stroke="#E74D4D" stroke-width="0.624175" stroke-miterlimit="10"/>
<path d="M302.82 237.37C302.82 237.37 309.846 239.419 318.336 237.955" stroke="#292F53" stroke-width="0.658672" stroke-miterlimit="10"/>
<path d="M288.916 158.695C288.916 158.695 290.013 151.23 299.454 149.913" stroke="#AD4C1E" stroke-width="0.658672" stroke-miterlimit="10"/>
<path d="M292.209 161.11C292.209 161.11 293.087 157.378 298.136 153.645" stroke="#AD4C1E" stroke-width="0.658672" stroke-miterlimit="10"/>
<path d="M289.354 156.279C289.354 156.279 289.354 154.523 286.281 153.645" stroke="#AD4C1E" stroke-width="0.658672" stroke-miterlimit="10"/>
<path d="M288.696 161.769C288.696 161.769 287.817 166.819 291.33 169.892" stroke="#AD4C1E" stroke-width="0.658672" stroke-miterlimit="10"/>
<path d="M289.94 119.687C289.94 121.304 288.629 122.615 287.012 122.615C285.396 122.615 284.085 121.304 284.085 119.687C284.085 118.07 285.396 116.76 287.012 116.76C288.629 116.76 289.94 118.07 289.94 119.687Z" fill="#A5E2EC"/>
<path d="M345.561 233.271C345.561 234.888 344.25 236.199 342.634 236.199C341.017 236.199 339.707 234.888 339.707 233.271C339.707 231.655 341.017 230.344 342.634 230.344C344.25 230.344 345.561 231.655 345.561 233.271Z" fill="#A5E2EC"/>
<path d="M140.202 312.019C140.202 313.636 138.891 314.946 137.274 314.946C135.658 314.946 134.347 313.636 134.347 312.019C134.347 310.402 135.658 309.092 137.274 309.092C138.891 309.092 140.202 310.402 140.202 312.019Z" fill="#A5E2EC"/>
<path d="M108.439 132.568C108.439 134.184 107.128 135.495 105.512 135.495C103.895 135.495 102.585 134.184 102.585 132.568C102.585 130.951 103.895 129.64 105.512 129.64C107.128 129.64 108.439 130.951 108.439 132.568Z" fill="#A5E2EC"/>
<path d="M144.154 323.436C144.154 324.001 143.695 324.46 143.129 324.46C142.563 324.46 142.105 324.001 142.105 323.436C142.105 322.87 142.563 322.411 143.129 322.411C143.695 322.411 144.154 322.87 144.154 323.436Z" fill="#5DC6E4"/>
<path d="M283.938 140.91C281.19 140.91 278.962 138.683 278.962 135.934C278.962 133.185 281.19 130.958 283.938 130.958C286.688 130.958 288.916 133.185 288.916 135.934C288.916 138.683 286.688 140.91 283.938 140.91Z" fill="#5DC6E4"/>
<path d="M196.481 90.4128H221.181" stroke="#45B2B1" stroke-width="2.63468" stroke-linecap="round" stroke-linejoin="round"/>
<path d="M242.808 315.678H268.277" stroke="#45B2B1" stroke-width="2.63468" stroke-miterlimit="10" stroke-linecap="round" stroke-linejoin="round"/>
<path d="M181.332 102.269C181.332 109.787 175.237 115.881 167.72 115.881C160.202 115.881 154.107 109.787 154.107 102.269C154.107 94.7503 160.202 88.6561 167.72 88.6561C175.237 88.6561 181.332 94.7503 181.332 102.269Z" fill="currentColor"/>
<path d="M162.45 103.147L166.402 107.099L174.087 99.4145" stroke="white" stroke-width="3.51292" stroke-miterlimit="10" stroke-linecap="round" stroke-linejoin="round"/>
<path d="M182.753 116.605L176.369 110.514" stroke="#829CB9" stroke-width="0.505867" stroke-linecap="round"/>
<path d="M185.855 114.068C185.753 113.59 185.56 112.267 186.124 111.992C186.688 111.717 187.386 112.212 187.759 113.445C188.131 114.678 188.327 116.558 187.932 116.72C187.538 116.882 184.504 117.112 184.088 117.04C183.672 116.967 181.927 116.591 182.024 116.394C182.122 116.196 183.094 115.635 184.039 116.162C184.039 116.162 185.642 115.953 185.957 115.696C186.272 115.439 185.943 114.474 185.855 114.068" fill="#97BC26"/>
<path d="M187.302 109.686C187.302 109.686 188.014 109.039 188.134 109.016C188.254 108.993 188.115 109.368 188.115 109.368C188.115 109.368 189.008 108.598 189.273 108.558C189.537 108.518 189.303 108.807 189.303 108.807C189.303 108.807 190.365 108.246 190.603 108.218C190.841 108.19 190.627 108.43 190.627 108.43C190.627 108.43 191.972 107.906 192.156 107.936C192.34 107.966 192.088 108.224 192.088 108.224C192.088 108.224 193.378 107.993 193.631 108.053C193.884 108.112 193.546 108.415 193.546 108.415C193.546 108.415 194.825 108.282 195.127 108.404C195.43 108.526 194.99 108.665 194.99 108.665C194.99 108.665 196.13 108.742 196.577 109.063C197.023 109.384 196.509 109.353 196.509 109.353C196.509 109.353 197.827 109.815 198.092 110.094C198.358 110.372 198.027 110.371 198.027 110.371C198.027 110.371 199.335 111.2 199.253 111.385C199.172 111.569 198.831 111.285 198.831 111.285C198.831 111.285 200.144 112.326 200.111 112.503C200.078 112.679 199.779 112.616 199.779 112.616C199.779 112.616 201.037 113.548 201.064 113.758C201.091 113.968 200.67 113.754 200.67 113.754C200.67 113.754 201.419 114.363 201.519 114.641C201.619 114.919 201.422 115.051 201.422 115.051L201.376 115.792L187.67 110.397L187.302 109.686" fill="#00975E"/>
<path d="M187.257 110.147C187.257 110.147 189.622 108.373 192.492 108.511C195.362 108.651 196.892 109.621 198.509 111.356C200.126 113.092 201.507 116.319 203.53 117.138C205.553 117.957 206.479 117.104 206.592 116.214C206.706 115.324 206.418 114.435 205.346 114.203C204.274 113.97 203.722 115.426 204.713 115.678C204.713 115.678 204.127 115.979 203.657 115.296C203.187 114.613 203.653 113.443 204.727 113.179C205.801 112.915 206.877 113.455 207.388 114.453C207.898 115.452 208.129 117.467 206.614 118.645C204.698 120.134 200.374 120.006 197.126 119.034C193.879 118.061 188.524 116.738 186.463 114.683L187.257 110.147" fill="#AECC33"/>
<path d="M188.694 108.689C188.694 108.689 189.66 109.781 189.713 110.532C189.766 111.283 189.711 111.627 190.018 112.055C190.324 112.484 190.55 113.581 190.931 113.696C191.312 113.81 191.474 111.709 191.647 111.623C191.82 111.536 191.772 110.548 191.908 110.075C192.045 109.603 192.529 108.061 192.529 108.061C192.529 108.061 189.451 108.179 188.694 108.689" fill="#97BC26"/>
<path d="M193.441 107.923C193.441 107.923 193.931 109.296 193.701 110.013C193.471 110.73 193.292 111.028 193.418 111.54C193.543 112.052 193.345 113.155 193.656 113.403C193.966 113.651 194.898 111.761 195.091 111.745C195.284 111.729 195.607 110.793 195.909 110.405C196.212 110.017 197.234 108.766 197.234 108.766C197.234 108.766 194.333 107.731 193.441 107.923Z" fill="#97BC26"/>
<path d="M197.915 109.898C197.915 109.898 197.843 111.355 197.356 111.929C196.87 112.503 196.59 112.711 196.51 113.232C196.431 113.753 195.827 114.696 196.019 115.044C196.211 115.392 197.794 114.002 197.979 114.06C198.163 114.119 198.819 113.379 199.247 113.135C199.674 112.892 201.097 112.127 201.097 112.127C201.097 112.127 198.812 110.062 197.915 109.898" fill="#97BC26"/>
<path d="M180.779 113.821C180.159 113.529 179.748 113.006 180.21 111.854C180.671 110.702 183.237 108.363 185.273 108.574C187.309 108.784 187.622 109.583 187.481 110.582C187.341 111.58 186.637 114.432 186.529 114.636C186.422 114.84 183.704 115.195 180.779 113.821" fill="#97BC26"/>
<path d="M189.176 115.423C189.073 114.945 188.88 113.622 189.444 113.347C190.008 113.072 190.707 113.567 191.079 114.8C191.451 116.034 191.647 117.913 191.252 118.075C190.858 118.237 187.825 118.467 187.409 118.395C186.993 118.323 185.248 117.947 185.345 117.749C185.442 117.551 186.414 116.99 187.36 117.518C187.36 117.518 188.962 117.308 189.277 117.051C189.592 116.794 189.263 115.829 189.176 115.423" fill="#97BC26"/>
<path d="M176.311 108.915L177.638 107.987M174.854 108.488L174.725 107.132M173.699 109.73L172.485 109.374M174.699 110.815L174.514 112.342" stroke="#EBDB4B" stroke-width="0.505867" stroke-linecap="round"/>
<path d="M196.865 116.948C197.227 116.524 198.484 115.8 199.262 115.957C200.04 116.114 200.954 116.991 200.532 117.707C200.109 118.422 198.889 118.849 198.801 119.007C198.713 119.164 199.507 120.988 199.512 121.075C199.517 121.161 197.021 120.739 196.854 120.631C196.688 120.522 197.132 120.041 197.661 120.063C197.661 120.063 196.251 118.586 196.245 118.177C196.239 117.769 196.303 117.605 196.865 116.948Z" fill="#97BC26"/>
<path d="M185.662 111.517C185.474 112.316 184.674 112.812 183.874 112.625C183.074 112.437 182.578 111.636 182.766 110.837C182.954 110.037 183.754 109.541 184.554 109.729C185.354 109.916 185.85 110.717 185.662 111.517" fill="#00975E"/>
<path d="M185.578 113.503C184.443 113.514 183.291 113.22 182.188 112.976C181.474 112.818 180.543 112.647 180.17 111.963C180.111 112.126 180.068 112.278 180.043 112.416C180.365 112.784 180.842 113.026 181.305 113.155C182.658 113.532 184.181 113.888 185.593 113.874C185.832 113.872 185.818 113.501 185.578 113.503" fill="#00975E"/>
<path d="M184.307 110.782C184.252 111.014 184.02 111.158 183.787 111.104C183.555 111.049 183.411 110.817 183.465 110.584C183.52 110.352 183.752 110.208 183.985 110.262C184.217 110.317 184.361 110.549 184.307 110.782Z" fill="#33292D"/>
<path d="M184.929 103.801L183.362 109.14C185.109 109.653 186.383 109.324 186.802 109.095L184.929 103.801Z" fill="#0C7448"/>
</g>
<defs>
<clipPath id="clip0_304_18647">
<rect width="416.667" height="416.667" fill="white" transform="translate(0.583252 0.634277)"/>
</clipPath>
</defs>
</svg>
