<?xml version="1.0" standalone="no"?>
<!DOCTYPE svg PUBLIC "-//W3C//DTD SVG 20010904//EN"
 "http://www.w3.org/TR/2001/REC-SVG-20010904/DTD/svg10.dtd">
<svg version="1.0" xmlns="http://www.w3.org/2000/svg"
 width="524.000000pt" height="524.000000pt" viewBox="0 0 524.000000 524.000000"
 preserveAspectRatio="xMidYMid meet">
<metadata>
Created by potrace 1.14, written by Peter Selinger 2001-2017
</metadata>
<g transform="translate(0.000000,524.000000) scale(0.100000,-0.100000)"
fill="#000000" stroke="none">
<path d="M910 4774 c-172 -32 -331 -159 -397 -319 -43 -104 -50 -178 -30 -341
1 -16 -27 -52 -98 -126 -109 -114 -124 -130 -206 -233 -124 -154 -166 -235
-176 -336 -20 -205 113 -391 317 -443 32 -8 236 -11 695 -11 617 1 651 2 678
19 76 51 73 175 -5 217 -18 10 -170 13 -673 14 l-650 1 -38 24 c-43 29 -77 91
-77 141 0 33 24 89 54 126 8 10 43 54 77 98 35 44 81 100 103 124 23 24 62 66
87 93 l47 50 47 -37 c70 -53 154 -93 236 -111 26 -6 175 -7 199 -1 209 47 379
214 421 415 11 54 7 198 -6 253 -7 26 -5 27 67 43 40 9 94 18 121 21 46 6 47
5 48 -22 0 -15 1 -110 2 -210 l2 -182 29 -30 c33 -34 83 -52 118 -44 13 3 52
27 88 53 295 216 679 369 1065 425 127 18 368 25 472 14 108 -12 157 -19 175
-25 9 -3 25 -7 37 -9 11 -2 53 -13 93 -24 379 -107 720 -367 932 -711 227
-369 290 -768 201 -1275 -32 -177 -133 -442 -245 -640 -149 -266 -424 -553
-697 -729 -212 -136 -572 -278 -768 -301 -5 -1 -35 -5 -65 -10 -157 -24 -344
-28 -438 -9 -185 38 -346 161 -429 329 -50 99 -62 146 -68 250 -11 225 154
405 372 405 130 0 238 -98 248 -226 7 -82 -38 -137 -123 -148 -56 -7 -86 -26
-107 -66 -46 -89 14 -182 119 -182 138 0 265 85 328 218 29 61 33 78 32 154 0
119 -18 180 -77 272 -181 282 -595 307 -855 51 -123 -122 -182 -262 -187 -442
-8 -335 206 -666 521 -806 120 -53 206 -69 369 -70 135 0 275 8 330 20 11 2
37 7 57 10 21 2 59 10 85 16 27 6 55 12 63 14 224 47 545 186 755 327 409 274
725 659 900 1098 37 92 91 259 101 310 3 14 12 54 20 90 8 36 18 85 22 110 10
62 9 665 -1 715 -90 469 -341 874 -723 1167 -205 157 -489 285 -752 338 -135
27 -227 35 -397 34 -197 -1 -302 -11 -510 -49 -148 -28 -390 -106 -550 -178
-108 -48 -233 -114 -257 -134 -32 -28 -38 -6 -37 131 1 147 -6 174 -54 210
-23 17 -43 21 -110 21 -76 1 -103 -2 -227 -19 -25 -4 -89 -18 -144 -32 l-99
-25 -58 41 c-88 61 -177 91 -284 95 -49 2 -101 1 -115 -1z"/>
<path d="M2370 3213 c-216 -27 -411 -150 -519 -327 -77 -128 -121 -336 -86
-409 29 -62 99 -88 161 -62 48 20 71 61 78 137 19 223 169 378 396 410 53 7
96 19 114 31 69 48 65 154 -8 202 -23 15 -88 24 -136 18z"/>
<path d="M2816 3197 c-81 -47 -81 -161 0 -213 23 -16 75 -17 522 -18 443 -1
500 1 533 16 66 29 89 111 49 175 -36 59 -21 57 -568 58 -477 1 -504 0 -536
-18z"/>
<path d="M4555 3213 c-165 -21 -309 -94 -423 -212 -113 -118 -174 -257 -188
-429 -4 -54 -2 -74 14 -101 36 -66 123 -87 181 -43 35 26 48 55 55 131 17 163
109 298 249 364 59 28 89 35 165 42 92 8 138 45 145 117 10 92 -73 146 -198
131z"/>
</g>
</svg>
